<?xml version="1.0" encoding="iso-8859-1"?>
<!-- Uploaded to: SVG Repo, www.svgrepo.com, Generator: SVG Repo Mixer Tools -->
<svg fill="#000000" version="1.1" id="Layer_1" xmlns="http://www.w3.org/2000/svg" xmlns:xlink="http://www.w3.org/1999/xlink" 
	 viewBox="0 0 335.5 335.5" xml:space="preserve">
<g>
	<g>
		<g>
			<rect x="47" y="304" width="91" height="24"/>
			<path d="M154,328h24v-19.5c0-4.42,3.58-8,8-8s8,3.58,8,8V328h24v-59h-64V328z"/>
			<rect x="234" y="304" width="91" height="24"/>
			<path d="M298.53,44H172v22.5c0,4.42-3.58,8-8,8H93c-4.42,0-8-3.58-8-8V44H73.47C53.08,44,36.5,60.59,36.5,80.97v72.53H60
				c4.42,0,8,3.58,8,8v63c0,4.42-3.58,8-8,8H40.38C46.45,244.64,59,253,73.47,253h225.06c20.38,0,36.97-16.59,36.97-36.97V80.97
				C335.5,60.59,318.91,44,298.53,44z M141,167.5h-35c-4.42,0-8-3.58-8-8s3.58-8,8-8h35c4.42,0,8,3.58,8,8S145.42,167.5,141,167.5z
				 M141,136.5h-35c-4.42,0-8-3.58-8-8s3.58-8,8-8h35c4.42,0,8,3.58,8,8S145.42,136.5,141,136.5z M301,173
				c0,14.06-11.44,25.5-25.5,25.5h-80c-14.06,0-25.5-11.44-25.5-25.5V98c0-14.06,11.44-25.5,25.5-25.5h80
				c14.06,0,25.5,11.44,25.5,25.5V173z"/>
			<path d="M52,169.5H36.5v46.53c0,0.16,0.01,0.31,0.01,0.47H52V169.5z"/>
			<path d="M20.5,169.5H0v47h20.51c0-0.16-0.01-0.31-0.01-0.47V169.5z"/>
			<rect x="101" y="44" width="55" height="14.5"/>
			<rect x="101" y="7.5" width="55" height="20.5"/>
			<path d="M275.5,88.5h-80c-5.24,0-9.5,4.26-9.5,9.5v75c0,5.24,4.26,9.5,9.5,9.5h80c5.24,0,9.5-4.26,9.5-9.5V98
				C285,92.76,280.74,88.5,275.5,88.5z M235.5,167c-17.37,0-31.5-14.13-31.5-31.5s14.13-31.5,31.5-31.5s31.5,14.13,31.5,31.5
				S252.87,167,235.5,167z"/>
			<path d="M235.5,120c-8.55,0-15.5,6.95-15.5,15.5s6.95,15.5,15.5,15.5c8.54,0,15.5-6.95,15.5-15.5S244.04,120,235.5,120z"/>
		</g>
	</g>
</g>
</svg>