<?xml version="1.0" encoding="UTF-8" standalone="no"?>
<!DOCTYPE svg PUBLIC "-//W3C//DTD SVG 20010904//EN" "http://www.w3.org/TR/2001/REC-SVG-20010904/DTD/svg10.dtd">
<svg version="1.0" xmlns="http://www.w3.org/2000/svg" width="300.000000pt" height="106.000000pt" viewBox="0 0 300.000000 106.000000" preserveAspectRatio="xMidYMid meet">
<metadata>
Created by potrace 1.10, written by Peter Selinger 2001-2011
</metadata>
<g transform="translate(0.000000,106.000000) scale(0.100000,-0.100000)" fill="#000000" stroke="none">
<path d="M0 905 l0 -155 155 0 155 0 0 155 0 155 -155 0 -155 0 0 -155z"/>
<path d="M370 905 l0 -155 155 0 155 0 0 155 0 155 -155 0 -155 0 0 -155z"/>
<path d="M750 905 l0 -155 155 0 155 0 0 155 0 155 -155 0 -155 0 0 -155z"/>
<path d="M2407 892 c-37 -41 -6 -112 48 -112 55 0 87 77 47 113 -25 22 -75 21 -95 -1z"/>
<path d="M1717 618 c-26 -150 -47 -279 -47 -285 0 -14 100 -19 100 -5 1 20 59 335 63 339 3 2 31 -75 63 -171 l59 -176 46 0 46 0 46 133 c26 72 52 151 59 175 7 23 15 42 18 42 3 0 19 -79 35 -175 l29 -175 51 0 51 0 -42 253 c-24 138 -46 267 -49 285 -6 33 -7 33 -57 30 l-51 -3 -65 -193 c-36 -106 -69 -189 -73 -185 -3 5 -35 92 -69 196 l-63 187 -52 0 -51 0 -47 -272z"/>
<path d="M1210 733 c0 -4 39 -99 86 -211 l87 -203 35 3 36 3 82 193 c45 106 85 199 88 207 4 12 -5 15 -47 15 l-53 0 -37 -87 c-20 -49 -44 -106 -53 -128 l-16 -39 -53 124 -53 125 -51 3 c-28 2 -51 0 -51 -5z"/>
<path d="M2400 530 l0 -210 55 0 55 0 0 210 0 210 -55 0 -55 0 0 -210z"/>
<path d="M2636 649 c36 -50 67 -96 70 -103 3 -7 -26 -55 -64 -107 -37 -52 -71 -100 -76 -106 -5 -10 7 -13 52 -13 l59 0 44 65 c24 35 47 65 52 65 4 0 28 -29 54 -65 l47 -65 58 0 c45 0 57 3 52 13 -5 6 -37 52 -72 100 -35 49 -65 94 -68 102 -3 7 24 53 60 103 36 49 66 92 66 96 0 3 -25 6 -55 6 l-54 0 -41 -55 c-22 -30 -43 -55 -45 -55 -2 0 -23 25 -45 55 l-41 55 -59 0 -60 0 66 -91z"/>
<path d="M0 535 l0 -155 155 0 155 0 0 155 0 155 -155 0 -155 0 0 -155z"/>
<path d="M377 683 c-4 -3 -7 -73 -7 -155 l0 -148 155 0 155 0 0 155 0 155 -148 0 c-82 0 -152 -3 -155 -7z"/>
<path d="M750 535 l0 -155 155 0 156 0 -3 153 -3 152 -152 3 -153 3 0 -156z"/>
<path d="M0 155 l0 -155 155 0 155 0 0 155 0 155 -155 0 -155 0 0 -155z"/>
<path d="M370 155 l0 -155 155 0 155 0 0 155 0 155 -155 0 -155 0 0 -155z"/>
<path d="M750 155 l0 -155 155 0 155 0 0 155 0 155 -155 0 -155 0 0 -155z"/>
</g>
</svg>