<svg viewBox="0 0 1000 1000" xmlns="http://www.w3.org/2000/svg" xmlns:xlink="http://www.w3.org/1999/xlink"><linearGradient id="a" gradientUnits="userSpaceOnUse" x1="665.98" x2="965.71" y1="457.2" y2="382.47"><stop offset="0" stop-color="#fff"/><stop offset=".23" stop-color="#fbf9f6"/><stop offset=".6" stop-color="#f0ebdf"/><stop offset="1" stop-color="#e2d8bf"/></linearGradient><ellipse cx="535.39" cy="940.32" fill="#9a8e73" opacity=".45" rx="389.33" ry="49.89"/><path d="m762.6 840.28c13.4 13.94 73.39-15.95 110.61-54.7 4.96-5.17 59.42-63.69 55.42-147.78-3.55-74.66-48.94-80.36-63.33-150.41-22.16-107.92 74.91-146.13 60.69-258.61-9.74-77.04-66.35-146.73-134.58-174.16-59.54-23.94-149.11-24.23-171.53 18.47-20.98 39.96 19.87 111.79 71.25 145.14 51.83 33.63 91.38 13.18 113.47 44.86 24.56 35.22-15.74 72.8-15.83 147.78-.12 94.62 63.97 107.77 71.25 192.64 10.73 125.08-118.29 215.05-97.41 236.78z" fill="url(#a)" stroke="#9a8e73" stroke-linejoin="round" stroke-width="15.42"/><path d="m224.08 838.61c61.11 57.09 135.91 121.75 230.98 127.68s251.26 0 343.85-115.43z" fill="#e2d8bf" stroke="#9a8e73" stroke-linejoin="round" stroke-width="20.39"/><path d="m759.25 879.74c-98.08 0-343.17-1.82-404.99-2.71h-.85c-11.22-.17-22.82-.34-33.89-4.89-40.53-16.66-46.42-74.39-40.62-106.87 7.1-39.7 32.03-76.32 68.41-100.47 13.48-8.95 28.56-15.68 43.14-22.19 26.55-11.85 51.62-23.04 66.56-46.3 3.37-5.25 7.31-15.85 11.49-27.08 11.34-30.49 24.2-65.06 48.41-68l243.09-29.47c6.17-.75 12.59-1.2 19.39-1.68 17-1.2 34.57-2.44 47.46-8.42l9.85-4.57 2.11 10.66c3.85 19.44 6.23 23.46 7.38 25.39 1.92 3.25 2.75 5.62 2.76 11.59l5.72 57.79-9.53 107.55c-.06.51-5.8 51.66-18.26 102.14-17.86 72.35-39.98 107.53-67.61 107.53z" fill="#8154a1"/><path d="m830.43 469.41c7.09 35.73 10.04 23.8 9.97 35.73l5.68 57.43-9.45 106.57s-22.38 202.07-77.39 202.07c-99.52 0-345.06-1.84-404.87-2.71-10.72-.16-21.79-.21-31.62-4.25-35.02-14.4-40.95-66.74-35.46-97.47 6.82-38.12 31.43-72.75 64.72-94.86 36.9-24.5 87.09-31.95 112.16-70.99 12.52-19.49 26.18-87.86 53.75-91.21 54.03-6.55 108.04-13.1 162.06-19.65 27.01-3.27 54.02-6.55 81.03-9.82 21.76-2.64 49.71-1.69 69.41-10.83m12.53-24.65-19.71 9.15c-11.46 5.32-28.24 6.5-44.46 7.65-6.61.47-13.44.95-19.82 1.72l-54.02 6.55-27.01 3.27-80.03 9.7-82.03 9.95c-21.18 2.57-33.05 23.7-36.95 30.64-7.38 13.14-13.25 28.93-18.44 42.85-3.83 10.31-7.8 20.96-10.67 25.44-13.56 21.12-37.5 31.8-62.85 43.12-14.9 6.65-30.31 13.53-44.38 22.87-18.35 12.18-34.57 28.07-46.9 45.95-12.93 18.74-21.4 38.97-25.19 60.13-3.53 19.75-2.45 43.09 2.89 62.41 7.39 26.73 22.22 45.36 42.89 53.86 12.57 5.17 25.56 5.35 37.02 5.52h.84c61.81.91 306.96 2.72 405.12 2.72 19.43 0 36.41-13.72 50.45-40.78 9.32-17.96 17.88-42.6 25.45-73.24 12.6-51.02 18.23-101.14 18.46-103.25l.02-.19.02-.19 9.45-106.57.14-1.59-.16-1.59-5.6-56.6c-.05-6.74-1.05-10.61-3.95-15.5-.69-1.16-2.78-4.7-6.35-22.7l-4.23-21.31z" fill="#583178"/><path d="m723.13 621.95c-3.31-4.32-8.23-7.38-14.77-9.19-6.07-1.6-13.02-2.07-20.84-1.4-7.09.64-14.61 2.12-22.55 4.46-7.61 2.33-14.83 5.2-21.65 8.62-6.52 3.34-12.1 6.82-16.74 10.46-4.56 3.62-7.93 7.11-10.11 10.49-2.14 3.53-2.89 6.75-2.25 9.68.71 3.48 3.46 6.69 8.27 9.62 4.42 2.71 10.18 4.97 17.29 6.78s14.73 2.95 22.86 3.42c8.71.47 17.04.03 24.99-1.33 5.14-.92 9.83-2.12 14.08-3.61 4.59-1.75 8.68-3.93 12.29-6.55 3.87-2.86 6.92-6.18 9.15-9.98 2.52-4.2 3.99-8.85 4.39-13.94.61-7.03-.87-12.87-4.43-17.53zm-38.17 23.44c0 2.12-.4 4.07-1.22 5.85-.79 1.6-2.02 3.05-3.72 4.33-1.41 1.12-3.21 2.14-5.41 3.07-2.14.83-4.33 1.47-6.58 1.92-3.94.83-8.4 1.24-13.39 1.22-4.36-.11-8.65-.57-12.87-1.38-3.88-.74-7.17-1.71-9.87-2.93-2.65-1.32-4.13-2.71-4.45-4.17-.18-1.26.37-2.67 1.65-4.25 1.3-1.5 3.25-3.05 5.83-4.66 2.56-1.68 5.49-3.22 8.78-4.61 3.75-1.52 7.37-2.75 10.87-3.71 3.9-.98 7.47-1.64 10.73-1.96 3.53-.23 6.76-.06 9.7.53 2.96.66 5.31 1.81 7.07 3.45 1.82 1.87 2.77 4.3 2.86 7.3zm-108.95-30.57c5.16 9.29 10.55 14.38 16.19 15.29.52.1 1.03.17 1.52.2l3.09-.36c.38-.1.94-.3 1.68-.58 3.11-1.18 6.35-3.5 9.73-6.95 3.23-3.42 6.41-7.76 9.54-13.03 3.35-5.65 6.35-11.99 9.01-19 2.82-7.31 5.05-14.82 6.69-22.54 1.92-9.1 2.93-17.79 3.03-26.07-.01-3.67-.2-7.17-.57-10.51h.02c-.55-4.99-1.47-9.56-2.77-13.7-2.55-8.12-6.47-14.4-11.77-18.83-5.67-4.9-12.72-7.38-21.15-7.44-1.89-.05-3.86.08-5.9.39-1.81.25-3.61.7-5.39 1.35-1.67.46-3.29 1.11-4.86 1.94-1.36.7-2.82 1.63-4.38 2.79-5.02 3.74-9.05 9.01-12.09 15.81-2.88 6.18-4.82 13.41-5.82 21.69-.62 4.71-.93 9.63-.93 14.76-.01 2.11.02 4.25.11 6.41.02-.01.03-.02.05-.04.02.45.04.9.06 1.35.42 7.48 1.36 14.94 2.82 22.38 1.35 6.73 3.05 13.09 5.1 19.06 2.1 5.88 4.42 11.08 6.97 15.61zm34.53-31.38c-1.39 7.73-3.66 14.81-6.81 21.22-2.92 6.03-5.79 9.59-8.59 10.68l-.54.27-1.06.17-.63-.07c-2.4-.41-4.76-3.23-7.1-8.47-2.35-5.32-4.05-11.67-5.1-19.06-1.2-8.25-1.25-15.75-.16-22.5 1.31-8.04 4.18-13.36 8.62-15.96.77-.46 1.35-.74 1.73-.84.59-.24 1.18-.45 1.79-.61s1.31-.28 2.11-.33c.8-.06 1.5-.04 2.09.04 6.74.44 11.23 4.48 13.48 12.11 1.8 6.29 1.85 14.07.15 23.36zm-43.63 41.96c-4.82-6.28-11.18-12.33-19.07-18.18-7.26-5.39-14.38-9.43-21.35-12.15 0 0 0-.01.01-.02-.73-.29-1.64-.61-2.72-.97-8.45-2.83-14.98-2.96-19.59-.39-1.13.64-2.13 1.48-2.98 2.53-.88.98-1.58 2.15-2.1 3.52-.58 1.47-.97 3-1.19 4.61-.21 1.93-.21 3.86-.01 5.76.44 7.88 3.29 14.86 8.55 20.93 1.81 2.12 3.85 4.05 6.12 5.8 0 0 0 0 0-.01 3.31 2.57 7.16 4.87 11.56 6.89 6.62 3.01 13.7 4.99 21.23 5.95 7.61.94 13.93.6 18.95-1.02.99-.27 2.02-.68 3.1-1.22s1.94-1.1 2.6-1.69 1.24-1.28 1.76-2.07c.52-.8.86-1.62 1.03-2.49.87-3.99-1.1-9.25-5.91-15.78zm-4.88 11.26c-.07.35-.2.63-.38.84-.14.37-.36.63-.64.79-.11.19-.38.39-.82.59l-1.19.57c-2.39.82-5.73 1-10.02.54-4.21-.48-8.34-1.51-12.37-3.11-4.3-1.68-7.75-3.84-10.35-6.48-2.95-3.03-4.39-6.48-4.3-10.34.02-.82.1-1.58.24-2.27.19-.79.43-1.42.7-1.91s.64-.95 1.09-1.4c.55-.39 1.04-.69 1.47-.89 2.31-1.12 5.67-.9 10.1.66 3.95 1.29 8.14 3.49 12.59 6.6 4.04 2.81 7.45 5.72 10.23 8.72 2.73 3.09 3.94 5.45 3.66 7.08zm65.27 51.83c-3.15-3.46-6.47-6.48-9.95-9.04-3.67-2.67-7.16-4.66-10.45-5.96-3.47-1.34-6.45-1.79-8.94-1.35l-.46.12c-2.38.57-4.32 1.96-5.84 4.17-1.39 2.09-2.32 4.8-2.8 8.12-.41 2.97-.39 6.19.07 9.66s1.31 6.87 2.55 10.2c2.58 7.05 6.39 12.58 11.41 16.6 5.84 4.61 12.8 6.79 20.9 6.53l.23-.06.75.04.34-.09c8.72-.67 13.84-3.75 15.36-9.23.69-2.56.56-5.54-.37-8.96-.97-3.25-2.56-6.65-4.76-10.21-2.22-3.64-4.9-7.15-8.03-10.54zm-3.97 17.26c-.22 3.08-2.34 4.89-6.36 5.42l-.11.03-.15-.08-.34.09c-4.01.28-7.47-.89-10.4-3.52-2.54-2.41-4.48-5.63-5.83-9.67-1.33-3.96-1.83-7.58-1.5-10.86.3-3.68 1.42-5.7 3.36-6.07l.11-.03c1.96-.29 4.74 1.07 8.35 4.08 3.6 3.02 6.61 6.4 9.03 10.15 2.67 4.09 3.95 7.57 3.84 10.46zm-56.13-36.33c-.83-.34-1.79-.57-2.88-.68s-2.19-.09-3.3.04c-1.05.04-2.16.18-3.32.42-3.29.82-6.34 2.19-9.17 4.1-2.77 1.82-4.83 3.98-6.19 6.47-1.32 2.65-1.58 5.25-.8 7.81.85 2.79 3.01 5.47 6.49 8.02.91.65 2 1.33 3.26 2.05.97.55 2.03 1 3.18 1.33.88.25 1.83.44 2.85.57 1.17.09 2.06.05 2.66-.12 2.84-.37 5.34-1.67 7.51-3.89 2.11-2.13 3.72-4.77 4.81-7.93 1.15-3.26 1.56-6.39 1.22-9.4-.42-3.32-1.71-5.78-3.86-7.4-.82-.59-1.64-1.06-2.47-1.41zm.45 8.82c.09 1.53-.19 3.2-.83 5.01-.67 1.73-1.57 3.21-2.71 4.42-1.19 1.31-2.5 2.07-3.9 2.29l-1.32.12c-.5-.03-.98-.14-1.44-.34-.35-.07-.85-.26-1.5-.57-.39-.22-.88-.53-1.48-.94-1.85-1.37-2.81-2.82-2.91-4.35-.2-1.33.28-2.69 1.46-4.07 1.04-1.27 2.41-2.38 4.11-3.33 1.7-.96 3.39-1.62 5.09-2.01l1.28-.23 1.09-.05c.35.07.65.15.92.24l.69.3c.93.72 1.42 1.9 1.45 3.52z" fill="#e2d8bf"/><path d="m503.03 512.92c-23.52 0-44.76-13.03-55.42-34.02l-9.01-17.72c-7.64-15.05-6.14-32.81 3.92-46.36 6.94-9.34 17.51-15.66 29.02-17.36l317.84-60.47c9.42-2.34 18.36-3.52 26.58-3.52 25.6 0 39.03 11.12 46.25 17.09 1.09.9 2.12 1.76 2.71 2.15l.98.65c15.23 10.12 22.7 28.9 18.59 46.72l-4.51 19.54c-5.74 24.86-26.56 43.98-51.81 47.58l-316.36 45.1c-2.91.41-5.87.62-8.79.62z" fill="#8154a1"/><path d="m815.97 342.24c27.02 0 38.37 13.96 44.1 17.77l.98.65c12.28 8.16 18.21 23.08 14.9 37.44l-4.51 19.54c-4.96 21.51-22.65 37.75-44.5 40.86l-316.36 45.1c-2.53.36-5.05.54-7.56.54-19.88 0-38.39-11.12-47.59-29.21l-9.01-17.72c-6.08-11.98-4.87-26.36 3.14-37.15 5.63-7.59 14.07-12.6 23.42-13.94l318.27-60.55c9.43-2.36 17.61-3.32 24.7-3.32m.02-17.57c-8.87 0-18.44 1.25-28.46 3.72l-317.43 60.39c-13.73 2.08-26.31 9.64-34.6 20.79-5.88 7.92-9.43 17.29-10.26 27.12-.83 9.82 1.09 19.66 5.56 28.45l9.01 17.72c5.97 11.74 15.06 21.57 26.3 28.43 11.14 6.8 23.92 10.39 36.95 10.39 3.34 0 6.72-.24 10.03-.71l316.36-45.1c14.25-2.03 27.38-8.25 37.98-17.98s17.91-22.29 21.15-36.32l4.51-19.54c2.43-10.54 1.6-21.43-2.4-31.49-4-10.05-10.88-18.53-19.89-24.53l-.94-.63c-.35-.25-1.31-1.05-2.01-1.63-7.5-6.2-23.09-19.1-51.85-19.1z" fill="#583178"/><path d="m480.31 432.25c39.44 8.84 100 17.5 172.85 8.58 83.05-10.17 146.06-38.77 183.47-59.37" fill="none" stroke="#583178" stroke-miterlimit="10" stroke-width="17.56"/><path d="m690.16 18.39-54.29 149.97s7.25-46.64-38.98-40.95c0 0 24.29 30.25 7.27 45.96 0 0-15.45-46.3-48.75-41.03 0 0 23.55 25.5 7.52 47.55 0 0-9.72-37.45-44.07-32.02 0 0 26.71 9.56 6.02 38.04l-106.09-115.86 20.47 129.41 38.25 241.79c3.45 21.79 23.9 36.65 45.69 33.21l202.34-32.01c21.79-3.45 36.65-23.9 33.21-45.69l-38.25-241.79z" fill="#e2d8bf" stroke="#9a8e73" stroke-linejoin="round" stroke-width="15.43"/><path d="m687.85 96.27 10.48 66.28-6.18 5.62c-8.51 7.74-21.99 5.64-27.75-4.32s23.44-67.57 23.44-67.57z" fill="#bd62a5"/><path d="m552.22 345.75 72.93-11.53-38.56 39.85z" fill="#bd62a5"/><path d="m454.6 140.16 10.33 65.32 5.63 1.28c9.2 2.09 18.85-.24 26.08-6.3s-42.04-60.31-42.04-60.31z" fill="#bd62a5"/><g stroke-linecap="round"><g stroke="#9a8e73" stroke-linejoin="round"><path d="m550.7 243.69 2.59 108.83 38.31 20.76 34.62-32.3-26.37-105.06" fill="none" stroke-width="12.54"/><path d="m612.74 287.25c1.72-5.19 9.79-27.6 33.84-40.94 10.53-5.84 20.86-8.13 29.43-8.81" fill="none" stroke-width="12.54"/><path d="m552.04 300.19c-2.18-4.34-11.74-22.11-33.39-30.38-13.06-4.99-25.27-4.52-34.57-2.62" fill="none" stroke-width="12.54"/><path d="m614.77 295.35c3.71-4.15 12.66-12.97 27.09-16.9 8.55-2.33 15.99-2.11 20.87-1.55" fill="none" stroke-width="12.54"/><path d="m552.29 310.52c-1.88-2.45-10.65-13.31-26.45-15.85-14-2.26-24.62 3.44-27.62 5.18" fill="none" stroke-width="12.54"/><path d="m591.6 373.28c5.32 5.92 17.39 17.6 36.33 22.26 38.28 9.43 68.86-18.61 71.43-21.05" fill="none" stroke-width="12.54"/><path d="m591.6 373.28c-.91 2.12-13.23 29.42-43.74 34.93-14.96 2.7-27.64-1.05-36.66-5.55" fill="#e2d8bf" stroke-width="15.43"/></g><path d="m637.8 204.89c.69-13.55 4.43-51.29 32.89-85.87 38.87-47.23 93.97-52.24 104.14-52.98" fill="none" stroke="#fff" stroke-miterlimit="10" stroke-width="2.9"/><path d="m659.72 206.71c.69-6.37 4.12-31.17 25.58-51.16 22.36-20.83 48.67-21.85 54.81-21.92" fill="none" stroke="#fff" stroke-miterlimit="10" stroke-width="2.9"/><path d="m511.2 220.62c-6.38-15.16-20.01-41.54-47.5-63.95-48.49-39.52-104.29-37.51-118.76-36.54" fill="none" stroke="#fff" stroke-miterlimit="10" stroke-width="2.9"/><path d="m491.1 227.93c-2.04-6.12-9.62-26.37-31.06-40.19-24.29-15.66-49.12-11.96-54.81-10.96" fill="none" stroke="#fff" stroke-miterlimit="10" stroke-width="2.9"/></g><g stroke-linejoin="round"><path d="m197.61 850.86h318.14l196.75-91.35-327.32 4.8z" fill="#a3a3a3" stroke="#424242" stroke-width="15.43"/><path d="m518.06 786.2-75.47 11.31 48.51 53.35 60.18-19.94z" fill="#e2d8bf" stroke="#9a8e73" stroke-width="15.43"/><path d="m712.5 512.64s-9.06 230.03-194.43 273.56l32.64 44.15s297.11-28.77 297.11-322.14" fill="#8154a1" stroke="#583178" stroke-width="17.07"/><path d="m484.08 530.89s-57.99 139.71-240.92 209.69l52.49 51.36s166.77-14.49 222.41-244.05" fill="#8154a1" stroke="#583178" stroke-width="17.07"/><path d="m197.61 850.86-125.66-212.27c-2.17-3.66.47-8.28 4.72-8.28h294.83c8.48 0 16.33 4.47 20.64 11.77l123.6 208.78z" fill="#a3a3a3" stroke="#424242" stroke-width="15.43"/><path d="m292.83 835.44c-4.99 0-9.69 1.25-13.8 3.45.21-1.42.32-2.88.32-4.36 0-16.21-13.14-29.35-29.35-29.35-13.38 0-24.66 8.96-28.2 21.2-3.53-12.25-14.81-21.2-28.2-21.2-16.21 0-29.35 13.14-29.35 29.35 0 1.48.11 2.94.32 4.36-4.11-2.2-8.81-3.45-13.8-3.45-16.21 0-29.35 13.14-29.35 29.35s13.14 29.35 29.35 29.35v45.08c0 23.46 19.02 42.48 42.48 42.48h57.08c23.46 0 42.48-19.02 42.48-42.48v-45.08c16.21 0 29.35-13.14 29.35-29.35s-13.14-29.35-29.35-29.35z" fill="#e2d8bf" stroke="#9a8e73" stroke-width="15.23"/></g><circle cx="151.67" cy="865.57" fill="#9a8e73" r="12.33"/><circle cx="291.95" cy="865.57" fill="#9a8e73" r="12.33"/><circle cx="193.95" cy="837.17" fill="#9a8e73" r="12.33"/><circle cx="249.67" cy="837.17" fill="#9a8e73" r="12.33"/><path d="m190.67 875.32-6.61 4.59c-5.23 3.63-8.34 9.59-8.34 15.95 0 13.5 13.43 22.88 26.1 18.24l1.22-.45c12.13-4.44 25.43-4.44 37.56 0l1.22.45c12.67 4.64 26.1-4.74 26.1-18.24 0-6.36-3.12-12.32-8.34-15.95l-6.61-4.59c-18.72-13.01-43.56-13.01-62.28 0z" fill="#9a8e73"/><path d="m439.31 835.44c-4.99 0-9.69 1.25-13.8 3.45.21-1.42.32-2.88.32-4.36 0-16.21-13.14-29.35-29.35-29.35-13.38 0-24.66 8.96-28.2 21.2-3.53-12.25-14.81-21.2-28.2-21.2-16.21 0-29.35 13.14-29.35 29.35 0 1.48.11 2.94.32 4.36-4.11-2.2-8.81-3.45-13.8-3.45-16.21 0-29.35 13.14-29.35 29.35s13.14 29.35 29.35 29.35v45.08c0 23.46 19.02 42.48 42.48 42.48h57.08c23.46 0 42.48-19.02 42.48-42.48v-45.08c16.21 0 29.35-13.14 29.35-29.35s-13.14-29.35-29.35-29.35z" fill="#e2d8bf" stroke="#9a8e73" stroke-linejoin="round" stroke-width="15.23"/><circle cx="298.15" cy="865.57" fill="#9a8e73" r="12.33"/><circle cx="438.42" cy="865.57" fill="#9a8e73" r="12.33"/><circle cx="340.42" cy="837.17" fill="#9a8e73" r="12.33"/><circle cx="396.14" cy="837.17" fill="#9a8e73" r="12.33"/><path d="m337.14 875.32-6.61 4.59c-5.23 3.63-8.34 9.59-8.34 15.95 0 13.5 13.43 22.88 26.1 18.24l1.22-.45c12.13-4.44 25.43-4.44 37.56 0l1.22.45c12.67 4.64 26.1-4.74 26.1-18.24 0-6.36-3.12-12.32-8.34-15.95l-6.61-4.59c-18.72-13.01-43.56-13.01-62.28 0z" fill="#9a8e73"/></svg>