<svg viewBox="0 0 1000 1000" xmlns="http://www.w3.org/2000/svg" xmlns:xlink="http://www.w3.org/1999/xlink"><clipPath id="a"><path d="m0 0h1000v1000h-1000z"/></clipPath><linearGradient id="b" gradientUnits="userSpaceOnUse" x1="317.16" x2="317.16" y1="637.14" y2="559.51"><stop offset="0" stop-color="#52000a"/><stop offset=".04" stop-color="#5a0715"/><stop offset=".2" stop-color="#782241"/><stop offset=".36" stop-color="#903965"/><stop offset=".52" stop-color="#a44b81"/><stop offset=".68" stop-color="#b25795"/><stop offset=".84" stop-color="#ba5fa1"/><stop offset="1" stop-color="#bd62a5"/></linearGradient><clipPath id="c"><path d="m317.16 637.14c-39.59 0-74.09-18.24-84.38-43.96 5.42 1.14 10.96 1.74 16.56 1.74 1.48 0 2.98-.04 4.47-.13 33.39-1.88 54.82-24.34 63.35-35.29 8.53 10.95 29.96 33.41 63.35 35.29 7.12.4 14.17-.18 21.03-1.62-10.28 25.72-44.79 43.97-84.38 43.97z"/></clipPath><g clip-path="url(#a)"><path d="m51.1 1013.88 54.43-293.7h420.04l.86 4.63c13.71 4.33 28.25 6.51 43.29 6.51 36.97 0 77.56-13.51 114.29-38.04 35.02-23.39 63.7-54.46 80.77-87.5 22.86-44.23 35.36-92.33 35.19-135.43-.3-77.4-30-174.89-30.3-175.87l-2.29-7.45 80.96-33.32 3.57 7.04c.37.72 36.99 73.6 59.97 170.64 13.53 57.13 19.8 111.43 18.62 161.39-1.48 62.85-14.79 119-39.57 166.89-54.11 104.57-162.35 170.38-321.77 195.7l10.84 58.49h-528.9z" fill="#8154a1"/><path d="m844.29 264.64s302.42 596.8-285.13 683.64l10.57 57.06h-508.35l51.26-276.61h405.83l.48 2.59c16.51 5.87 33.59 8.56 50.78 8.56 82.5 0 167.37-61.89 202.65-130.16 22.02-42.62 36.33-91.7 36.14-139.39-.31-79.62-30.68-178.34-30.68-178.34zm8.1-21.82-14.61 6.01-66.45 27.35-14.41 5.93 4.58 14.9c.3.96 29.63 97.3 29.93 173.39.16 41.75-12 88.45-34.24 131.48-16.18 31.31-44.59 62.04-77.93 84.32-35.34 23.6-74.24 36.6-109.54 36.6-12.4 0-24.42-1.57-35.85-4.69l-1.2-6.46h-434.24l-2.59 13.97-51.26 276.61-3.74 20.2h549.44l-3.74-20.2-7.38-39.82c157.54-26.76 264.93-93.58 319.37-198.79 25.38-49.05 39.02-106.46 40.52-170.61 1.19-50.69-5.15-105.72-18.85-163.56-23.22-98.02-59.15-169.53-60.67-172.53l-7.14-14.09z" fill="#583178"/><path d="m152.18 737.27c-24.96 0-49.08-7.38-69.77-21.33-20.69-13.96-36.56-33.57-45.91-56.71l-2.67-6.61c-.3-.75-.6-1.51-.87-2.27-6.3-17.2-5.19-35.76 3.13-52.27 8.39-16.65 23.46-29.22 41.35-34.48l42.98-12.64h390.26l42.98 12.64c17.89 5.26 32.96 17.83 41.35 34.48 8.32 16.51 9.43 35.08 3.13 52.27-.28.76-.57 1.52-.88 2.28l-2.67 6.6c-9.34 23.14-25.22 42.75-45.91 56.71s-44.82 21.33-69.77 21.33z" fill="#8154a1"/><path d="m509.45 559.51 41.8 12.29c32.19 9.46 50.42 44.11 38.87 75.61-.25.67-.51 1.34-.78 2.01l-2.67 6.61c-17.74 43.93-60.38 72.7-107.76 72.7h-326.73c-47.38 0-90.01-28.76-107.76-72.7l-2.67-6.61c-.27-.67-.53-1.34-.78-2.01-11.55-31.5 6.68-66.15 38.87-75.61l41.8-12.29h387.8m2.47-17.09h-392.71l-2.36.69-41.8 12.29c-20.15 5.92-37.12 20.08-46.57 38.83-9.4 18.65-10.65 39.62-3.52 59.06.31.85.64 1.7.97 2.53l2.67 6.61c9.98 24.73 26.95 45.68 49.05 60.59 22.11 14.91 47.88 22.8 74.55 22.8h326.74c26.67 0 52.44-7.88 74.55-22.8 22.1-14.91 39.07-35.86 49.05-60.59l2.67-6.61c.34-.83.66-1.68.97-2.53 7.12-19.44 5.87-40.41-3.52-59.06-9.45-18.75-26.42-32.91-46.57-38.83l-41.8-12.29-2.36-.69z" fill="#583178"/><path d="m85.77 613.51c9.24 9.55 22.97 21.67 41.77 32.27 23.25 13.11 44.85 18.6 59.47 21.09" fill="none" stroke="#583178" stroke-miterlimit="10" stroke-width="17.09"/><path d="m545.34 613.51c-9.24 9.55-22.97 21.67-41.77 32.27-23.25 13.11-44.85 18.6-59.47 21.09" fill="none" stroke="#583178" stroke-miterlimit="10" stroke-width="17.09"/><path d="m241.36 294.7h9.54c1.35-4.16 3.24-8.19 5.06-12 1.69-3.54 3.16-7.22 5.03-10.68 1.76-3.27 4.38-5.71 6.38-8.8 4.07-6.28 9.12-10.36 14.94-14.98 6.05-4.81 11.75-9.32 19.33-11.38 3.78-1.03 6.72 2.94 6.55 6.24-.24 4.63-2.62 7.94-4.67 11.91-2.33 4.5-4.12 9.31-6.33 13.87-.57 1.17-4.46 8.62-6.01 14.12 1.45-2.39 3.14-4.68 4.83-6.84 4.57-5.83 9.94-11.12 15.83-15.62 11.57-8.85 25.69-17.22 39.57-21.52 3.76-1.16 6.91.53 7.92 4.36 1.16 4.43-1.82 7.9-4.42 11.1-3.85 4.75-6.53 10.71-9.72 15.94-2.68 4.38-8.5 10.53-9.4 15.64-.39 2.22-.62.97.74 2.41.9.95 2.89 1.66 3.95 2.32.45.27 1.03.74 1.64 1.26.17-1.17.33-2.31.6-3.26.87-3.12 2-6.06 3.56-8.9 2.76-5.02 6.47-9.38 10.55-13.37 4.15-4.07 8.58-6.64 13.53-9.54 4.08-2.39 9.04-6.69 14.15-4.49 9.74 4.19 1.1 20.36-1.58 26.46-1.81 4.13-5.68 10.65-5.66 15.75h12.5s119.7-166 119.7-166v166s0 306.23 0 306.23c0 36.09-29.26 65.35-65.35 65.35h-257.12c-36.09 0-65.35-29.26-65.35-65.35v-306.23s0-166 0-166l119.7 166z" fill="#e2d8bf" stroke="#9a8e73" stroke-linejoin="round" stroke-width="17.09"/><path d="m254.22 498.5h125.88l-64.55 52.93z" fill="#bd62a5"/><path d="m290.62 364.01-36.4 134.49 61.33 52.93 64.55-52.93-39.61-134.49" fill="none" stroke="#9a8e73" stroke-linecap="round" stroke-linejoin="round" stroke-width="13.88"/><path d="m148.22 215.22v89.07l4.56 1.96c18.22 7.84 39.41 3.19 52.68-11.55s-57.23-79.49-57.23-79.49z" fill="#bd62a5"/><path d="m482.89 215.22v89.07l-4.56 1.96c-18.22 7.84-39.41 3.19-52.68-11.55s57.23-79.49 57.23-79.49z" fill="#bd62a5"/><g fill="none"><path d="m160.76 418.97c10.58-1.18 34.77-2.4 61.07 10.18 19.41 9.28 31.73 22.13 38.2 30.02" stroke="#9a8e73" stroke-linecap="round" stroke-linejoin="round" stroke-width="13.88"/><path d="m470.35 418.97c-10.58-1.18-34.77-2.4-61.07 10.18-19.41 9.28-31.73 22.13-38.2 30.02" stroke="#9a8e73" stroke-linecap="round" stroke-linejoin="round" stroke-width="13.88"/><path d="m186.47 452.63c6.46-1.97 19.11-4.86 34.61-2.04 19.14 3.49 31.61 13.7 36.64 18.32" stroke="#9a8e73" stroke-linecap="round" stroke-linejoin="round" stroke-width="13.88"/><path d="m447.85 452.63c-6.46-1.97-19.11-4.86-34.61-2.04-19.14 3.49-31.61 13.7-36.64 18.32" stroke="#9a8e73" stroke-linecap="round" stroke-linejoin="round" stroke-width="13.88"/></g><path d="m462.07 534.92c-2.38-1.05-5.15.02-6.2 2.4-13.5 30.53-43.56 49.85-74.83 48.1-37.09-2.09-57.68-32.98-59.91-36.5-.86-1.36-2.36-2.19-3.97-2.19s-3.11.83-3.97 2.19c-2.23 3.52-22.82 34.41-59.91 36.5-31.26 1.75-61.33-17.57-74.83-48.1-1.05-2.37-3.82-3.45-6.2-2.4-2.37 1.05-3.45 3.83-2.4 6.2 10.41 23.54 29.72 41.11 52.25 49.08 0 .44.03.88.16 1.32 9.14 31.88 49.05 55.02 94.89 55.02s85.75-23.14 94.89-55.02c.13-.44.16-.89.16-1.33 22.53-7.97 41.84-25.53 52.25-49.08 1.05-2.37-.02-5.15-2.4-6.2z" fill="#9a8e73"/><path d="m317.16 637.14c-39.59 0-74.09-18.24-84.38-43.96 5.42 1.14 10.96 1.74 16.56 1.74 1.48 0 2.98-.04 4.47-.13 33.39-1.88 54.82-24.34 63.35-35.29 8.53 10.95 29.96 33.41 63.35 35.29 7.12.4 14.17-.18 21.03-1.62-10.28 25.72-44.79 43.97-84.38 43.97z" fill="url(#b)"/><g clip-path="url(#c)"><path d="m370.63 635.24c-3.93-6.38-10.99-9.19-17.39-12.4-2.72-1.36-4.91-3.32-7.97-3.95-3.77-.77-7.72-.24-11.42.67-1.86.46-3.8.96-5.55 1.78-1.43.67-3.12 2.39-4.58 2.43-1.41.04-3.21-1.45-4.44-2.08-2.28-1.17-4.59-2.23-7.03-3.03-6.75-2.23-15.82-1.58-22.64.22-7.36 1.94-12.63 5.66-18.94 9.62-4.23 2.65-10.62 7.84-6.65 13.4 3.3 4.63 11.47 3.52 16.4 3.5 9.54-.03 19.43-.75 28.9.32 5.27.59 10.52.76 15.83.83 4.68.06 9.11-1.16 13.74-1.22 5.15-.08 10.4-.13 15.54.14 3.54.19 7.04.67 10.43-.67.19-.07.35-.16.52-.25 3.93.14 8.05-4.75 5.25-9.31z" fill="#bd62a5"/></g><path d="m245.83 366.18c-7.67-16.3-29.04-55.96-75.32-83.46-61.6-36.61-123.34-25.54-138.43-22.39" fill="none" stroke="#fff" stroke-linecap="round" stroke-miterlimit="10" stroke-width="2.82"/><path d="m240.86 381.57c-14.45-10.75-52-35.64-105.78-38.07-13.3-.6-25.82.25-37.48 2.1" fill="none" stroke="#fff" stroke-linecap="round" stroke-miterlimit="10" stroke-width="2.82"/><path d="m385.27 366.18c7.67-16.3 29.04-55.96 75.32-83.46 61.6-36.61 123.34-25.54 138.43-22.39" fill="none" stroke="#fff" stroke-linecap="round" stroke-miterlimit="10" stroke-width="2.82"/><path d="m390.25 381.57c14.45-10.75 52-35.64 105.78-38.07 13.3-.6 25.82.25 37.48 2.1" fill="none" stroke="#fff" stroke-linecap="round" stroke-miterlimit="10" stroke-width="2.82"/><path d="m459.15 919.02c-3.87-5.05-9.63-8.64-17.27-10.75-7.11-1.88-15.23-2.42-24.38-1.64-8.3.74-17.09 2.48-26.37 5.22-8.9 2.72-17.34 6.09-25.32 10.09-7.62 3.9-14.15 7.98-19.58 12.24-5.34 4.23-9.28 8.32-11.83 12.27-2.5 4.12-3.38 7.9-2.63 11.32.83 4.07 4.05 7.82 9.67 11.25 5.17 3.17 11.91 5.81 20.23 7.93s17.23 3.45 26.75 4c10.18.56 19.93.04 29.24-1.56 6.01-1.07 11.5-2.48 16.47-4.22 5.36-2.04 10.16-4.6 14.38-7.66 4.53-3.34 8.1-7.23 10.7-11.67 2.95-4.92 4.66-10.35 5.14-16.31.71-8.22-1.02-15.05-5.18-20.51zm-44.65 27.42c.01 2.48-.46 4.76-1.42 6.84-.92 1.88-2.37 3.56-4.35 5.06-1.65 1.31-3.76 2.51-6.32 3.59-2.5.97-5.07 1.72-7.7 2.25-4.61.97-9.83 1.45-15.66 1.42-5.1-.13-10.12-.67-15.06-1.61-4.53-.86-8.38-2-11.54-3.43-3.1-1.54-4.83-3.17-5.21-4.88-.21-1.47.43-3.13 1.93-4.97 1.53-1.76 3.8-3.57 6.82-5.45 3-1.97 6.42-3.76 10.27-5.39 4.39-1.77 8.62-3.22 12.71-4.34 4.56-1.15 8.74-1.92 12.56-2.29 4.13-.27 7.91-.06 11.35.62 3.46.77 6.22 2.12 8.27 4.04 2.13 2.19 3.24 5.04 3.34 8.54zm-127.44-35.75c6.03 10.86 12.35 16.82 18.94 17.89.61.12 1.2.2 1.78.23l3.61-.42c.44-.12 1.1-.35 1.96-.68 3.64-1.38 7.43-4.09 11.39-8.13 3.78-4 7.5-9.07 11.16-15.24 3.92-6.61 7.43-14.02 10.54-22.23 3.3-8.55 5.91-17.33 7.83-26.36 2.24-10.65 3.43-20.81 3.54-30.49-.01-4.29-.24-8.38-.67-12.29h.02c-.64-5.84-1.72-11.18-3.24-16.02-2.98-9.5-7.57-16.84-13.77-22.02-6.63-5.73-14.88-8.63-24.74-8.7-2.21-.06-4.51.09-6.9.46-2.12.29-4.22.82-6.3 1.58-1.96.54-3.85 1.29-5.68 2.27-1.59.82-3.3 1.91-5.12 3.27-5.87 4.38-10.58 10.54-14.14 18.49-3.37 7.23-5.64 15.68-6.81 25.37-.73 5.51-1.09 11.27-1.08 17.26-.01 2.47.02 4.97.13 7.5.02-.01.04-.03.06-.04.03.53.04 1.05.08 1.58.49 8.75 1.59 17.48 3.3 26.18 1.58 7.88 3.57 15.31 5.96 22.3 2.46 6.87 5.17 12.96 8.15 18.26zm40.39-36.71c-1.63 9.04-4.29 17.32-7.96 24.82-3.42 7.05-6.77 11.22-10.05 12.5l-.63.32-1.24.2-.74-.08c-2.8-.47-5.57-3.78-8.3-9.91-2.75-6.22-4.74-13.65-5.96-22.3-1.4-9.65-1.46-18.42-.18-26.32 1.53-9.4 4.89-15.62 10.08-18.67.9-.53 1.58-.86 2.02-.98.69-.28 1.39-.52 2.1-.72s1.54-.32 2.47-.39c.94-.07 1.75-.05 2.45.05 7.88.52 13.14 5.24 15.77 14.17 2.11 7.35 2.17 16.46.17 27.32zm-51.05 49.08c-5.64-7.34-13.07-14.43-22.3-21.26-8.49-6.3-16.82-11.03-24.97-14.21 0 0 0-.01.01-.02-.86-.34-1.92-.72-3.18-1.14-9.89-3.31-17.52-3.47-22.91-.46-1.32.74-2.49 1.73-3.49 2.96-1.03 1.14-1.84 2.51-2.46 4.11-.68 1.71-1.14 3.51-1.39 5.4-.24 2.26-.25 4.51-.02 6.74.52 9.22 3.85 17.38 10 24.49 2.11 2.48 4.5 4.74 7.16 6.78 0 0 0 0 0-.01 3.87 3.01 8.37 5.7 13.52 8.06 7.75 3.52 16.02 5.83 24.83 6.96 8.9 1.1 16.29.7 22.17-1.2 1.16-.32 2.36-.79 3.62-1.42s2.27-1.29 3.04-1.98 1.45-1.5 2.06-2.43 1.01-1.9 1.21-2.91c1.01-4.67-1.29-10.82-6.92-18.45zm-5.71 13.17c-.08.4-.23.73-.45.98-.17.43-.42.74-.75.92-.13.23-.45.46-.96.69l-1.39.67c-2.8.96-6.7 1.17-11.72.63-4.93-.56-9.75-1.77-14.47-3.63-5.03-1.97-9.06-4.49-12.11-7.58-3.45-3.54-5.13-7.58-5.03-12.09.02-.96.12-1.85.28-2.65.23-.92.5-1.67.82-2.23s.75-1.11 1.27-1.64c.64-.46 1.21-.81 1.72-1.04 2.7-1.31 6.64-1.05 11.82.78 4.62 1.51 9.52 4.08 14.72 7.72 4.72 3.29 8.71 6.69 11.96 10.19 3.19 3.62 4.61 6.38 4.28 8.29zm76.36 60.63c-3.69-4.05-7.57-7.58-11.64-10.57-4.29-3.12-8.37-5.45-12.23-6.97-4.06-1.56-7.55-2.09-10.46-1.58l-.53.15c-2.78.67-5.06 2.29-6.83 4.88-1.62 2.45-2.71 5.62-3.28 9.49-.48 3.48-.45 7.24.08 11.3.54 4.06 1.53 8.04 2.98 11.94 3.02 8.25 7.47 14.72 13.34 19.42 6.83 5.39 14.97 7.94 24.45 7.64l.27-.07.87.05.4-.11c10.2-.79 16.19-4.38 17.97-10.79.81-2.99.66-6.49-.43-10.49-1.14-3.8-2.99-7.78-5.56-11.95-2.6-4.26-5.73-8.37-9.39-12.33zm-4.64 20.19c-.25 3.6-2.73 5.72-7.44 6.34l-.13.04-.17-.1-.4.11c-4.69.33-8.74-1.05-12.16-4.12-2.97-2.82-5.24-6.59-6.82-11.32-1.56-4.64-2.14-8.87-1.76-12.7.35-4.3 1.66-6.66 3.93-7.1l.13-.04c2.29-.34 5.55 1.25 9.76 4.78s7.73 7.48 10.56 11.87c3.12 4.78 4.62 8.86 4.5 12.24zm-65.66-42.49c-.97-.4-2.09-.67-3.37-.8s-2.56-.11-3.85.05c-1.23.05-2.52.21-3.88.49-3.85.96-7.42 2.56-10.72 4.8-3.24 2.13-5.65 4.65-7.24 7.57-1.54 3.1-1.85 6.14-.94 9.14.99 3.26 3.52 6.39 7.59 9.39 1.07.76 2.34 1.56 3.81 2.4 1.13.65 2.37 1.17 3.72 1.56 1.03.29 2.15.51 3.33.66 1.37.1 2.4.06 3.12-.14 3.32-.43 6.25-1.95 8.78-4.55 2.47-2.49 4.35-5.58 5.63-9.28 1.35-3.81 1.82-7.47 1.43-11-.49-3.88-1.99-6.76-4.52-8.65-.95-.69-1.92-1.24-2.89-1.65zm.53 10.31c.11 1.79-.22 3.74-.98 5.86-.78 2.03-1.84 3.75-3.17 5.17-1.4 1.53-2.92 2.42-4.57 2.68l-1.54.13c-.58-.03-1.14-.16-1.69-.4-.4-.08-.99-.3-1.76-.66-.45-.26-1.03-.63-1.73-1.1-2.16-1.61-3.29-3.3-3.4-5.09-.24-1.56.33-3.15 1.7-4.77 1.22-1.48 2.82-2.78 4.81-3.9s3.97-1.9 5.95-2.35l1.5-.27 1.27-.06c.4.08.76.17 1.08.28l.81.35c1.09.85 1.66 2.22 1.7 4.12z" fill="#e2d8bf"/><path d="m602.07 191.32c-6.73-8.73-10.56-18.53-11.47-29.42-.91-10.88 1.21-21.08 6.37-30.59l13.99 7.6c-3.69 6.81-5.21 14.05-4.54 21.71.67 7.67 3.41 14.62 8.24 20.87l-12.58 9.83zm272.47 176.77c-10.31 7.75-21.79 13.05-34.44 15.9-12.66 2.85-25.95 3.15-39.89.9-13.93-2.25-27.9-7.17-41.89-14.77-6.34-3.44-12.27-7.65-17.77-12.64-5.51-4.98-10.95-10.86-16.32-17.65l-7.17-9.15c-12.2-15.56-22.31-27.63-30.34-36.21-8.02-8.58-15.25-14.62-21.69-18.11-3.26-1.77-6.5-2.98-9.71-3.64-3.21-.65-6.49-1.89-9.85-3.72-5.78-3.14-9.61-7.87-11.49-14.21-1.88-6.33-1.12-12.62 2.27-18.87 3.6-6.62 8.7-11.46 15.31-14.52 6.61-3.05 13.86-4.34 21.75-3.86s15.57 2.75 23.03 6.8c2.43 1.32 4.87 2.82 7.33 4.52s5.01 3.56 7.65 5.6l-29.48-99.51c-1.16-3.65-1.45-7.28-.88-10.89s1.75-7.05 3.52-10.32c3.14-5.79 7.65-10.25 13.52-13.4 5.88-3.15 12.02-4.07 18.44-2.76l-1.66-5.61c-2.3-7.77-1.56-15.15 2.24-22.15 3.9-7.18 9.89-11.87 17.96-14.07 8.08-2.2 15.7-1.34 22.89 2.55 7 3.8 11.6 9.44 13.82 16.92l1.34 4.53c4.52-4.55 10.01-7.31 16.45-8.28s12.56.11 18.34 3.25c6.81 3.7 11.39 9.5 13.73 17.42l1.92 6.48c4.65-4.12 10.27-6.56 16.84-7.34 6.58-.78 12.67.36 18.26 3.39 7.84 4.25 13.18 11.32 16.03 21.2l32.96 118.79c5.34 19.08 7.37 37.48 6.08 55.2-1.29 17.71-5.78 33.66-13.47 47.84-6.78 12.5-15.33 22.62-25.63 30.37zm-231.21-183.97c-4.87-6.15-7.64-13.18-8.3-21.08-.66-7.91.88-15.31 4.63-22.21l13.99 7.6c-2.23 4.11-3.15 8.53-2.76 13.26.39 4.74 2.06 8.94 5.02 12.6zm265.78-51.96c1.43-4.42 1.55-8.91.35-13.49s-3.55-8.42-7.05-11.53l10.66-11.96c5.85 5.23 9.81 11.69 11.85 19.38s1.82 15.27-.66 22.74l-15.14-5.14zm40.92-3.42c2.38-7.28 2.59-14.66.6-22.13-1.98-7.48-5.87-13.87-11.68-19.2l10.72-11.75c8.06 7.39 13.5 16.39 16.33 26.98s2.5 20.98-.98 31.17l-15-5.06z" fill="#9a8e73"/><path d="m895.67 288.63c.93-15.5-.96-31.83-5.65-48.98l-32.53-116.92c-1.82-6.42-4.7-10.7-8.61-12.83-2.89-1.57-6.04-1.77-9.45-.6s-5.9 3.2-7.47 6.09c-1.52 2.8-1.87 5.56-1.06 8.3l18.92 64.25-15.97 4.73-28.02-94.19c-1.21-3.55-3.35-6.17-6.43-7.84-3.17-1.72-6.48-2.07-9.94-1.05-3.45 1.02-6.04 3.12-7.76 6.29-.66 1.21-1.19 2.52-1.59 3.93s-.35 2.86.17 4.35l28.32 95.98-15.97 4.73-36.66-123.33c-1.02-3.45-3.17-6.06-6.43-7.84-3.08-1.67-6.37-2.01-9.87-1.01s-6.03 2.94-7.6 5.84c-1.62 2.98-1.88 6.35-.77 10.09l36.58 123.47-16.05 4.87-27.5-92.82c-1.11-3.74-3.39-6.55-6.84-8.42-2.98-1.62-6.1-1.83-9.34-.64-3.25 1.2-5.65 3.24-7.22 6.13-1.72 3.17-2.07 6.48-1.05 9.94l34.41 116.13c17.95.08 33.87 3.9 47.77 11.44 18.1 9.82 31.1 24.91 39.01 45.27l-17.04 6.69c-3.24-8.04-7.46-15.07-12.65-21.09s-11.23-10.9-18.13-14.64c-13.71-7.44-30.35-10.38-49.92-8.81l-24.39-18.13c-3.1-2.29-5.62-4.05-7.55-5.27-1.93-1.23-3.78-2.32-5.55-3.29-4.1-2.23-8.29-3.63-12.57-4.2s-8.2-.19-11.76 1.13c-3.56 1.33-6.3 3.76-8.22 7.31-1.01 1.86-1.3 3.73-.86 5.6.43 1.87 1.45 3.23 3.03 4.09 1.4.76 4.06 1.69 7.99 2.8s7.39 2.47 10.37 4.09c7.74 4.2 16.09 11.06 25.06 20.58 8.96 9.51 20.03 22.61 33.19 39.3l7.17 9.15c3.91 5.02 8.16 9.5 12.72 13.43 4.57 3.93 9.75 7.46 15.53 10.6 12.03 6.53 23.84 10.86 35.43 12.98s22.56 2.16 32.9.11c10.35-2.05 19.7-6.15 28.05-12.3s15.26-14.27 20.73-24.34c6.48-11.94 10.18-25.66 11.11-41.15z" fill="#e2d8bf"/></g></svg>