<svg viewBox="0 0 1000 1000" xmlns="http://www.w3.org/2000/svg" xmlns:xlink="http://www.w3.org/1999/xlink"><linearGradient id="a" gradientTransform="matrix(-.96827861 -.24987305 -.24987305 .96827861 1478.45 159.9)" gradientUnits="userSpaceOnUse" x1="622.03" x2="864.48" y1="504.63" y2="444.18"><stop offset="0" stop-color="#fff"/><stop offset=".23" stop-color="#fbf9f6"/><stop offset=".6" stop-color="#f0ebdf"/><stop offset="1" stop-color="#e2d8bf"/></linearGradient><clipPath id="b"><path d="m688.26 534.74v-10.79c0-39.85-15.83-78.06-44-106.23-28.17-28.18-66.39-44-106.23-44h-115.41c-39.85 0-78.06 15.83-106.23 44-28.17 28.18-44 66.39-44 106.23v10.79"/></clipPath><linearGradient id="c" gradientUnits="userSpaceOnUse" x1="480.31" x2="480.31" y1="373.71" y2="324.38"><stop offset="0" stop-color="#52000a"/><stop offset=".04" stop-color="#5a0715"/><stop offset=".2" stop-color="#782241"/><stop offset=".36" stop-color="#903965"/><stop offset=".52" stop-color="#a44b81"/><stop offset=".68" stop-color="#b25795"/><stop offset=".84" stop-color="#ba5fa1"/><stop offset="1" stop-color="#bd62a5"/></linearGradient><path d="m596.98 773.64c-13.31 8.21-54.26-27.32-75.58-65.2-2.84-5.05-33.67-61.89-13.54-126.94 17.87-57.76 54.57-53.05 80-105.01 39.17-80.05-29.15-129.59 4.72-214.82 23.2-58.37 81.62-101.51 140.61-109.22 51.47-6.72 121.69 11.16 130.61 49.13 8.36 35.53-38.15 83.55-85.14 99.28-47.39 15.87-74.23-8.15-97.94 12.21-26.35 22.62-2.38 60.2-17.46 118.95-19.03 74.14-71.88 71.48-94.74 136.48-33.68 95.8 49.19 192.35 28.44 205.15z" fill="url(#a)" stroke="#9a8e73" stroke-linejoin="round" stroke-width="15"/><path d="m958.68 987c14.1 0 25.57-11.47 25.57-25.57v-389.55c0-7.05-2.87-13.44-7.5-18.07s0 0 0 0l-14.14-14.13c-4.63-4.63-11.02-7.5-18.06-7.5h-903.22c-6.12 0-11.75 2.16-16.16 5.77-5.74 4.69-9.41 11.83-9.41 19.8v389.55c0 7.04 2.86 13.43 7.49 18.06l14.12 14.13s0 .02 0 .02c4.63 4.63 11.02 7.5 18.07 7.5h903.22z" fill="#9d00bf"/><rect fill="#ded3ed" height="427.68" rx="19.07" stroke="#9d00bf" stroke-miterlimit="10" stroke-width="13" width="941.33" x="22.26" y="538.67"/><path d="m295.18 584.94v331.59h-39.74l-116.2-225.86h-2.05v225.86h-44.67v-331.59h39.98l116.08 226.02h2.17v-226.02zm30.56 331.59v-331.59h160.4v50.35h-115.72v90.02h107.41v50.35h-107.41v90.51h116.68v50.35h-161.36zm239.96 0-69.6-331.59h48.05l44.43 243.67h2.29l47.44-243.67h43.71l47.57 243.83h2.17l44.43-243.83h48.05l-69.6 331.59h-44.07l-49.37-232.66h-1.93l-49.49 232.66h-44.07zm299.57 3.56c-7.31 0-13.55-3.46-18.73-10.36-5.18-6.91-7.77-15.33-7.77-25.26s2.59-18.03 7.77-24.93c5.18-6.91 11.42-10.36 18.73-10.36s13.35 3.46 18.6 10.36c5.26 6.91 7.89 15.22 7.89 24.93 0 6.58-1.22 12.58-3.67 17.97-2.45 5.4-5.66 9.69-9.63 12.87s-8.37 4.78-13.19 4.78zm23.36-335.15-3.97 234.12h-38.77l-3.85-234.12h46.6z" fill="#9d00bf"/><path d="m688.26 534.74v-10.79c0-39.85-15.83-78.06-44-106.23-28.17-28.18-66.39-44-106.23-44h-115.41c-39.85 0-78.06 15.83-106.23 44-28.17 28.18-44 66.39-44 106.23v10.79" fill="#8154a1"/><g clip-path="url(#b)"><path d="m570.14 502.48c-2.68-3.5-6.67-5.99-11.97-7.45-4.93-1.3-10.56-1.68-16.9-1.13-5.75.52-11.85 1.72-18.28 3.61-6.17 1.89-12.02 4.22-17.55 6.99-5.29 2.71-9.81 5.53-13.57 8.48-3.7 2.93-6.43 5.77-8.2 8.5-1.73 2.86-2.34 5.48-1.82 7.85.57 2.82 2.81 5.42 6.7 7.8 3.58 2.2 8.26 4.03 14.02 5.5 5.77 1.47 11.95 2.39 18.54 2.77 7.06.38 13.81.03 20.27-1.08 4.17-.74 7.97-1.72 11.42-2.93 3.72-1.42 7.04-3.19 9.97-5.31 3.14-2.32 5.61-5.01 7.42-8.09 2.05-3.41 3.23-7.18 3.56-11.3.49-5.7-.71-10.44-3.59-14.21zm-30.95 19.01c0 1.72-.32 3.3-.99 4.74-.64 1.3-1.64 2.47-3.01 3.51-1.14.91-2.6 1.74-4.38 2.49-1.74.67-3.51 1.19-5.33 1.56-3.19.68-6.81 1-10.85.99-3.53-.09-7.01-.46-10.44-1.12-3.14-.6-5.81-1.39-8-2.38-2.15-1.07-3.35-2.2-3.61-3.38-.15-1.02.3-2.17 1.34-3.45 1.06-1.22 2.63-2.48 4.73-3.78 2.08-1.36 4.45-2.61 7.12-3.74 3.04-1.23 5.98-2.23 8.81-3.01 3.16-.8 6.06-1.33 8.7-1.59 2.86-.19 5.48-.04 7.87.43 2.4.54 4.31 1.47 5.73 2.8 1.47 1.52 2.25 3.49 2.32 5.92zm-88.34-24.78c4.18 7.53 8.56 11.66 13.13 12.4.42.08.83.14 1.24.16l2.5-.29c.31-.08.76-.24 1.36-.47 2.52-.95 5.15-2.83 7.89-5.64 2.62-2.77 5.2-6.29 7.74-10.56 2.72-4.58 5.15-9.72 7.3-15.41 2.28-5.92 4.09-12.01 5.43-18.27 1.56-7.38 2.37-14.42 2.46-21.13 0-2.97-.17-5.81-.46-8.52h.02c-.45-4.05-1.2-7.75-2.25-11.11-2.07-6.59-5.25-11.67-9.54-15.27-4.6-3.97-10.31-5.98-17.15-6.03-1.53-.04-3.13.06-4.78.32-1.47.2-2.92.57-4.37 1.1-1.36.37-2.67.9-3.94 1.58-1.1.57-2.29 1.32-3.55 2.26-4.07 3.03-7.34 7.31-9.8 12.82-2.34 5.01-3.91 10.87-4.72 17.58-.51 3.82-.75 7.81-.75 11.97 0 1.71.02 3.45.09 5.2.01 0 .03-.02.04-.03.02.37.03.73.05 1.1.34 6.07 1.1 12.12 2.29 18.15 1.1 5.46 2.48 10.61 4.13 15.46 1.7 4.77 3.59 8.98 5.65 12.66zm28-25.45c-1.13 6.27-2.97 12-5.52 17.21-2.37 4.89-4.69 7.77-6.97 8.66l-.44.22-.86.14-.51-.06c-1.94-.33-3.86-2.62-5.75-6.87-1.91-4.31-3.29-9.46-4.13-15.46-.97-6.69-1.01-12.77-.13-18.24 1.06-6.52 3.39-10.83 6.99-12.94.63-.37 1.09-.6 1.4-.68.48-.2.96-.36 1.45-.5s1.06-.23 1.71-.27c.65-.05 1.22-.03 1.7.03 5.46.36 9.11 3.63 10.93 9.82 1.46 5.1 1.5 11.41.12 18.94zm-35.38 34.02c-3.91-5.09-9.06-10-15.46-14.74-5.89-4.37-11.66-7.65-17.31-9.85 0 0 0-.01 0-.02-.59-.23-1.33-.5-2.2-.79-6.85-2.3-12.15-2.4-15.88-.32-.92.52-1.72 1.2-2.42 2.05-.71.79-1.28 1.74-1.7 2.85-.47 1.19-.79 2.43-.96 3.74-.17 1.57-.17 3.13-.01 4.67.36 6.39 2.67 12.05 6.93 16.97 1.46 1.72 3.12 3.28 4.96 4.7 2.68 2.09 5.8 3.95 9.37 5.59 5.37 2.44 11.11 4.04 17.21 4.82 6.17.76 11.29.48 15.37-.83.8-.22 1.64-.55 2.51-.99s1.58-.9 2.11-1.37 1.01-1.04 1.43-1.68.7-1.32.84-2.02c.7-3.24-.9-7.5-4.79-12.79zm-3.96 9.13c-.06.28-.16.51-.31.68-.12.3-.29.51-.52.64-.09.16-.31.32-.66.48l-.97.46c-1.94.66-4.65.81-8.12.44-3.42-.39-6.76-1.23-10.03-2.52-3.49-1.36-6.28-3.11-8.39-5.25-2.39-2.46-3.56-5.25-3.49-8.38.02-.67.08-1.28.19-1.84.16-.64.35-1.15.57-1.55s.52-.77.88-1.14c.44-.32.84-.56 1.19-.72 1.87-.91 4.6-.73 8.19.54 3.2 1.04 6.6 2.83 10.21 5.35 3.27 2.28 6.04 4.64 8.29 7.07 2.21 2.51 3.2 4.42 2.96 5.74zm52.93 42.03c-2.56-2.81-5.25-5.25-8.07-7.33-2.98-2.16-5.8-3.78-8.47-4.83-2.81-1.08-5.23-1.45-7.25-1.09l-.37.1c-1.93.46-3.5 1.59-4.74 3.38-1.12 1.7-1.88 3.89-2.27 6.58-.33 2.41-.31 5.02.06 7.83s1.06 5.57 2.07 8.27c2.1 5.72 5.18 10.2 9.25 13.46 4.73 3.74 10.38 5.5 16.94 5.29l.18-.05.61.03.28-.08c7.07-.54 11.22-3.04 12.45-7.48.56-2.07.46-4.5-.3-7.27-.79-2.63-2.07-5.39-3.86-8.28-1.8-2.95-3.97-5.8-6.51-8.55zm-3.22 13.99c-.18 2.5-1.89 3.96-5.15 4.39l-.09.03-.12-.07-.28.08c-3.25.23-6.06-.72-8.43-2.86-2.06-1.95-3.63-4.57-4.73-7.84-1.08-3.21-1.49-6.15-1.22-8.8.24-2.98 1.15-4.62 2.73-4.92l.09-.03c1.59-.24 3.85.87 6.77 3.31s5.36 5.19 7.32 8.23c2.17 3.31 3.2 6.14 3.12 8.48zm-45.51-29.45c-.67-.28-1.45-.46-2.34-.55s-1.78-.08-2.67.04c-.85.03-1.75.15-2.69.34-2.67.66-5.14 1.77-7.43 3.33-2.24 1.48-3.92 3.22-5.02 5.25-1.07 2.15-1.28 4.26-.65 6.34.69 2.26 2.44 4.43 5.26 6.51.74.53 1.62 1.08 2.64 1.66.78.45 1.64.81 2.58 1.08.72.2 1.49.35 2.31.46.95.07 1.67.04 2.16-.09 2.3-.3 4.33-1.35 6.09-3.16 1.71-1.73 3.01-3.87 3.9-6.43.93-2.64 1.26-5.18.99-7.62-.34-2.69-1.38-4.69-3.13-6-.66-.48-1.33-.86-2-1.14zm.36 7.15c.07 1.24-.15 2.59-.68 4.06-.54 1.41-1.27 2.6-2.2 3.58-.97 1.06-2.02 1.68-3.17 1.86l-1.07.09c-.4-.02-.79-.11-1.17-.28-.28-.06-.69-.21-1.22-.46-.31-.18-.71-.43-1.2-.76-1.5-1.11-2.28-2.29-2.36-3.53-.16-1.08.23-2.18 1.18-3.3.84-1.03 1.96-1.93 3.33-2.7 1.38-.77 2.75-1.32 4.12-1.63l1.04-.19.88-.04c.28.06.53.12.75.19l.56.24c.76.59 1.15 1.54 1.18 2.86z" fill="#e2d8bf"/></g><path d="m688.26 534.74v-10.79c0-39.85-15.83-78.06-44-106.23-28.17-28.18-66.39-44-106.23-44h-115.41c-39.85 0-78.06 15.83-106.23 44-28.17 28.18-44 66.39-44 106.23v10.79" fill="none" stroke="#583178" stroke-miterlimit="10" stroke-width="17.07"/><path d="m598 325.78-117.37-64.85-117.37 64.85c-24.6 13.59-39.87 39.48-39.87 67.58 0 25.62 20.77 46.39 46.39 46.39h221.71c25.62 0 46.39-20.77 46.39-46.39 0-28.11-15.27-53.99-39.87-67.58z" fill="#8154a1" stroke="#583178" stroke-miterlimit="10" stroke-width="17.07"/><path d="m432.3 154.63h6.17c.87-2.69 2.1-5.3 3.27-7.76 1.09-2.29 2.05-4.67 3.25-6.91 1.14-2.12 2.83-3.69 4.13-5.7 2.63-4.07 5.9-6.7 9.67-9.69 3.92-3.11 7.61-6.03 12.51-7.36 2.45-.66 4.35 1.9 4.24 4.04-.15 3-1.69 5.14-3.02 7.71-1.51 2.91-2.67 6.02-4.1 8.98-.37.76-2.88 5.58-3.89 9.13.94-1.55 2.03-3.03 3.13-4.43 2.96-3.78 6.44-7.2 10.24-10.11 7.49-5.73 16.63-11.15 25.6-13.92 2.44-.75 4.47.34 5.12 2.82.75 2.87-1.18 5.11-2.86 7.18-2.49 3.07-4.22 6.93-6.29 10.31-1.73 2.84-5.5 6.81-6.08 10.12-.25 1.43-.4.63.48 1.56.58.62 1.87 1.08 2.56 1.5.29.18.67.48 1.06.82.11-.76.22-1.49.39-2.11.57-2.02 1.29-3.92 2.3-5.76 1.78-3.25 4.19-6.07 6.83-8.65 2.69-2.63 5.55-4.29 8.75-6.17 2.64-1.55 5.85-4.33 9.15-2.91 6.3 2.71.71 13.18-1.02 17.12-1.17 2.67-3.68 6.89-3.66 10.19h8.09s77.46-107.42 77.46-107.42v107.42s0 198.17 0 198.17c0 23.36-18.93 42.29-42.29 42.29h-166.38c-23.36 0-42.29-18.93-42.29-42.29v-198.17s0-107.42 0-107.42l77.46 107.42z" fill="#e2d8bf" stroke="#9a8e73" stroke-linejoin="round" stroke-width="13"/><path d="m433.87 286.22h92.88l-46.44 32.54z" fill="#bd62a5"/><path d="m457.87 202.76-24 91.74 46.44 24.26 46.44-24.26-24-91.74" fill="none" stroke="#9a8e73" stroke-linecap="round" stroke-linejoin="round" stroke-width="13"/><path d="m373.87 107.52v56.57l6.08 2.18c9.91 3.56 20.98 1.16 28.53-6.18s-34.6-52.57-34.6-52.57z" fill="#bd62a5"/><path d="m586.75 107.52v56.57l-6.08 2.18c-9.91 3.56-20.98 1.16-28.53-6.18s34.6-52.57 34.6-52.57z" fill="#bd62a5"/><g stroke="#9a8e73" stroke-linejoin="round" stroke-width="13"><g fill="none" stroke-linecap="round"><path d="m573.42 334.76c-19.98 18.83-47.4 23.94-68 13.33-16.29-8.38-23.03-23.87-25.11-29.33-2.08 5.46-8.82 20.95-25.11 29.33-20.6 10.6-48.02 5.5-68-13.33"/><path d="m443.89 251.58c-3.95-4.2-13.07-12.75-27.64-17.3-15-4.68-27.7-2.61-33.33-1.33"/><path d="m516.73 251.58c3.95-4.2 13.07-12.75 27.64-17.3 15-4.68 27.7-2.61 33.33-1.33"/><path d="m440.97 262.75c-3.17-2.15-11.02-6.86-22.05-7.14-8.63-.22-15.26 2.37-18.67 4"/><path d="m519.66 262.75c3.17-2.15 11.02-6.86 22.05-7.14 8.63-.22 15.26 2.37 18.67 4"/></g><path d="m505.42 353.71c-2.68 11.7-13.1 20-25.11 20s-22.42-8.3-25.11-20l5.79-3.53 6.25-5.31 4.96-5.73 4.64-7.24 3.45-7.52 3.17 6.99 3.48 5.76 4.65 5.9 4.52 4.41 9.29 6.27z" fill="url(#c)"/></g><g stroke-miterlimit="10"><path d="m426.32 191.65c-10.13-13.7-41.83-52.89-99.56-71.11-59.02-18.63-108.5-3.75-124.44 1.78" fill="none" stroke="#fff" stroke-linecap="round" stroke-width="2.9"/><path d="m406.76 195.21c-8.88-8.41-37.16-32.96-78.22-33.78-14.22-.28-26.35 2.35-35.56 5.33" fill="none" stroke="#fff" stroke-linecap="round" stroke-width="2.9"/><path d="m534.31 191.65c10.13-13.7 41.83-52.89 99.56-71.11 59.02-18.63 108.5-3.75 124.44 1.78" fill="none" stroke="#fff" stroke-linecap="round" stroke-width="2.9"/><path d="m553.86 195.21c8.88-8.41 37.16-32.96 78.22-33.78 14.22-.28 26.35 2.35 35.56 5.33" fill="none" stroke="#fff" stroke-linecap="round" stroke-width="2.9"/><path d="m319.91 416.31s-277.61 29.94-229.61 248.6l46.35-14.43s-26.78-128.17 183.26-128.17" fill="#8154a1" stroke="#583178" stroke-width="17.07"/><path d="m641.34 416.31s277.61 29.94 229.61 248.6l-46.35-14.43s26.78-128.17-183.26-128.17" fill="#8154a1" stroke="#583178" stroke-width="17.07"/></g><path d="m130.87 778.91c-1.79 0-3.56-.61-4.97-1.73-.71-.56-1.29-1.26-1.72-2.06l-7.29-13.71-1.1 7.27c-.34 4.13-3.82 7.38-8.04 7.38-2.92 0-5.62-1.6-7.03-4.17-.01-.02-.02-.04-.04-.07-11.42-20.86-17.33-44.53-17.09-68.46l.22-22.1c0-23.06 18.81-41.87 41.94-41.87 7.15 0 14.68 2.2 22.37 6.53 8.49 4.78 16.8 14.6 23.1 22.62l.58.73c1.98 2.5 3.57 5.14 5.12 7.69 1.11 1.84 2.17 3.57 3.29 5.15l16.05 22.5c1.76 2.46 1.99 5.66.61 8.35-1.39 2.7-4.13 4.37-7.14 4.37-.66 0-1.32-.08-1.96-.24l-26.39-6.58c-.22-.06-.67-.18-1.18-.18-2.43 0-2.56 6.63-2.56 7.96v52.05c0 2.22-.93 4.36-2.54 5.87-1.5 1.41-3.46 2.18-5.52 2.18-2.1 0-4.09-.81-5.6-2.28-.54-.53-.99-1.14-1.32-1.82l-3.83-7.9s.12 4.37.12 4.43c0 4.44-3.61 8.05-8.06 8.05z" fill="#e2d8bf"/><path d="m125.74 645.91c6.76 0 13.29 2.38 19.17 5.69 8.96 5.05 18.7 17.85 21.76 21.72 3.07 3.89 5.33 8.54 8.22 12.59l16.05 22.5c.76 1.06-.05 2.45-1.25 2.45-.13 0-.26-.02-.39-.05l-26.21-6.53c-.29-.07-1.44-.42-2.93-.42-3.57 0-9.06 1.98-9.06 14.46v52.05c0 .93-.76 1.55-1.56 1.55-.37 0-.76-.14-1.07-.44l-14.19-29.29c-.31-.31-.7-.44-1.07-.44-.8 0-1.56.62-1.56 1.55l.77 27.55c0 .92-.76 1.55-1.56 1.55-.33 0-.66-.1-.95-.33l-14.71-27.65c-.29-.23-.63-.33-.95-.33-.8 0-1.56.63-1.56 1.55l-3.39 22.38c0 .97-.78 1.55-1.57 1.55-.52 0-1.03-.25-1.34-.81-10.95-19.97-16.54-42.54-16.32-65.31l.22-22.1c0-19.57 15.87-35.44 35.44-35.44m.01-13c-26.69 0-48.4 21.69-48.44 48.37l-.22 22.04c-.25 25.05 5.94 49.83 17.9 71.67 0 .02.02.03.03.05 2.56 4.65 7.44 7.54 12.73 7.54 4.17 0 7.94-1.76 10.6-4.57l.1.18c.85 1.6 2.02 3 3.44 4.11 2.56 2.01 5.75 3.12 8.99 3.12 3.69 0 7.06-1.38 9.63-3.65 2.57 2.05 5.73 3.17 9.05 3.17 8.03 0 14.56-6.53 14.56-14.55v-52.05c0-.14 0-.27 0-.4l22.05 5.49c1.16.29 2.35.43 3.53.43 5.46 0 10.41-3.03 12.92-7.9 2.5-4.86 2.09-10.65-1.09-15.1-2.73-3.84-5.47-7.67-8.21-11.51-2.61-3.66-5.23-7.33-7.84-10.99-.99-1.38-1.98-3.02-3.02-4.75-1.57-2.59-3.35-5.54-5.58-8.35l-.56-.72c-6.67-8.5-15.54-18.93-25.02-24.28-8.67-4.89-17.27-7.36-25.55-7.36z" fill="#9a8e73"/><path d="m830.39 778.91c-2.07 0-4.04-.78-5.54-2.21-1.6-1.51-2.51-3.64-2.51-5.85 0-.06.12-4.43.12-4.43l-3.83 7.9c-.33.68-.78 1.3-1.32 1.82-1.51 1.47-3.5 2.28-5.6 2.28-4.45 0-8.06-3.61-8.06-8.05v-52.05c0-1.33-.12-7.96-2.56-7.96-.51 0-.96.12-1.18.18l-26.4 6.58c-.64.16-1.3.24-1.96.24-3.02 0-5.75-1.67-7.14-4.37-1.38-2.69-1.15-5.89.6-8.35l16.05-22.5c1.13-1.58 2.18-3.32 3.29-5.15 1.55-2.55 3.14-5.19 5.12-7.7l.57-.73c6.3-8.02 14.61-17.84 23.1-22.62 7.69-4.33 15.21-6.53 22.37-6.53 23.12 0 41.94 18.81 41.94 41.94l.22 22.04c.24 23.95-5.68 47.63-17.12 68.5-.03.05-.06.1-.08.15-1.43 2.49-4.09 4.04-6.96 4.04-2.02 0-3.96-.75-5.45-2.1-1.5-1.36-2.42-3.25-2.59-5.27l-1.1-7.28-7.29 13.71c-.42.8-1.01 1.5-1.72 2.05-1.42 1.11-3.18 1.73-4.97 1.73z" fill="#e2d8bf"/><path d="m835.52 645.91c19.57 0 35.44 15.87 35.44 35.44l.22 22.1c.23 22.78-5.37 45.34-16.32 65.31-.31.56-.82.81-1.34.81-.79 0-1.57-.58-1.57-1.55l-3.39-22.38c0-.92-.76-1.55-1.56-1.55-.33 0-.66.1-.95.33l-14.71 27.65c-.29.23-.63.33-.95.33-.8 0-1.56-.63-1.56-1.55l.77-27.55c0-.93-.76-1.55-1.56-1.55-.37 0-.76.14-1.07.44l-14.19 29.29c-.31.31-.7.44-1.07.44-.8 0-1.56-.62-1.56-1.55v-52.05c0-12.48-5.48-14.46-9.06-14.46-1.49 0-2.65.34-2.93.42l-26.21 6.53c-.13.03-.27.05-.39.05-1.19 0-2-1.39-1.25-2.45 5.35-7.5 10.7-15 16.05-22.5 2.89-4.06 5.15-8.7 8.22-12.59 3.06-3.87 12.8-16.67 21.76-21.72 5.88-3.31 12.42-5.69 19.17-5.69m.01-13c-8.28 0-16.88 2.48-25.55 7.36-9.49 5.34-18.35 15.78-25.02 24.27l-.56.72c-2.23 2.82-4.01 5.76-5.58 8.35-1.05 1.73-2.04 3.37-3.02 4.75-2.63 3.69-5.26 7.38-7.89 11.06-2.72 3.81-5.44 7.62-8.16 11.43-3.18 4.46-3.59 10.24-1.09 15.1 2.51 4.87 7.46 7.9 12.92 7.9 1.19 0 2.38-.15 3.53-.43l22.06-5.49v.4 52.05c0 8.02 6.53 14.55 14.56 14.55 3.32 0 6.48-1.12 9.05-3.17 2.57 2.27 5.94 3.65 9.63 3.65 3.24 0 6.43-1.11 8.99-3.12 1.42-1.12 2.59-2.52 3.44-4.11l.1-.18c2.66 2.81 6.43 4.57 10.59 4.57 5.29 0 10.16-2.88 12.72-7.52 0 0 0-.01.01-.02 11.98-21.86 18.17-46.65 17.93-71.71l-.22-22.04c-.04-26.68-21.75-48.37-48.44-48.37z" fill="#9a8e73"/></svg>