<svg viewBox="0 0 1000 1000" xmlns="http://www.w3.org/2000/svg" xmlns:xlink="http://www.w3.org/1999/xlink"><clipPath id="a"><path d="m0-1128h1000v1000h-1000z"/></clipPath><radialGradient id="b" cx="500" cy="500" gradientUnits="userSpaceOnUse" r="487.92"><stop offset="0" stop-color="#edc500"/><stop offset=".29" stop-color="#eac100"/><stop offset=".53" stop-color="#e0b700"/><stop offset=".74" stop-color="#d1a600"/><stop offset=".94" stop-color="#bb8e00"/><stop offset="1" stop-color="#b48700"/></radialGradient><radialGradient id="c" cx="500" cy="500" gradientUnits="userSpaceOnUse" r="465.78"><stop offset="0" stop-color="#eac540"/><stop offset="1" stop-color="#edc500" stop-opacity="0"/></radialGradient><linearGradient id="d" gradientUnits="userSpaceOnUse" x1="501.84" x2="501.84" y1="779.18" y2="690.56"><stop offset="0" stop-color="#52000a"/><stop offset=".04" stop-color="#5a0715"/><stop offset=".2" stop-color="#782241"/><stop offset=".36" stop-color="#903965"/><stop offset=".52" stop-color="#a44b81"/><stop offset=".68" stop-color="#b25795"/><stop offset=".84" stop-color="#ba5fa1"/><stop offset="1" stop-color="#bd62a5"/></linearGradient><clipPath id="e"><path d="m501.84 779.18c-45.19 0-84.58-20.83-96.32-50.18 6.19 1.3 12.51 1.99 18.91 1.99 1.69 0 3.4-.05 5.1-.14 38.12-2.15 62.58-27.78 72.32-40.29 9.74 12.5 34.2 38.14 72.32 40.29 8.12.46 16.18-.21 24.01-1.85-11.74 29.36-51.13 50.19-96.32 50.19z"/></clipPath><g clip-path="url(#a)"><path d="m860.08-748.79c8.81-19.14 19.83-30.23 23.11-46.19-10.83-7.1-22.35-13.16-34.53-17.61-21.62-7.89-44.41-11.7-66.58-17.62-2.24 16.63-3.44 36.23-4.66 57.42-6.53 112.97 20.26 131.38 8 186.67-19.2 86.61-114.67 175.47-194.67 157.33-26.06-5.91-46.25-22.22-61.07-39.31 1.9-6.5 4.03-13 6.42-19.5h-21.14c-3.83-5.8-7.01-11.24-9.54-15.86-3.66 5.34-7.2 10.63-10.61 15.86h-312.97s-131.93 313.22 18.03 502.01h513.96s-140.57-132.92-183.96-300.25c67.53 20.64 161.97 7.89 220.87-33.63 79.79-56.24 135.31-172.59 120-269.33-8.09-51.16-36.96-102.89-10.67-160z" fill="#8154a1" stroke="#583178" stroke-miterlimit="10" stroke-width="16.42"/></g><path d="m500 24.47 184.15 272.27 315.85 91-202.04 259.28 11.06 328.51-309.02-112.03-309.02 112.03 11.06-328.51-202.04-259.28 315.85-91z" fill="url(#b)"/><g fill="#f9e075"><path d="m315.85 296.74 184.15 253.46v-525.73z"/><path d="m500 550.2-297.96 96.82-202.04-259.28z"/><path d="m500 550.2-309.02 425.33 309.02-112.03z"/><path d="m500 550.2 309.02 425.33-11.06-328.51z"/><path d="m500 550.2 184.15-253.46 315.85 91z"/></g><path d="m34.22 34.22h931.56v931.56h-931.56z" fill="url(#c)"/><path d="m353.26 845.44c-59.42 0-107.6-48.17-107.6-107.6v-563.03c0-24.51 31.4-34.65 45.74-14.77l125.81 174.47c.05-.07.09-.12.13-.17 7.64-11.78 16.8-19.06 24.16-24.92 8.33-6.62 18.68-14.86 33.94-19 3.28-.89 6.66-1.34 10.04-1.34 10.23 0 19.83 4.02 27.16 11.34 5.88-2.74 12.08-5.21 18.51-7.2 4.05-1.25 8.2-1.89 12.34-1.89 12.53 0 23.73 5.7 31.04 15.09h.79c5.67 0 11.19 1.14 16.4 3.38 2.25.97 4.39 2.12 6.4 3.43l110.46-153.18c14.34-19.88 45.74-9.74 45.74 14.77v563.03c0 59.42-48.17 107.6-107.6 107.6h-293.48z" fill="#f9e075"/><path d="m415.31 388.28h10.89c1.54-4.75 3.7-9.35 5.77-13.69 1.93-4.05 3.61-8.24 5.74-12.19 2.01-3.74 5-6.52 7.28-10.05 4.64-7.17 10.41-11.82 17.05-17.1 6.91-5.49 13.42-10.64 22.06-12.99 4.31-1.17 7.67 3.36 7.48 7.13-.27 5.29-2.99 9.06-5.34 13.6-2.66 5.14-4.7 10.62-7.23 15.84-.65 1.34-5.09 9.84-6.86 16.11 1.66-2.73 3.58-5.34 5.51-7.81 5.22-6.66 11.35-12.69 18.07-17.83 13.21-10.11 29.33-19.66 45.16-24.56 4.3-1.33 7.89.6 9.04 4.97 1.33 5.06-2.08 9.02-5.05 12.67-4.4 5.42-7.45 12.22-11.1 18.19-3.06 5-9.71 12.02-10.73 17.85-.44 2.53-.7 1.11.85 2.75 1.02 1.09 3.3 1.9 4.51 2.64.51.31 1.17.85 1.88 1.44.2-1.33.38-2.64.69-3.72 1-3.56 2.28-6.92 4.07-10.16 3.15-5.73 7.39-10.7 12.04-15.26 4.74-4.64 9.79-7.58 15.44-10.89 4.66-2.73 10.32-7.64 16.15-5.13 11.12 4.79 1.25 23.25-1.8 30.2-2.07 4.71-6.48 12.16-6.46 17.98h14.27s136.64-189.49 136.64-189.49v189.49s0 349.56 0 349.56c0 41.2-33.4 74.6-74.6 74.6h-293.48c-41.2 0-74.6-33.4-74.6-74.6v-349.56s0-189.49 0-189.49l136.64 189.49z" fill="#e2d8bf" stroke="#9a8e73" stroke-linejoin="round" stroke-width="19.5"/><path d="m429.99 620.92h143.69l-73.68 60.42z" fill="#bd62a5"/><path d="m471.53 467.39-41.54 153.53 70.01 60.42 73.68-60.42-45.21-153.53" fill="none" stroke="#9a8e73" stroke-linecap="round" stroke-linejoin="round" stroke-width="15.85"/><path d="m308.98 297.55v101.68l5.2 2.24c20.8 8.95 44.98 3.65 60.13-13.18s-65.33-90.73-65.33-90.73z" fill="#bd62a5"/><path d="m691.02 297.55v101.68l-5.2 2.24c-20.8 8.95-44.98 3.65-60.13-13.18s65.33-90.73 65.33-90.73z" fill="#bd62a5"/><g stroke="#9a8e73" stroke-linejoin="round"><path d="m323.3 530.13c12.08-1.35 39.69-2.74 69.71 11.62 22.16 10.6 36.22 25.27 43.61 34.27" fill="none" stroke-linecap="round" stroke-width="15.85"/><path d="m676.7 530.13c-12.08-1.35-39.69-2.74-69.71 11.62-22.16 10.6-36.22 25.27-43.61 34.27" fill="none" stroke-linecap="round" stroke-width="15.85"/><path d="m352.65 568.56c7.37-2.25 21.81-5.55 39.5-2.32 21.85 3.99 36.09 15.64 41.83 20.91" fill="none" stroke-linecap="round" stroke-width="15.85"/><path d="m651.02 568.56c-7.37-2.25-21.81-5.55-39.5-2.32-21.85 3.99-36.09 15.64-41.83 20.91" fill="none" stroke-linecap="round" stroke-width="15.85"/></g><path d="m667.25 662.49c-2.71-1.19-5.88.03-7.08 2.74-15.41 34.85-49.72 56.91-85.42 54.91-42.34-2.38-65.84-37.65-68.39-41.66-.98-1.55-2.69-2.5-4.53-2.5s-3.55.94-4.53 2.5c-2.54 4.01-26.05 39.28-68.39 41.66-35.69 1.99-70.01-20.06-85.42-54.91-1.2-2.71-4.36-3.93-7.08-2.74-2.71 1.2-3.93 4.37-2.74 7.08 11.88 26.87 33.93 46.93 59.65 56.02 0 .5.04 1.01.18 1.51 10.43 36.39 55.99 62.81 108.32 62.81s97.89-26.42 108.32-62.81c.15-.51.19-1.01.18-1.52 25.72-9.1 47.76-29.15 59.65-56.02 1.2-2.71-.03-5.88-2.74-7.08z" fill="#9a8e73"/><path d="m501.84 779.18c-45.19 0-84.58-20.83-96.32-50.18 6.19 1.3 12.51 1.99 18.91 1.99 1.69 0 3.4-.05 5.1-.14 38.12-2.15 62.58-27.78 72.32-40.29 9.74 12.5 34.2 38.14 72.32 40.29 8.12.46 16.18-.21 24.01-1.85-11.74 29.36-51.13 50.19-96.32 50.19z" fill="url(#d)"/><g clip-path="url(#e)"><path d="m562.87 777.01c-4.49-7.28-12.55-10.49-19.86-14.15-3.1-1.55-5.61-3.79-9.09-4.51-4.31-.88-8.82-.27-13.04.77-2.12.52-4.34 1.1-6.33 2.03-1.63.76-3.56 2.72-5.22 2.77-1.61.04-3.66-1.66-5.07-2.38-2.61-1.33-5.24-2.54-8.03-3.46-7.71-2.54-18.06-1.8-25.85.25-8.4 2.22-14.42 6.46-21.62 10.98-4.83 3.03-12.12 8.95-7.6 15.29 3.77 5.29 13.1 4.01 18.72 4 10.89-.03 22.17-.85 32.99.37 6.02.68 12.01.87 18.07.94 5.34.07 10.4-1.32 15.69-1.4 5.88-.09 11.87-.15 17.74.16 4.04.22 8.03.77 11.9-.76.21-.08.4-.19.59-.28 4.48.16 9.19-5.43 5.99-10.62z" fill="#bd62a5"/></g><path d="m420.41 469.88c-8.75-18.6-33.15-63.88-85.98-95.27-70.32-41.79-140.8-29.15-158.01-25.56" fill="none" stroke="#fff" stroke-linecap="round" stroke-miterlimit="10" stroke-width="3.22"/><path d="m414.73 487.44c-16.49-12.27-59.36-40.69-120.75-43.45-15.18-.68-29.47.29-42.78 2.4" fill="none" stroke="#fff" stroke-linecap="round" stroke-miterlimit="10" stroke-width="3.22"/><path d="m579.59 469.88c8.75-18.6 33.15-63.88 85.98-95.27 70.32-41.79 140.8-29.15 158.01-25.56" fill="none" stroke="#fff" stroke-linecap="round" stroke-miterlimit="10" stroke-width="3.22"/><path d="m585.27 487.44c16.49-12.27 59.36-40.69 120.75-43.45 15.18-.68 29.47.29 42.78 2.4" fill="none" stroke="#fff" stroke-linecap="round" stroke-miterlimit="10" stroke-width="3.22"/></svg>