<svg id="Layer_1" height="512" viewBox="0 0 91 91" width="512" xmlns="http://www.w3.org/2000/svg" data-name="Layer 1"><g fill="rgb(0,0,0)"><path d="m42.62 79.22-5.22 5.22v-13.39a1.75 1.75 0 0 0 -3.5 0v13.39l-5.22-5.22a1.75 1.75 0 0 0 -2.48 2.48l8.21 8.21a1.78 1.78 0 0 0 1.24.51 1.8 1.8 0 0 0 1.24-.51l8.21-8.21a1.75 1.75 0 0 0 -2.48-2.48z"/><path d="m63.26 69.81a1.76 1.76 0 0 0 -2.48 0l-8.21 8.19a1.75 1.75 0 0 0 2.48 2.47l5.22-5.22v13.4a1.75 1.75 0 0 0 3.5 0v-13.38l5.23 5.22a1.74 1.74 0 0 0 2.48 0 1.75 1.75 0 0 0 0-2.47z"/><path d="m75.42 26a28.8 28.8 0 0 0 -8.57-19 22.42 22.42 0 0 0 -16.24-6.43c-8.9.23-17 6-21 14.89a15.73 15.73 0 0 0 -6.48-1.24c-9.84.26-17.66 9.5-17.43 20.6a21.19 21.19 0 0 0 6.3 14.9 16.7 16.7 0 0 0 11.53 4.77h.47a1.75 1.75 0 0 0 -.05-3.5h-.05a13.17 13.17 0 0 1 -9.44-3.79 17.7 17.7 0 0 1 -5.26-12.45c-.19-9.18 6.1-16.82 14-17a11.28 11.28 0 0 1 9.8 4.77 1.91 1.91 0 0 0 1.54.92 1.75 1.75 0 0 0 1.53-2.59 12.17 12.17 0 0 0 -3.38-3.78c3.46-7.75 10.37-12.8 18-13a19.26 19.26 0 0 1 13.75 5.48 25.24 25.24 0 0 1 7.45 16.27 13.35 13.35 0 0 0 -4.31.95 1.75 1.75 0 0 0 .64 3.38 1.87 1.87 0 0 0 .65-.12 9.11 9.11 0 0 1 4.77-.75c4.75.48 8.41 5 8.52 10.52.12 6-4 11-9.13 11.14a1.75 1.75 0 0 0 0 3.5h.05c7.08-.19 12.7-6.79 12.54-14.71-.1-6.73-4.4-12.38-10.2-13.73z"/><path d="m42.46 57.88a1.93 1.93 0 0 0 1.8-.1l11.52-7.78a1.75 1.75 0 0 0 0-2.9l-11.52-7.84a1.76 1.76 0 0 0 -2.74 1.45v15.62a1.7 1.7 0 0 0 .94 1.55zm2.54-13.88 6.66 4.51-6.66 4.49z"/><path d="m34.43 64.1h26.88a6 6 0 0 0 6-6v-19.1a6 6 0 0 0 -6-6h-26.88a6 6 0 0 0 -6 6v19.09a6 6 0 0 0 6 6.01zm-2.51-25.1a2.52 2.52 0 0 1 2.51-2.51h26.88a2.51 2.51 0 0 1 2.51 2.51v19.09a2.51 2.51 0 0 1 -2.51 2.51h-26.88a2.52 2.52 0 0 1 -2.51-2.51z"/></g></svg>