<svg xmlns="http://www.w3.org/2000/svg" style="fill:#000" width="512" height="512" viewBox="0 0 64 64"><g><path d="m60 11h-28c-.389 0-.778.033-1.164.1-.915-5.752-5.899-10.1-11.836-10.1-5.958 0-10.902 4.263-11.837 10.05-3.467.415-6.163 3.374-6.163 6.95 0 3.859 3.14 7 7 7h16v35c0 1.654 1.346 3 3 3h33c1.654 0 3-1.346 3-3v-46c0-1.654-1.346-3-3-3zm-57 7c0-2.756 2.242-4.999 4.991-4.999h.002l.966.056.087-.964c.467-5.184 4.746-9.093 9.954-9.093 5.286 0 9.665 4.137 9.969 9.418l.077 1.337 1.26-.453c.556-.2 1.126-.302 1.694-.302 2.757 0 5 2.243 5 5s-2.243 5-5 5h-3.059c-.388-3.489-2.779-6.374-5.992-7.494 1.254-1.1 2.051-2.71 2.051-4.506 0-3.309-2.691-6-6-6s-6 2.691-6 6c0 1.796.797 3.406 2.051 4.506-3.213 1.12-5.604 4.005-5.992 7.494h-1.059c-2.757 0-5-2.243-5-5zm16-3c-2.206 0-4-1.794-4-4s1.794-4 4-4 4 1.794 4 4-1.794 4-4 4zm1 2c.591 0 1.162.082 1.71.22-.473 1.052-1.52 1.78-2.71 1.78s-2.237-.728-2.71-1.78c.548-.138 1.119-.22 1.71-.22zm-5.552.979c.777 1.782 2.542 3.021 4.552 3.021s3.775-1.239 4.552-3.021c1.786 1.058 3.06 2.883 3.368 5.021h-15.84c.308-2.138 1.582-3.963 3.368-5.021zm11.552 42.021v-35h6c3.86 0 7-3.141 7-7 0-1.958-.81-3.728-2.111-5h6.111v48h-16c-.551 0-1-.448-1-1zm35 0c0 .552-.449 1-1 1h-15v-48h15c.551 0 1 .448 1 1z"/><path d="m53 15c-3.309 0-6 2.691-6 6s2.691 6 6 6 6-2.691 6-6-2.691-6-6-6zm0 10c-2.206 0-4-1.794-4-4 0-1.859 1.28-3.411 3-3.858v5.858h2v-5.858c1.72.447 3 1.999 3 3.858 0 2.206-1.794 4-4 4z"/><path d="m47 35h12v-6h-12zm2-4h8v2h-8z"/><path d="m47 43h12v-6h-12zm2-4h8v2h-8z"/><path d="m47 51h12v-6h-12zm2-4h8v2h-8z"/><path d="m53 53c-1.654 0-3 1.346-3 3s1.346 3 3 3 3-1.346 3-3-1.346-3-3-3zm0 4c-.551 0-1-.448-1-1s.449-1 1-1 1 .448 1 1-.449 1-1 1z"/><path d="m28 45h2v2h-2z"/><path d="m28 57h2v2h-2z"/><path d="m28 49h2v2h-2z"/><path d="m28 53h2v2h-2z"/></g></svg>