<svg xmlns="http://www.w3.org/2000/svg" xmlns:xlink="http://www.w3.org/1999/xlink" viewBox="0 0 958.22 531.55"><linearGradient id="a" gradientUnits="userSpaceOnUse" x1="479.11" x2="479.11" y1="531.55" y2="0"><stop offset=".5" stop-color="#151720" /><stop offset=".8" stop-color="#0f1218" /><stop offset="1" stop-color="#090d10" /></linearGradient><clipPath id="b"><path d="m0 0h958.22v531.55h-958.22z" /></clipPath><radialGradient id="c" cx="663.15" cy="404.85" gradientTransform="matrix(1 0 0 .63 0 142.9)" gradientUnits="userSpaceOnUse" r="465.81"><stop offset="0" stop-color="#fff" /><stop offset="1" stop-color="#fff" stop-opacity="0" /></radialGradient><radialGradient id="d" cx="355.73" cy="463.14" gradientUnits="userSpaceOnUse" r="35.97"><stop offset=".19" /><stop offset=".36" stop-color="#010102" /><stop offset=".49" stop-color="#04060c" /><stop offset=".6" stop-color="#090e1b" /><stop offset=".7" stop-color="#111a31" /><stop offset=".79" stop-color="#1c294d" /><stop offset=".88" stop-color="#283c70" /><stop offset=".96" stop-color="#375199" /><stop offset="1" stop-color="#3f5daf" /></radialGradient><clipPath id="e"><circle cx="355.73" cy="463.14" r="35.97" /></clipPath><filter id="f" filterUnits="userSpaceOnUse"><feOffset dx="0" dy="0" /><feGaussianBlur result="blur" stdDeviation="26.86" /><feFlood flood-color="#a09aed" flood-opacity=".75" /><feComposite in2="blur" operator="in" /><feComposite in="SourceGraphic" /></filter><image height="15626" transform="translate(-2366.65 -2376.37)" width="2816" xlink:href="../../Screenshot 2026-06-15 at 13-13-20 Owncast - Free and Open Source Livestreaming.png" /><path d="m0 0h958.22v531.55h-958.22z" fill="url(#a)" /><g clip-path="url(#b)"><ellipse cx="663.15" cy="399.01" fill="url(#c)" rx="465.81" ry="294.68" /><path d="m262.21 162.93h1005.37c6.83 0 12.37 5.54 12.37 12.37v77.85h-1030.11v-77.85c0-6.83 5.54-12.37 12.37-12.37z" fill="#2b3545" /><text fill="#e3e9f0" font-family="Inter-SemiBold, Inter" font-size="34.13" font-weight="600" transform="translate(286.95 220.03)"><tspan x="0" y="0">Follow KnittingFreak87’s Cool Stream</tspan></text><path d="m251.05 253.15h1027.68v313.54h-1027.68z" fill="#e3e9f0" stroke="#2b3545" stroke-miterlimit="10" stroke-width="2.16" /><text font-family="Inter-Medium, Inter" font-size="26.29" font-weight="500" transform="translate(286.94 317.29)"><tspan fill="#5c6269"><tspan x="0" y="0">By following this stream you’ll get notified on the Fediverse when it goes live.</tspan></tspan><tspan fill="#5c6269" x="0" y="43.26">Now is a great time to</tspan><tspan fill="#6344e7" x="265.39" y="43.26">learn about the Fediverse</tspan><tspan fill="#5c6269" x="568.83" xml:space="preserve" y="43.26"> if it’s new to you.</tspan></text><path d="m286.95 403.19h954.39v125.11h-954.39z" fill="#d8e1ea" /><path d="m286.95 403.19h954.39v125.11h-954.39z" fill="none" stroke="#b3c7e5" stroke-dasharray="0 4.33" stroke-miterlimit="10" stroke-width="2.16" /><text fill="#5c6269" font-family="Inter-SemiBold, Inter" font-size="22.82" font-weight="600" transform="translate(415.58 452.32)"><tspan x="0" y="0">KnittingFreak87’s Cool Stream</tspan></text><text fill="#5c6269" font-family="Inter-Medium, Inter" font-size="22.82" font-weight="500" transform="translate(415.58 491.14)"><tspan x="0" y="0">knittingfreak87@owncast.streaming</tspan></text><circle cx="355.73" cy="463.14" fill="url(#d)" r="35.97" /><g clip-path="url(#e)"><path d="m356.51 430.73v7.65l9.26-4.2c1.17-.53 1.92-1.7 1.92-2.98v-5.54zm-2.1 7.64-9.26-4.2c-1.17-.53-1.92-1.7-1.92-2.98v-5.54l11.18 5.07z" fill="#f7a81a" /><path d="m356.51 441.1v7.65l9.26-4.2c1.17-.53 1.92-1.7 1.92-2.98v-5.54zm-2.1 7.65-9.26-4.2c-1.17-.53-1.92-1.7-1.92-2.98v-5.54l11.18 5.07z" fill="#df9718" /><path d="m356.51 451.48v7.65l9.26-4.2c1.17-.53 1.92-1.7 1.92-2.98v-5.54zm-2.1 7.64-9.26-4.2c-1.17-.53-1.92-1.7-1.92-2.98v-5.54l11.18 5.07z" fill="#c78716" /><path d="m356.51 461.85v7.65l9.26-4.2c1.17-.53 1.92-1.7 1.92-2.98v-5.54zm-2.1 7.65-9.26-4.2c-1.17-.53-1.92-1.7-1.92-2.98v-5.54l11.18 5.07z" fill="#af7614" /><path d="m356.51 472.23v7.65l9.26-4.2c1.17-.53 1.92-1.7 1.92-2.98v-5.54zm-2.1 7.64-9.26-4.2c-1.17-.53-1.92-1.7-1.92-2.98v-5.54l11.18 5.07z" fill="#966512" /><path d="m356.51 482.6v7.65l9.26-4.2c1.17-.53 1.92-1.7 1.92-2.98v-5.54zm-2.1 7.65-9.26-4.2c-1.17-.53-1.92-1.7-1.92-2.98v-5.54l11.18 5.07z" fill="#7e5510" /><path d="m356.51 492.98v7.65l9.26-4.2c1.17-.53 1.92-1.7 1.92-2.98v-5.54zm-2.1 7.64-9.26-4.2c-1.17-.53-1.92-1.7-1.92-2.98v-5.54l11.18 5.07z" fill="#66440e" /><path d="m383.47 430.73v7.65l9.26-4.2c1.17-.53 1.92-1.7 1.92-2.98v-5.54zm-2.11 7.64-9.26-4.2c-1.17-.53-1.92-1.7-1.92-2.98v-5.54l11.18 5.07z" fill="#f7a81a" /><path d="m383.47 441.1v7.65l9.26-4.2c1.17-.53 1.92-1.7 1.92-2.98v-5.54zm-2.11 7.65-9.26-4.2c-1.17-.53-1.92-1.7-1.92-2.98v-5.54l11.18 5.07z" fill="#df9718" /><path d="m383.47 451.48v7.65l9.26-4.2c1.17-.53 1.92-1.7 1.92-2.98v-5.54zm-2.11 7.64-9.26-4.2c-1.17-.53-1.92-1.7-1.92-2.98v-5.54l11.18 5.07z" fill="#c78716" /><path d="m383.47 461.85v7.65l9.26-4.2c1.17-.53 1.92-1.7 1.92-2.98v-5.54zm-2.11 7.65-9.26-4.2c-1.17-.53-1.92-1.7-1.92-2.98v-5.54l11.18 5.07z" fill="#af7614" /><path d="m383.47 472.23v7.65l9.26-4.2c1.17-.53 1.92-1.7 1.92-2.98v-5.54zm-2.11 7.64-9.26-4.2c-1.17-.53-1.92-1.7-1.92-2.98v-5.54l11.18 5.07z" fill="#966512" /><path d="m383.47 482.6v7.65l9.26-4.2c1.17-.53 1.92-1.7 1.92-2.98v-5.54zm-2.11 7.65-9.26-4.2c-1.17-.53-1.92-1.7-1.92-2.98v-5.54l11.18 5.07z" fill="#7e5510" /><path d="m383.47 492.98v7.65l9.26-4.2c1.17-.53 1.92-1.7 1.92-2.98v-5.54zm-2.11 7.64-9.26-4.2c-1.17-.53-1.92-1.7-1.92-2.98v-5.54l11.18 5.07z" fill="#66440e" /><path d="m329.55 430.73v7.65l9.26-4.2c1.17-.53 1.92-1.7 1.92-2.98v-5.54zm-2.1 7.64-9.26-4.2c-1.17-.53-1.92-1.7-1.92-2.98v-5.54l11.18 5.07z" fill="#f7a81a" /><path d="m329.55 441.1v7.65l9.26-4.2c1.17-.53 1.92-1.7 1.92-2.98v-5.54zm-2.1 7.65-9.26-4.2c-1.17-.53-1.92-1.7-1.92-2.98v-5.54l11.18 5.07z" fill="#df9718" /><path d="m329.55 451.48v7.65l9.26-4.2c1.17-.53 1.92-1.7 1.92-2.98v-5.54zm-2.1 7.64-9.26-4.2c-1.17-.53-1.92-1.7-1.92-2.98v-5.54l11.18 5.07z" fill="#c78716" /><path d="m329.55 461.85v7.65l9.26-4.2c1.17-.53 1.92-1.7 1.92-2.98v-5.54zm-2.1 7.65-9.26-4.2c-1.17-.53-1.92-1.7-1.92-2.98v-5.54l11.18 5.07z" fill="#af7614" /><path d="m329.55 472.23v7.65l9.26-4.2c1.17-.53 1.92-1.7 1.92-2.98v-5.54zm-2.1 7.64-9.26-4.2c-1.17-.53-1.92-1.7-1.92-2.98v-5.54l11.18 5.07z" fill="#966512" /><path d="m329.55 482.6v7.65l9.26-4.2c1.17-.53 1.92-1.7 1.92-2.98v-5.54zm-2.1 7.65-9.26-4.2c-1.17-.53-1.92-1.7-1.92-2.98v-5.54l11.18 5.07z" fill="#7e5510" /><path d="m329.55 492.98v7.65l9.26-4.2c1.17-.53 1.92-1.7 1.92-2.98v-5.54zm-2.1 7.64-9.26-4.2c-1.17-.53-1.92-1.7-1.92-2.98v-5.54l11.18 5.07z" fill="#66440e" /></g></g><path d="m217.71 124.63c0 83.03-6.5 89.52-89.52 89.52h-.44c-83.03 0-89.52-6.5-89.52-89.52v-.44c0-83.03 6.5-89.52 89.52-89.52h.44c83.03 0 89.52 6.5 89.52 89.52z" fill="#221a4c" filter="url(#f)" stroke="#6f47f4" stroke-miterlimit="10" stroke-width="4" /><path d="m138.14 179.42c-12.35 3.8-23.1 6.34-32.24 7.59-9.14 1.26-16.39 1.34-21.75.24s-8.53-3.25-9.52-6.47c-.5-1.61-.42-3.68.24-6.22.65-2.54 2.06-5.94 4.23-10.22 2.06-4.08 3.35-7.77 3.87-11.09.52-3.31.58-6.46.2-9.44s-.89-5.94-1.51-8.91c-.76-3.54-1.36-7.24-1.8-11.13-.44-3.88-.12-8.32.97-13.33 1.24-5.67 3.63-10.56 7.16-14.68s7.73-7.44 12.6-9.97l.55 1.8c-2.06-.55-3.88-1.55-5.47-2.99s-2.74-3.3-3.44-5.58c-1.19-3.85-.84-7.45 1.05-10.77 1.89-3.33 4.74-5.58 8.55-6.75 3.82-1.18 7.44-.92 10.87.77s5.74 4.46 6.93 8.32c.7 2.28.81 4.46.32 6.54s-1.44 3.93-2.87 5.56l-.55-1.8c5.45-.66 10.8-.27 16.03 1.15s9.96 4.13 14.18 8.11c3.75 3.52 6.52 7.01 8.33 10.47 1.8 3.46 3.39 6.87 4.75 10.22 1.15 2.8 2.4 5.54 3.76 8.22s3.19 5.24 5.5 7.68 5.45 4.78 9.41 7c4.23 2.3 7.32 4.32 9.27 6.06s3.17 3.41 3.67 5.02c.99 3.22-.42 6.79-4.23 10.71s-9.84 7.93-18.09 12.03-18.56 8.05-30.95 11.87z" fill="#0f0c2b" /><path d="m127.96 247.11v84.38c0 26.47 11.91 51.54 32.43 68.27 15.71 12.8 35.36 19.79 55.63 19.79h25.01" fill="none" stroke="#6f47f4" stroke-miterlimit="10" stroke-width="4" /><path d="m127.96 258.16c-6.09 0-11.05-4.96-11.05-11.05s4.96-11.05 11.05-11.05 11.05 4.96 11.05 11.05-4.96 11.05-11.05 11.05z" fill="#6f47f4" /><path d="m127.96 238.79c4.59 0 8.32 3.72 8.32 8.32s-3.72 8.32-8.32 8.32-8.32-3.72-8.32-8.32 3.72-8.32 8.32-8.32m-0-5.46c-7.6 0-13.78 6.18-13.78 13.78s6.18 13.78 13.78 13.78 13.78-6.18 13.78-13.78-6.18-13.78-13.78-13.78z" fill="#14161f" /><g fill="#9582f4"><path d="m80.53 176.58-.83-.3c2.92-2.37 6.56-4.77 10.94-7.18s9-4.7 13.87-6.85 9.54-4.08 14.02-5.76c4.48-1.69 8.25-3 11.32-3.95 3.07-.94 6.93-1.98 11.58-3.11s9.6-2.17 14.84-3.12c5.24-.96 10.34-1.67 15.32-2.14s9.34-.54 13.09-.22l-.52.71c-.59-.72-1.54-1.5-2.84-2.35-1.31-.85-3.25-2-5.83-3.46-4.72-2.68-8.38-5.36-10.98-8.02s-4.6-5.35-5.99-8.08-2.64-5.48-3.74-8.25c-1.25-3.14-2.74-6.33-4.45-9.57-1.72-3.24-4.42-6.59-8.1-10.04-4.05-3.83-8.83-6.27-14.33-7.3s-11.38-.58-17.63 1.34c-6.25 1.93-11.35 4.86-15.3 8.8s-6.54 8.64-7.77 14.1c-1.1 4.93-1.44 9.21-1.02 12.85s.98 7.11 1.67 10.43c.65 2.91 1.16 5.89 1.52 8.94.36 3.04.23 6.39-.41 10.05s-2.15 7.93-4.54 12.8c-1.31 2.66-2.27 4.71-2.87 6.14-.6 1.44-.95 2.62-1.03 3.54zm27.7-94.29c2.36-.73 4.08-2.02 5.16-3.89s1.27-3.95.57-6.23c-.73-2.36-2.1-4.08-4.11-5.16s-4.18-1.26-6.5-.55c-2.32.72-4.01 2.09-5.07 4.11-1.06 2.03-1.22 4.22-.49 6.58.7 2.28 2.03 3.89 3.98 4.83s4.1 1.04 6.46.32z" /><path d="m136.59 174.37c2.36-.73 4.3-2.01 5.82-3.85s2.51-3.99 2.96-6.45c.45-2.45.29-4.96-.5-7.5-.09-.3-.82-.38-2.17-.25s-3.02.4-5.01.81-3.97.92-5.95 1.53c-1.95.6-3.86 1.29-5.75 2.08s-3.43 1.51-4.62 2.16-1.74 1.13-1.65 1.43c.78 2.54 2.06 4.7 3.84 6.47 1.77 1.77 3.8 2.99 6.08 3.66s4.59.64 6.95-.08z" /></g></svg>