<svg enable-background="new 0 0 958.7 510.2" viewBox="0 0 958.7 510.2" xmlns="http://www.w3.org/2000/svg" xmlns:xlink="http://www.w3.org/1999/xlink"><linearGradient id="a" gradientTransform="matrix(1 0 0 -1 0 512)" gradientUnits="userSpaceOnUse" x1="479.325" x2="479.325" y1="1.78" y2="512"><stop offset=".5" stop-color="#151720"/><stop offset=".8" stop-color="#0f1218"/><stop offset="1" stop-color="#090d10"/></linearGradient><clipPath id="b"><path d="m0 0h958.7v510.2h-958.7z"/></clipPath><path d="m0 0h958.7v510.2h-958.7z" fill="url(#a)"/><g clip-path="url(#b)"><path d="m677.3 255.6c0 184.3-14.4 198.7-198.7 198.7h-1c-184.3 0-198.7-14.4-198.7-198.7v-1c0-184.3 14.4-198.7 198.7-198.7h1c184.3 0 198.7 14.4 198.7 198.7z" fill="#5c2e92" stroke="#9d00bf" stroke-miterlimit="10" stroke-width="12.15"/><path d="m451.2 220.3c-1.1 8.7-1.2 16.4-.2 23.2 1.2-.6 2.6-1.5 4-2.6 1.8-1.5 3.8-3.5 6-5.9 4.7-5.3 8.8-11.3 12.4-18.1.6-1.8 1.4-3.5 2.1-5.2.9-1.9 1.8-3.6 2.7-5.2 3-7.6 4.6-14.6 4.5-20.7 0-2.6-.4-4.9-.9-6.9-.5-.1-1-.3-1.6-.4-.9-.2-1.8-.3-2.5-.3s-1.5.1-2.3.1c-.5 0-1.2.1-2.3.4-5.9 1.6-10.9 6.8-14.9 15.6-3.5 7.5-5.7 16.1-7 26zm-64.4 38c1.2.5 2.3.9 3.4 1.2.1-1.2.3-2.5.7-3.8.3-.9.6-1.8 1-2.5.5-.9.9-1.5 1.4-2s1-.9 1.7-1.3c.8-.3 1.4-.5 2-.6 1.3-.2 2.6-.1 4.2.3-.1-.1-.1-.3-.2-.4-2-3.9-4.6-7.8-7.8-11.8-.7-.5-1.4-1-2-1.5-4.6-3.1-8.4-4.5-11.4-3.9-.6.1-1.2.3-2 .6-.7.4-1.2.8-1.7 1.3s-1 1.1-1.4 2c-.4.7-.7 1.6-1 2.5-1.3 4.4-.8 8.8 1.7 13.2.1.2.2.4.4.6 3.4 2.6 7.1 4.6 11 6.1zm59.9 10.6 16.5 16.5c.3-.2.6-.5.9-.8 3.4-2.8 8-5.4 13.6-7.7 6.5-2.7 14-5 22.5-6.8 3-.6 6.1-1.1 9.2-1.6 3.9-4.2 7.7-8.9 11.4-13.9 5.5-7.5 10.5-15.4 14.8-23.8 5.1-9.9 9-19.5 11.7-29 1.2-4.2 2-8.3 2.7-12.3.9-5.9 1.3-11.5 1.1-16.6-.4-10.1-3-18.6-7.6-25.4-1.3-1.9-2.7-3.6-4.3-5.2s-17.2-17.3-17.2-17.3c1.6 1.6 3 3.3 4.3 5.2 4.6 6.8 7.2 15.2 7.6 25.4.2 5.2-.2 10.7-1.1 16.6-.6 3.9-1.5 8.1-2.7 12.3-2.7 9.5-6.6 19.2-11.7 29-4.3 8.4-9.3 16.3-14.8 23.8-5.3 7.2-10.7 13.6-16.4 19-5.3 5.1-10.3 9.1-15.1 12s-9.4 4.5-13.4 4.9c-.9.1-1.6.1-2.1.1l-3.7-.6c-.6-.2-1.1-.4-1.7-.7-1.6-.6-3.1-1.7-4.5-3.1zm-38.2 28.3c8.5 3.5 15.8 4.9 22.1 4.8 1.2 0 2.5-.1 4-.4s2.6-.7 3.5-1.1 1.8-1.1 2.7-1.8 1.5-1.6 2-2.5c2.2-4.3 1.7-11-1.8-20-3.5-8.8-9-17.7-16.2-26.9-3.3-4.2-6.7-8-10.1-11.5s-17.3-17.3-17.3-17.3c3.4 3.4 6.8 7.3 10.1 11.5 7.2 9.2 12.7 18.1 16.2 26.9 3.6 9 4 15.7 1.8 20-.5.9-1.1 1.8-2 2.5s-1.7 1.4-2.7 1.8-2.1.9-3.5 1.1-2.7.4-4 .4c-6.3.1-13.7-1.3-22.1-4.8s-15.9-8-22.5-13.5c-1.8-1.5-3.5-3.1-5.1-4.7l17.3 17.3c1.6 1.6 3.3 3.1 5.1 4.7 6.6 5.6 14.1 10.1 22.5 13.5zm93.1 19.5c4.3 1.3 8.4 2.1 12.3 2.5 3.3-1 7-1.9 11-2.4 3.8-.5 7.4-.8 10.9-.8.4-.3.8-.6 1.2-.9.5-.4 1-.9 1.4-1.4 1.5-1.8 2.6-3.9 3.2-6.3.5-1.9.6-3.7.4-5.4-2.4-1-5-1.7-7.8-2.2-3.8-.7-8.2-1.1-13-1.1-4.3 0-8.9.2-13.7.9-4.2.5-8.1 1.5-11.6 2.5s-6.2 2.2-8.2 3.5-3 2.7-3.2 4.1c.9.5 1.7.9 2.6 1.4 4.7 2.2 9.5 4.1 14.5 5.6zm-111.1.3c-.4.3-.8.6-1.1.9.5-.3 1-.7 1.5-1.1l.3-.3c-.2.1-.5.3-.7.5zm145 46.2c9.9 3.3 19.6 5.4 29.2 6.3 6.2.6 12 .7 17.3.3 5.8-.5 11.2-1.8 16.2-3.7 5.4-2 9.9-5 13.7-8.6 4.2-4.1 7.4-8.9 9.4-14.7 2.9-7.9 3.1-15.1.4-21.6-1.4-3.4-3.4-6.5-6.2-9.2s-17.3-17.3-17.3-17.3c2.8 2.8 4.8 5.9 6.2 9.2 2.6 6.5 2.5 13.7-.4 21.6-2.1 5.7-5.2 10.6-9.4 14.7-3.8 3.6-8.3 6.5-13.7 8.6-5 1.9-10.4 3.2-16.2 3.7-5.3.5-11.1.3-17.3-.3-9.6-.9-19.3-3-29.2-6.3-9.2-3.1-17.6-6.8-25.2-11.1-7-4-12.6-8.1-16.8-12.2l17.3 17.3c4.1 4.1 9.7 8.2 16.8 12.2 7.6 4.3 16 8 25.2 11.1zm-93.1-1.7.1.1h.1c3.1.4 5.5 0 7.1-1.3.9-.7 1.5-1.7 1.9-2.9 1.1-3.3.6-7.7-1.1-13.2-1.1-3.5-2.6-7-4.5-10.3-2.1.1-3.9 2.1-5.3 5.9-1.4 3.7-2 8-1.7 13 .2 3.1.7 5.9 1.5 8.4.5.1 1 .2 1.4.3zm-35.9-3.1c1.3.5 2.4.7 3.1.7 2.8.4 5.5 0 8.2-1.2-1.2-3.7-2-7.7-2.4-12-.4-4.2-.3-8.4.3-12.5s1.5-7.9 3-11.1c.4-1 .9-2 1.4-2.8l-8.7-8.7c.4.4.8.8 1.1 1.3 2 2.5 2.7 5.8 2.1 9.7-.5 3.6-2 7-4.4 10.4s-4.9 5.8-8 7.6-6.5 2.6-9.9 2.1c-.8 0-1.8-.2-3.1-.7-1.1-.4-2.2-1-3.1-1.5-1.2-.7-2.3-1.6-3.2-2.5l17.3 17.3c.9.9 2 1.8 3.2 2.5 1 .4 2 1 3.1 1.4zm69.3 53.4c10.2 2 17.1.1 20.6-5.8 1.6-2.7 2.5-6.2 2.4-10.4 0-4-.9-8.5-2.3-13.2s-3.4-9.8-5.9-14.7c-2.6-5-5.4-9.5-8.6-13.5-1.7-2.1-3.4-4-5.1-5.7s-17.3-17.3-17.3-17.3c1.7 1.7 3.4 3.6 5.1 5.7 3.2 4 6 8.6 8.6 13.5 2.5 4.9 4.5 9.8 5.9 14.7 1.4 4.8 2.2 9.2 2.3 13.2 0 4.2-.8 7.7-2.4 10.4-3.5 5.8-10.3 7.8-20.6 5.8h-.5l-.9-.3h-.3c-7.4-1.8-13.6-5.1-18.4-9.9l17.3 17.3c4.8 4.8 11 8.1 18.4 9.9h.3l.9.3z" fill="#9d00bf"/><path d="m592.9 292.4c-2.4-6-7.1-11.1-14.1-15.2-6.5-3.8-14.3-6.5-23.5-8.2-8.4-1.5-17.5-2.2-27.3-2s-18.7 1.3-27.6 3.1-16.1 4-22.5 6.8-11.4 5.6-14.9 8.9-5.4 6.9-5.6 10.4c-.2 4.2 1.9 8.8 6.5 13.7 4.2 4.5 10.1 8.9 17.8 13.2s16 8 25.2 11.1c9.9 3.3 19.6 5.4 29.2 6.3 6.2.6 12 .7 17.3.3 5.8-.5 11.2-1.8 16.2-3.7 5.4-2 9.9-5 13.7-8.6 4.2-4.1 7.3-8.9 9.4-14.7 2.7-7.7 2.8-14.9.2-21.4zm-51.3 15c-.6 2.5-1.7 4.6-3.2 6.3-1.4 1.6-3.3 2.8-5.6 3.8-2 .8-4.4 1.5-7.2 1.8s-5.5.3-8.2.1c-4.8-.3-10.1-1.2-15.8-2.8-5-1.5-9.8-3.4-14.4-5.6-4.2-2.1-7.8-4.2-10.4-6.5s-3.9-4.4-3.8-6.2c.2-1.5 1.2-3 3.2-4.4s4.7-2.5 8.2-3.5 7.3-2 11.6-2.5c4.8-.6 9.4-.9 13.7-.9 4.8 0 9.1.4 13 1.1 4.2.8 7.8 2 11 3.7s5.6 3.7 7 6.2c1.5 2.8 1.8 5.9.9 9.4zm-115.7-69.5c3 12.3 7.7 19.8 13.8 22.7.6.3 1.1.5 1.7.7l3.7.6c.5 0 1.2 0 2.1-.1 4-.4 8.4-2 13.4-4.9s9.8-6.9 15.1-12c5.6-5.4 11.1-11.8 16.4-19s10.5-15.4 14.8-23.8c5.1-9.9 9-19.5 11.7-29 1.2-4.2 2-8.3 2.7-12.3.9-5.9 1.3-11.5 1.1-16.6-.4-10.1-3-18.6-7.6-25.4-5-7.4-12.3-12.4-22-15.2-2.2-.6-4.5-1.1-6.9-1.4-2.2-.3-4.4-.3-6.6-.1-2.1 0-4.1.2-6.2.7-1.8.4-3.8 1-5.9 1.8-7 2.7-13.2 7.6-18.9 14.4-5.2 6.2-9.7 13.9-13.5 23.1-2.2 5.2-4.1 10.8-5.7 16.7-.7 2.4-1.3 4.9-1.9 7.4h.1c-.1.5-.2 1.1-.4 1.6-1.9 8.7-3.2 17.6-3.8 26.6-.6 8.2-.7 16-.1 23.5s1.4 14 2.9 20zm49.6-25.2c-4 8.4-8.9 15.9-14.5 22.3-5.3 6-9.7 9.2-13.2 9.6l-.7.1-1.3-.1-.7-.3c-2.6-1.2-4.5-5.2-5.5-12s-1-14.7.1-23.5c1.2-9.9 3.5-18.5 6.9-25.9 4-8.8 9-14 14.9-15.6 1-.3 1.8-.4 2.3-.4.8-.1 1.5-.1 2.3-.1s1.6.1 2.5.3 1.7.4 2.4.7c7.6 2.6 11.5 8.7 11.7 18.2.1 7.6-2.3 16.5-7.2 26.7zm-63.4 34.5c-3.5-8.8-9-17.7-16.2-26.9-6.7-8.5-13.6-15.4-20.7-20.7-.8-.6-1.7-1.2-2.8-2-8.8-5.9-16.3-8.1-22.4-6.6-1.5.4-2.9 1.1-4.2 2s-2.5 2-3.5 3.4c-1.1 1.5-2.1 3.1-2.8 4.9-.9 2.1-1.4 4.4-1.8 6.6-1.8 9.2-.9 18.1 3.2 26.8 1.4 3 3.1 5.9 5.2 8.6 3 4 6.7 7.9 11.1 11.6 6.7 5.6 14.2 10.1 22.5 13.5s15.8 4.9 22.1 4.8c1.2 0 2.5-.1 4-.4s2.6-.7 3.5-1.1 1.8-1.1 2.7-1.8 1.5-1.6 2-2.5c2.1-4.5 1.6-11.2-1.9-20.2zm-9.2 11.4c-.2.4-.4.7-.7.9-.3.4-.6.6-1 .7-.2.2-.6.3-1.1.4l-1.5.3c-3 .2-6.9-.6-11.7-2.5s-9.1-4.4-13.2-7.5c-4.4-3.3-7.7-6.9-9.9-10.7-2.5-4.4-3-8.8-1.7-13.2.3-.9.6-1.8 1-2.5.5-.9.9-1.5 1.4-2s1-.9 1.7-1.3c.8-.3 1.4-.5 2-.6 3-.5 6.8.8 11.4 3.9 4.1 2.8 8.3 6.6 12.4 11.6 3.8 4.5 6.8 8.9 9 13.2s2.8 7.6 1.9 9.3zm58.8 80.2c-2.6-5-5.4-9.5-8.6-13.5-3.4-4.2-6.8-7.6-10.1-10.1-3.6-2.6-6.9-4.1-9.9-4.4h-.6c-2.9-.1-5.6.9-8 3-2.3 2-4.2 4.8-5.8 8.5-1.4 3.3-2.4 7-3 11.1s-.6 8.3-.3 12.5c.8 8.9 3.4 16.5 7.9 22.7 5.2 7.2 12.6 11.8 22 14.1h.3l.9.3h.4c10.2 2 17.1.1 20.6-5.8 1.6-2.7 2.5-6.2 2.4-10.4s-.9-8.5-2.3-13.2-3.4-9.9-5.9-14.8zm-10 18.6c-1.2 3.5-4.2 4.9-9 4.2h-.1l-.1-.1h-.4c-4.7-.9-8.4-3.4-10.9-7.3-2.2-3.5-3.4-7.9-3.7-13s.3-9.3 1.7-13c1.5-4.1 3.4-6.1 5.8-5.9h.1c2.4.3 5.1 2.7 8.3 7.3s5.6 9.5 7.2 14.5c1.7 5.6 2.2 10 1.1 13.3zm-53.2-59.5c-.9-.7-1.9-1.2-3.1-1.7s-2.5-.8-3.8-1c-1.2-.3-2.5-.5-4-.6-4-.2-8 .5-11.8 1.8s-6.9 3-9.2 5.5-3.5 5.5-3.4 8.7c.1 3.5 1.7 7.3 4.9 11.3.8 1 1.9 2.2 3.1 3.4.9.9 2 1.8 3.2 2.5.9.6 2 1.1 3.1 1.5 1.3.5 2.4.7 3.1.7 3.4.5 6.7-.2 9.9-2.1s5.8-4.3 8-7.6 3.8-6.9 4.4-10.4c.6-3.9-.1-7.2-2.1-9.7-.6-.8-1.4-1.6-2.3-2.3zm-2.2 10.3c-.4 1.8-1.2 3.6-2.5 5.5s-2.8 3.2-4.5 4.2c-1.8 1.1-3.5 1.6-5.2 1.4l-1.5-.3c-.6-.2-1.1-.5-1.5-.9-.4-.2-.9-.6-1.5-1.1-.4-.4-.9-.9-1.4-1.5-1.7-2.1-2.4-4.1-2-5.9.2-1.6 1.2-3 3-4.2 1.6-1.1 3.5-2 5.8-2.5s4.4-.8 6.5-.7l1.5.1 1.3.3c.4.2.7.4 1 .6l.7.6c.6 1 .7 2.5.3 4.4z" fill="#ebe4f1"/><path d="m189.7 66.3h-120.8c-8.6 0-15.6 7-15.6 15.6v59.5c0 8.6 7 15.6 15.6 15.6h87.1l26.1 26.1v-26.1h7.6c8.6 0 15.6-7 15.6-15.6v-59.4c0-8.7-7-15.6-15.6-15.7z" fill="#221a4c" stroke="#6f47f4" stroke-miterlimit="10" stroke-width="4"/><circle cx="89.1" cy="111.6" fill="#9582f4" r="9"/><circle cx="129.3" cy="111.6" fill="#9582f4" r="9"/><circle cx="169.5" cy="111.6" fill="#9582f4" r="9"/><g fill="#221a4c"><path d="m771.9 341.3h118.5v92.4h-118.5z" stroke="#6f47f4" stroke-miterlimit="10" stroke-width="4"/><ellipse cx="831.2" cy="341.3" rx="59.2" ry="13.2" stroke="#6f47f4" stroke-miterlimit="10" stroke-width="4"/><ellipse cx="831.2" cy="433.7" rx="59.2" ry="13.2" stroke="#6f47f4" stroke-miterlimit="10" stroke-width="4"/><ellipse cx="831.2" cy="387.5" rx="59.2" ry="13.2" stroke="#6f47f4" stroke-miterlimit="10" stroke-width="4"/><path d="m881.9 160.1 13.1 8.8-21.2 21.1-8.8-13.1-22 9.1 3.1 15.4h-30l3.1-15.4-22-9.1-8.8 13.1-21.2-21.2 13.1-8.8-9.1-22-15.4 3.1v-29.9l15.4 3.1 9.1-22-13.1-8.8 21.2-21.2 8.8 13.1 22-9.1-3.1-15.4h30l-3.1 15.4 22 9.1 8.8-13.1 21.2 21.2-13.1 8.8 9.1 22 15.4-3.1v29.9l-15.4-3.1zm-28.9-55.8c-12.1-12.1-31.6-12.1-43.7 0s-12.1 31.6 0 43.7 31.6 12.1 43.7 0 12.1-31.6 0-43.7z" stroke="#6f47f4" stroke-miterlimit="10" stroke-width="4"/><path d="m154.6 453.7c-.5 0-1-.2-1.4-.6-.2-.2-.4-.4-.7-.6-.6-.5-1.2-1.1-1.8-1.9-3.6-5-7.1-10.2-10.5-15-1-1.4-2.1-2.2-3.7-2.6-4.6-1.1-8.7-3.1-12.2-6.1-.5-.5-1.1-.6-1.9-.6-.3 0-.6 0-.9.1l-1.2.2c-2.7.4-5.4.8-8.2.8-.3 0-.5 0-.8 0-7.7 0-14-2-19.2-6.3-3.3-2.7-5.7-6.2-7-10.4-.3-1 .2-2 1.1-2.4l.8-.4c.5-.2.9-.4 1.4-.6 3.9-1.9 8.4-4.4 11.3-8.7 2.3-3.4 2.7-6.8 1.3-10.3-.1-.3-.4-.8-.8-.8-.1 0-.2 0-.4.1-.3.1-.7.3-.3 1.3.9 2.2.9 4.4.1 6.5-1.3 3.5-4 5.7-5.9 7.1-5.3 3.7-11.6 6.4-19.3 8.1-1 .2-2.1.4-3.1.4-3.6 0-6.9-1.5-9.5-4.2-2.3-2.4-4.2-4.7-5.7-7-6.3-9.5-4.7-22.5 3.7-29.5.4-.3.8-.5 1.3-.5h.3c.6.1 1.1.4 1.4.9.1.2.3.4.4.7 2.6 6.1 7.6 9.7 15.9 11.4h.3c.2 0 .6 0 .7-.6 0-.2.1-.6-1-.9-.4-.1-.8-.2-1.2-.3-.8-.2-1.6-.4-2.4-.6-8-2.6-12.2-8.4-11.6-16.3.4-6 2.8-11.8 7.4-17.5 4.9-6.1 11.7-9.6 18.8-9.6 5.8 0 11.1 2.4 15.4 6.9.2.2.5.4.7.4s.4-.1.5-.3c.2-.2.6-.5-.2-1.3-2.9-3.1-6.4-5.2-10.4-6.3-1.1-.3-2.2-.5-3.4-.8-.6-.1-1.3-.3-2-.4-.8-.2-1.4-.9-1.6-1.7s.3-1.6 1-2c12.4-6.6 24.9-9.8 38.2-9.8 4.9 0 9.9.5 15 1.4.7.1 1.3.6 1.5 1.3s.1 1.4-.4 2c-.2.3-.4.5-.6.7-.3.3-.5.5-.7.8-.7 1-1.4 1.9-2.1 2.8-1.6 2.1-3.2 4.1-4.4 6.3-4.4 7.7-4.4 15.7 0 24.4.2.4.5.8.8.8.1 0 .2 0 .4-.1.3-.1.6-.3.2-1.4-.1-.3-.2-.5-.4-.8-.2-.4-.4-.9-.6-1.3-2.4-5.9-2.7-11.7-.8-17.2s5.3-10.2 11.2-15.4c.7-.6 1.6-.8 2.3-.8.5 0 1 .1 1.4.2 8.8 3 17 7.5 24.3 13.6 1 .8 1.6 2.5 1.3 3.8-.9 4.4-3 7.9-6.2 10.4-2 1.6-4.3 2.8-6.5 3.9l-.9.5c-.5.3-1.1.7-1 1.2.2.5.3.5.6.5.2 0 .4 0 .6-.1 6.5-2 11-6 13.8-12.3.2-.4.4-.9.6-1.4l.4-.9c.2-.6.8-1.1 1.4-1.2h.4c.5 0 1 .2 1.4.5.7.7 1.4 1.3 2.1 2 1.5 1.4 2.9 2.8 4.4 4.2 5.5 5.6 11.8 12.2 15.7 20.6 4.6 9.7 3.8 18.6-2.2 26.4-1.3 1.6-1.4 2.7-.7 4.7 4.4 12.2.9 22.3-10 29.4-2.8 1.8-5.6 3.3-8.5 4.4-3.1 1.2-6.2 2.2-9.4 3.3-.9.3-1.8.6-2.7.9v1.4 7.1c.1 2.7-1 4.6-3.2 5.6-.3.1-.6.2-.9.2zm-12.9-58.8c2.3 0 4.6.3 6.8 1 6.6 2 11.3 6.6 14.9 14.6.2.6.5 1.1.7 1.7s.4 1.2.7 1.8c.1.3.4.5.6.5.1 0 .2 0 .3-.1.6-.3.6-.5.5-1-.1-.6-.4-1.3-.6-1.9v-.1c-2.2-6-6-10.9-11.5-14.9-.8-.5-1-1.5-.7-2.4l.7-1.8c2-4.8 2.8-8.6 2.5-12.4-.4-4.9-2.8-8.5-7.3-11.1-.3-.2-.6-.3-.9-.3-.2 0-.6.1-.8.4-.1.2-.1.3-.1.4.1.2.4.6 1.1 1 3.1 1.6 5.1 4.1 5.8 7.4 1.4 6.1-.7 11.5-2.6 15.6-.3.7-1.1 1.1-1.8 1.1-.2 0-.4 0-.6-.1-2.4-.7-4.8-1-7.3-1-1.7 0-3.5.2-5.3.5-4.2.8-8.2 2.3-11.8 4.5-.8.5-.6.8-.4 1.1.2.4.4.4.6.4s.4-.1.7-.2.6-.3.8-.4c.3-.1.5-.3.8-.4 5.1-2.7 9.7-3.9 14.2-3.9zm41.8-17.6h-.1c-3.7.8-7.6 1.6-11.4 2.6-.3.1-.4.2-.4.3-.1.2-.1.4-.1.7.1.3.4.5.7.5h.2l.9-.2c3.4-.7 6.9-1.5 10.3-2.4.1-.1.4-.4.6-.6-.1-.3-.2-.5-.3-.6-.2-.3-.3-.3-.4-.3zm-74.3-11.5c.2 0 .4 0 .6.1.5.2 1 .5 1.2 1l.8 1.5c2.3 4.8 7 7.7 12.3 7.7.8 0 1.6-.1 2.4-.2 1.2-.2 1.2-.7 1.1-1 0-.2-.1-.6-.9-.6-.2 0-.3 0-.5 0-.7.1-1.5.2-2.2.2-5.5 0-9.8-3.2-11.6-8.7-.5-1.5.2-3.2.5-3.8.5-1.1 1.1-2.1 1.6-3.1.7-1.3 1.4-2.6 2-3.9 0 0 .1-.1 0-.3s-.2-.3-.4-.4c-.1 0-.2-.1-.3-.1-.4 0-.6.3-.7.5-.1.1-.2.4-.2.6-.1.2-.2.5-.2.7-1.4 3.6-3.8 6.5-7 8.3-2.6 1.5-5.3 2.3-8.1 2.3-2.1 0-4.3-.4-6.4-1.3-.2-.1-.5-.1-.7-.1s-.4 0-.5.4c-.1.2-.3.6.6 1.1.7.4 1.4.6 2 .8 2.2.5 4 .7 5.7.7 3 0 5.6-.7 8-2.1.2-.2.6-.3.9-.3z"/></g><path d="m128.4 323.3c4.8 0 9.7.4 14.6 1.3-.6.7-1.1 1.1-1.4 1.6-2.2 3.1-4.8 6-6.6 9.3-4.9 8.7-4.4 17.5 0 26.2.6 1.2 1.6 1.9 2.6 1.9.4 0 .8-.1 1.3-.3 1.5-.8 1.9-2.2 1.1-4-.3-.7-.6-1.4-.9-2.1-2.1-5.2-2.6-10.4-.8-15.8 2-5.9 6-10.5 10.6-14.6.2-.2.6-.2.9-.2s.6 0 .8.1c8.7 2.9 16.6 7.4 23.6 13.3.4.4.7 1.3.6 1.9-.8 3.7-2.5 6.9-5.4 9.3-2.1 1.7-4.7 2.9-7.1 4.2-1.6.8-2.4 2.1-1.9 3.6.4 1.2 1.3 1.8 2.4 1.8.4 0 .8-.1 1.2-.2 7.1-2.1 12.1-6.6 15-13.4.3-.7.6-1.5.9-2.4 2.2 2.1 4.4 4.1 6.4 6.1 6 6 11.7 12.3 15.4 20 4 8.5 3.9 16.8-2 24.4-1.7 2.2-2 4-1 6.6 4.1 11.3.9 20.5-9.2 27-2.6 1.7-5.3 3.1-8.2 4.2-4.3 1.7-8.8 3-13.4 4.6 0 3.2-.1 6.6 0 10 .1 1.8-.5 3-2.1 3.8h-11.1c-.8-.8-1.6-1.5-2.3-2.3-3.5-5-7-10-10.5-15-1.2-1.8-2.8-2.9-4.9-3.4-4.2-1-8.1-2.9-11.4-5.7-1-.8-2-1.1-3.2-1.1-.4 0-.8 0-1.2.1-3 .4-6.1.9-9.1 1-.2 0-.5 0-.7 0-6.6 0-12.7-1.6-17.9-5.8-3.1-2.5-5.2-5.6-6.4-9.5.9-.4 1.6-.7 2.2-1 4.7-2.3 9.1-5 12.1-9.4 2.6-3.8 3.2-7.9 1.4-12.2-.6-1.4-1.5-2-2.6-2-.4 0-.8.1-1.2.2-1.5.6-2.1 2-1.4 3.9.7 1.7.7 3.4.1 5.1-1 2.7-3 4.5-5.2 6.1-5.6 4-12 6.3-18.6 7.8-.9.2-1.8.3-2.6.3-3 0-5.8-1.2-8-3.6-2-2.1-3.9-4.3-5.5-6.7-5.7-8.7-4.2-20.5 3.3-26.8.1.1.2.3.3.4 3.3 7.7 9.7 11 17.4 12.5.2 0 .5.1.7.1 1.4 0 2.4-.9 2.6-2.3.3-1.5-.7-2.7-2.4-3.2-1.2-.3-2.4-.5-3.5-.9-7.1-2.3-10.7-7.3-10.2-14.2.4-6.2 3.2-11.6 7-16.4 4.5-5.6 10.8-8.9 17.3-8.9 4.9 0 9.9 1.9 14 6.2.7.7 1.4 1 2.1 1s1.3-.3 1.9-.8c1.2-1.2 1.2-2.8-.1-4.2-3.1-3.3-6.9-5.6-11.3-6.9-1.7-.5-3.4-.8-5.5-1.2 11.8-6.2 24.1-9.4 37-9.4m-28.9 41.5c-1.9 0-3.8-.4-5.7-1.1-.5-.2-1-.3-1.4-.3-1 0-1.8.5-2.3 1.5-.7 1.4-.2 2.9 1.4 3.8.8.4 1.7.8 2.6 1 2.1.4 4.1.7 6.1.7 3.1 0 6.1-.7 9.1-2.4.3.6.5 1 .7 1.5 2.7 5.5 8.1 8.9 14.1 8.9.9 0 1.8-.1 2.7-.2 2-.3 3-1.6 2.7-3.3-.2-1.4-1.3-2.3-2.9-2.3-.2 0-.5 0-.8.1-.6.1-1.3.1-1.9.1-4.6 0-8.2-2.6-9.7-7.3-.2-.7.1-1.6.4-2.3 1.2-2.4 2.6-4.6 3.7-7 .6-1.4-.2-2.9-1.6-3.4-.3-.1-.7-.2-1-.2-1 0-2 .6-2.5 1.6-.2.5-.3 1-.5 1.5-1.2 3.1-3.2 5.6-6.1 7.3-2.3 1.1-4.7 1.8-7.1 1.8m50.5 27.6c-2.6-.8-5.2-1.1-7.8-1.1-1.9 0-3.8.2-5.7.6-4.4.9-8.6 2.4-12.4 4.7-1.5.9-1.9 2.4-1.2 3.7.5 1 1.4 1.5 2.4 1.5.5 0 1-.1 1.5-.4.6-.3 1.1-.6 1.7-.9 4.3-2.2 8.7-3.6 13.2-3.6 2 0 4.1.3 6.2.9 6.9 2.1 10.8 7.2 13.6 13.5.5 1.2.9 2.4 1.4 3.5.5 1 1.4 1.6 2.4 1.6.4 0 .7-.1 1.1-.2 1.4-.6 2-1.8 1.6-3.3-.2-.8-.5-1.5-.8-2.3-2.4-6.5-6.5-11.7-12.2-15.8.3-.7.5-1.2.7-1.8 1.8-4.3 3-8.7 2.6-13.3-.4-5.7-3.4-9.9-8.3-12.7-.6-.4-1.3-.5-1.9-.5-1.1 0-2.1.6-2.5 1.5-.8 1.5-.1 3 1.9 4 2.5 1.3 4.2 3.3 4.8 6.1 1.3 5-.1 9.7-2.3 14.3m22.1-9c.2 0 .4 0 .6-.1 3.8-.8 7.6-1.6 11.3-2.6 1-.3 1.7-1.5 2.1-1.9 0-2.1-1.2-3.5-2.7-3.5-.2 0-.4 0-.5.1-3.9.8-7.7 1.7-11.5 2.6-1.6.4-2.3 1.9-1.9 3.4.3 1.2 1.4 2 2.6 2m-43.7-64.1c-13.6 0-26.4 3.3-39.1 10-1.5.8-2.3 2.4-2.1 4.1.1.5.2 1 .5 1.4-6.8.7-13.2 4.4-18 10.3-4.8 6.1-7.4 12.1-7.8 18.6-.1 1.4-.1 2.7.1 4-.1 0-.2 0-.3-.1-.2 0-.4 0-.6 0-.9 0-1.8.3-2.6.9-9.1 7.6-11 21.7-4.1 32.1 1.6 2.4 3.5 4.8 5.9 7.3 3 3.1 6.8 4.8 10.9 4.8 1.2 0 2.3-.1 3.5-.4 2.9-.7 5.7-1.5 8.3-2.4 0 .4.1.8.2 1.3 1.4 4.6 4 8.4 7.7 11.4 5.6 4.5 12.3 6.7 20.5 6.7h.8c2.9 0 5.7-.5 8.4-.9l1.2-.2h.6c.4 0 .5.1.6.2 3.7 3.2 8.1 5.4 13.1 6.5 1.1.2 1.8.8 2.5 1.8 3.3 4.8 6.9 9.9 10.5 15 .7.9 1.4 1.6 2.1 2.2.2.2.4.4.6.6.8.8 1.8 1.2 2.8 1.2h11.1c.6 0 1.2-.1 1.8-.4 1.7-.8 4.5-2.9 4.4-7.5-.1-2.3-.1-4.7 0-7 .5-.1.9-.3 1.4-.5 3.1-1 6.4-2.1 9.5-3.3 3-1.2 6-2.7 8.9-4.6 11.6-7.5 15.5-18.8 10.8-31.8-.5-1.4-.4-1.7.4-2.8 6.5-8.4 7.3-18.2 2.5-28.5-4.1-8.7-10.5-15.5-16.1-21.2-1.4-1.4-2.9-2.8-4.4-4.2-.7-.6-1.4-1.3-2.1-2-.8-.7-1.8-1.1-2.8-1.1-.3 0-.6 0-.9.1-.1 0-.1 0-.2.1-.2-1.5-.9-3-2-3.9-7.5-6.3-15.9-11-24.9-14-.6-.2-1.3-.3-2-.3-1.1 0-2.1.3-3 .8 0-.1 0-.1-.1-.2-.5-1.4-1.7-2.4-3.1-2.6-5.3-1-10.4-1.5-15.4-1.5z" fill="#6f47f4"/><path d="m126.2 178.7v51.6c0 13.7 11.1 24.8 24.8 24.8h107.2" fill="none" stroke="#6f47f4" stroke-miterlimit="10" stroke-width="4"/><path d="m126.2 193.7c-6.1 0-11.1-5-11.1-11.1s5-11.1 11.1-11.1 11.1 5 11.1 11.1-5 11.1-11.1 11.1z" fill="#6f47f4"/><path d="m126.2 174.4c4.6 0 8.3 3.7 8.3 8.3s-3.7 8.3-8.3 8.3-8.3-3.7-8.3-8.3 3.7-8.3 8.3-8.3m0-5.5c-7.6 0-13.8 6.2-13.8 13.8s6.2 13.8 13.8 13.8 13.8-6.2 13.8-13.8-6.2-13.8-13.8-13.8z" fill="#14161f"/><path d="m208.9 468.7c-6.1 0-11.1-5-11.1-11s5-11 11.1-11 11.1 5 11.1 11-5 11-11.1 11z" fill="#6f47f4"/><path d="m208.9 449.3c4.6 0 8.3 3.7 8.3 8.3s-3.7 8.3-8.3 8.3-8.3-3.7-8.3-8.3 3.7-8.3 8.3-8.3m0-5.4c-7.6 0-13.8 6.2-13.8 13.8s6.2 13.8 13.8 13.8 13.8-6.2 13.8-13.8-6.2-13.8-13.8-13.8z" fill="#14161f"/><path d="m208.9 458.7h2.9c12.8 0 23.2-10.4 23.2-23.2v-49.5c0-12.8 10.4-23.2 23.2-23.2" fill="none" stroke="#6f47f4" stroke-miterlimit="10" stroke-width="4"/><path d="m749.8 468.7c-6.1 0-11-5-11-11s5-11 11-11 11 5 11 11-4.9 11-11 11z" fill="#6f47f4"/><path d="m749.8 449.3c4.6 0 8.3 3.7 8.3 8.3s-3.7 8.3-8.3 8.3-8.3-3.7-8.3-8.3 3.7-8.3 8.3-8.3m0-5.4c-7.6 0-13.8 6.2-13.8 13.8s6.2 13.8 13.8 13.8 13.8-6.2 13.8-13.8-6.2-13.8-13.8-13.8z" fill="#14161f"/><path d="m749.8 458.7h-2.9c-12.8 0-23.2-10.4-23.2-23.2v-49.5c0-12.8-10.4-23.2-23.2-23.2" fill="none" stroke="#6f47f4" stroke-miterlimit="10" stroke-width="4"/><path d="m700.7 258.9h63c8.8 0 15.8-7.1 15.8-15.9v-19" fill="none" stroke="#6f47f4" stroke-miterlimit="10" stroke-width="4"/><path d="m779.5 235.1c-6.1 0-11-5-11-11.1s5-11.1 11-11.1 11 5 11 11.1-4.9 11.1-11 11.1z" fill="#6f47f4"/><path d="m779.5 215.7c4.6 0 8.3 3.7 8.3 8.3s-3.7 8.3-8.3 8.3-8.3-3.7-8.3-8.3 3.7-8.3 8.3-8.3m0-5.4c-7.6 0-13.8 6.2-13.8 13.8s6.2 13.8 13.8 13.8 13.8-6.2 13.8-13.8-6.1-13.8-13.8-13.8z" fill="#14161f"/></g></svg>