<svg viewBox="0 0 958.65 510.22" xmlns="http://www.w3.org/2000/svg" xmlns:xlink="http://www.w3.org/1999/xlink"><linearGradient id="a" gradientUnits="userSpaceOnUse" x1="479.33" x2="479.33" y1="510.22" y2="0"><stop offset=".5" stop-color="#151720"/><stop offset=".8" stop-color="#0f1218"/><stop offset="1" stop-color="#090d10"/></linearGradient><clipPath id="b"><path d="m0 0h958.65v510.22h-958.65z"/></clipPath><filter id="c" filterUnits="userSpaceOnUse"><feOffset dx="0" dy="0"/><feGaussianBlur result="blur" stdDeviation="59.62"/><feFlood flood-color="#e59aef" flood-opacity=".75"/><feComposite in2="blur" operator="in"/><feComposite in="SourceGraphic"/></filter><image height="15626" transform="translate(-2366.65 -3441.25)" width="2816" xlink:href="../../Screenshot 2026-06-15 at 13-13-20 Owncast - Free and Open Source Livestreaming.png"/><path d="m0 0h958.65v510.22h-958.65z" fill="url(#a)"/><g clip-path="url(#b)"><path d="m677.29 255.62c0 184.32-14.42 198.74-198.74 198.74h-.99c-184.32 0-198.74-14.42-198.74-198.74v-.99c0-184.32 14.42-198.74 198.74-198.74h.99c184.32 0 198.74 14.42 198.74 198.74z" fill="#5c2e92" filter="url(#c)" stroke="#9d00bf" stroke-miterlimit="10" stroke-width="12.15"/><path d="m451.24 220.27c-1.11 8.69-1.17 16.42-.19 23.2 1.25-.62 2.57-1.5 3.98-2.65 1.84-1.51 3.82-3.47 5.94-5.89 4.67-5.3 8.8-11.3 12.37-18.01.66-1.81 1.37-3.56 2.14-5.25.87-1.9 1.78-3.64 2.74-5.2 3.04-7.64 4.53-14.55 4.46-20.72-.05-2.56-.37-4.87-.96-6.93-.47-.15-1-.29-1.58-.4-.94-.19-1.79-.28-2.54-.28s-1.5.05-2.26.14c-.47 0-1.22.14-2.26.42-5.92 1.6-10.9 6.81-14.94 15.65-3.38 7.42-5.68 16.07-6.91 25.93zm-64.41 38.06c1.19.47 2.33.87 3.41 1.21.07-1.25.29-2.5.67-3.76.28-.94.61-1.79.99-2.54.47-.85.94-1.5 1.41-1.97s1.03-.89 1.69-1.27c.75-.28 1.41-.47 1.97-.56 1.25-.23 2.63-.14 4.15.27-.06-.13-.13-.27-.19-.4-2.02-3.87-4.65-7.83-7.88-11.85-.66-.5-1.33-.96-1.99-1.4-4.6-3.19-8.41-4.51-11.42-3.95-.56.09-1.22.28-1.97.56-.66.38-1.22.8-1.69 1.27s-.94 1.13-1.41 1.97c-.38.75-.7 1.6-.99 2.54-1.32 4.42-.75 8.83 1.69 13.25.12.21.24.42.36.63 3.54 2.43 7.27 4.43 11.2 6zm59.79 10.55c6.68 6.68 14.22 14.23 16.59 16.59.23-.2.46-.39.7-.59 3.47-2.84 8.08-5.48 13.84-7.94 6.48-2.72 14-4.98 22.55-6.77 3.03-.61 6.09-1.12 9.18-1.56 3.89-4.21 7.69-8.86 11.39-13.95 5.54-7.52 10.48-15.46 14.8-23.82 5.07-9.87 8.97-19.55 11.7-29.04 1.14-4.22 2.02-8.31 2.66-12.27h.02c.94-5.92 1.32-11.46 1.13-16.63-.38-10.15-2.91-18.61-7.61-25.37-1.29-1.93-2.75-3.7-4.36-5.31s-17.33-17.33-17.33-17.33c1.61 1.61 3.07 3.38 4.36 5.31 4.7 6.77 7.24 15.22 7.61 25.37.19 5.17-.19 10.71-1.13 16.63 0 0-.01 0-.02 0-.63 3.96-1.52 8.05-2.66 12.27-2.72 9.49-6.62 19.17-11.7 29.04-4.32 8.36-9.26 16.3-14.8 23.82-5.26 7.24-10.71 13.58-16.35 19.03-5.26 5.07-10.29 9.07-15.08 11.98-4.98 2.91-9.44 4.56-13.39 4.93-.94.09-1.64.14-2.11.14l-3.66-.56c-.56-.19-1.13-.42-1.69-.7-1.65-.75-3.19-1.84-4.62-3.27zm-38.09 28.35c8.46 3.48 15.83 5.07 22.13 4.79 1.22 0 2.54-.14 3.95-.42s2.58-.66 3.52-1.13 1.83-1.08 2.68-1.83 1.5-1.6 1.97-2.54c2.26-4.32 1.64-10.99-1.83-20.01-3.57-8.74-8.97-17.71-16.21-26.92-3.3-4.21-6.67-8.03-10.1-11.46s-17.33-17.33-17.33-17.33c3.43 3.43 6.8 7.25 10.1 11.46 7.24 9.21 12.64 18.18 16.21 26.92 3.48 9.02 4.09 15.69 1.83 20.01-.47.94-1.13 1.79-1.97 2.54-.85.75-1.74 1.36-2.68 1.83s-2.11.85-3.52 1.13-2.73.42-3.95.42c-6.3.28-13.67-1.32-22.13-4.79-8.36-3.48-15.88-7.99-22.55-13.53-1.83-1.54-3.55-3.1-5.13-4.69l17.32 17.32s0 0 0 0c1.59 1.59 3.3 3.15 5.13 4.69 6.67 5.54 14.19 10.05 22.55 13.53zm93.03 19.45c4.35 1.21 8.43 2.05 12.24 2.5 3.33-1.04 7.01-1.83 11.01-2.36 3.76-.44 7.38-.71 10.86-.81.43-.28.84-.58 1.22-.89.53-.43 1.02-.9 1.46-1.4 1.5-1.79 2.58-3.9 3.24-6.34.46-1.9.57-3.68.33-5.36-2.38-.93-4.99-1.68-7.81-2.26-3.85-.66-8.17-1.03-12.97-1.13-4.32 0-8.88.28-13.67.85-4.23.56-8.08 1.41-11.56 2.54-3.48 1.03-6.2 2.21-8.17 3.52-1.87 1.34-2.94 2.72-3.21 4.14.85.46 1.73.91 2.64 1.36 4.6 2.26 9.4 4.13 14.38 5.64zm-111.07.28c-.43.3-.82.61-1.16.92.52-.32 1.02-.68 1.51-1.08l.39-.33c-.25.16-.5.32-.74.48zm145.03 46.23c9.77 3.26 19.41 5.36 28.9 6.32l.27.03c6.2.56 11.98.66 17.34.28 5.83-.56 11.23-1.79 16.21-3.66 5.36-2.07 9.91-4.93 13.67-8.6 4.23-4.04 7.38-8.93 9.44-14.66 2.91-7.89 3.05-15.08.42-21.57-1.37-3.36-3.43-6.43-6.21-9.2s-17.33-17.33-17.33-17.33c2.77 2.77 4.84 5.84 6.21 9.2 2.63 6.48 2.49 13.67-.42 21.56-2.07 5.73-5.21 10.62-9.44 14.66-3.76 3.66-8.32 6.53-13.67 8.6-4.98 1.88-10.38 3.1-16.21 3.66-5.36.38-11.13.28-17.34-.28l-.27-.03c-9.5-.95-19.13-3.06-28.9-6.32-9.21-3.1-17.62-6.81-25.23-11.13-7.01-3.98-12.59-8.04-16.73-12.18l17.33 17.33s0 0 0 0c4.14 4.14 9.72 8.2 16.73 12.18 7.61 4.32 16.02 8.03 25.23 11.14zm-93.16-1.68.14.14h.14c3.11.43 5.47-.02 7.07-1.33.87-.71 1.52-1.68 1.95-2.9 1.03-3.29.66-7.71-1.13-13.25-1.12-3.55-2.62-6.98-4.52-10.3-2.15.08-3.94 2.05-5.35 5.93-1.41 3.66-1.97 7.99-1.69 12.97.17 3.08.69 5.88 1.55 8.4.46.13.93.24 1.41.34h.42zm-35.81-3.11c1.32.47 2.35.7 3.1.7 2.8.39 5.53-.03 8.2-1.24-1.24-3.68-2.05-7.68-2.41-12-.38-4.23-.28-8.41.28-12.54s1.55-7.85 2.96-11.13c.44-1.01.9-1.95 1.39-2.83s-8.76-8.76-8.76-8.76c.4.4.79.83 1.16 1.3 1.97 2.54 2.68 5.78 2.11 9.73-.56 3.57-2.02 7.05-4.37 10.43-2.26 3.29-4.93 5.83-8.03 7.61-3.19 1.88-6.48 2.58-9.87 2.11-.75 0-1.79-.23-3.1-.7-1.13-.47-2.16-.99-3.1-1.55-1.22-.75-2.3-1.6-3.24-2.54l17.32 17.32s0 .01 0 .01c.94.94 2.02 1.79 3.24 2.54.94.56 1.97 1.08 3.1 1.55zm69.21 53.42c10.24 1.97 17.1.05 20.58-5.78 1.6-2.73 2.4-6.2 2.4-10.43-.09-4.04-.85-8.46-2.26-13.25-1.41-4.89-3.38-9.77-5.92-14.66-2.54-4.98-5.4-9.49-8.6-13.53-1.69-2.11-3.38-4.02-5.07-5.71s-9.29-9.29-17.33-17.33c1.69 1.69 3.38 3.59 5.07 5.7 3.19 4.04 6.06 8.55 8.6 13.53 2.54 4.89 4.51 9.77 5.92 14.66 1.41 4.79 2.16 9.21 2.26 13.25 0 4.23-.8 7.71-2.4 10.43-3.48 5.83-10.34 7.75-20.58 5.78h-.42l-.85-.28h-.28c-7.44-1.79-13.58-5.1-18.43-9.95l17.33 17.33c4.85 4.85 10.99 8.17 18.43 9.95h.28l.85.28h.42z" fill="#9d00bf"/><path d="m592.89 292.44c-2.44-6.01-7.14-11.09-14.09-15.22-6.48-3.76-14.33-6.48-23.54-8.17-8.36-1.5-17.48-2.16-27.34-1.97-9.49.28-18.7 1.32-27.63 3.1-8.55 1.79-16.07 4.04-22.55 6.77-6.39 2.72-11.37 5.68-14.94 8.88-3.57 3.38-5.45 6.86-5.64 10.43-.28 4.23 1.88 8.79 6.48 13.67 4.23 4.51 10.15 8.93 17.76 13.25s16.02 8.03 25.23 11.13c9.87 3.29 19.59 5.4 29.18 6.34 6.2.56 11.98.66 17.34.28 5.83-.56 11.23-1.79 16.21-3.66 5.36-2.07 9.91-4.93 13.67-8.6 4.23-4.04 7.38-8.93 9.44-14.66 2.91-7.89 3.05-15.08.42-21.56zm-51.3 14.94c-.66 2.44-1.74 4.56-3.24 6.34-1.41 1.6-3.29 2.87-5.64 3.81-1.97.85-4.37 1.46-7.19 1.83-2.72.28-5.45.33-8.17.14-4.79-.28-10.05-1.22-15.79-2.82-4.98-1.5-9.77-3.38-14.38-5.64-4.23-2.07-7.71-4.23-10.43-6.48-2.63-2.35-3.9-4.42-3.81-6.2.19-1.5 1.27-2.96 3.24-4.37 1.97-1.32 4.7-2.49 8.17-3.52 3.48-1.13 7.33-1.97 11.56-2.54 4.79-.56 9.35-.85 13.67-.85 4.79.09 9.11.47 12.97 1.13 4.13.85 7.8 2.07 10.99 3.66 3.19 1.69 5.54 3.76 7.05 6.2 1.5 2.72 1.83 5.83.99 9.3zm-115.72-69.48c3.01 12.31 7.61 19.87 13.81 22.69.56.28 1.13.52 1.69.7l3.66.56c.47 0 1.17-.05 2.11-.14 3.95-.38 8.41-2.02 13.39-4.93 4.79-2.91 9.82-6.91 15.08-11.98 5.64-5.45 11.09-11.79 16.35-19.03 5.54-7.52 10.48-15.46 14.8-23.82 5.07-9.87 8.97-19.54 11.7-29.03 1.14-4.22 2.02-8.31 2.66-12.27h.02c.94-5.92 1.32-11.46 1.13-16.63-.38-10.15-2.91-18.6-7.61-25.37-4.98-7.42-12.31-12.5-21.99-15.22-2.16-.66-4.46-1.13-6.91-1.41-2.16-.28-4.37-.33-6.62-.14-2.07 0-4.13.23-6.2.7-1.79.38-3.76.99-5.92 1.83-6.95 2.72-13.25 7.52-18.89 14.38-5.26 6.2-9.77 13.91-13.53 23.11-2.2 5.22-4.1 10.79-5.72 16.69-.68 2.43-1.31 4.9-1.9 7.41.02 0 .05-.02.07-.03-.12.53-.24 1.05-.35 1.58-1.88 8.74-3.15 17.62-3.81 26.64-.56 8.17-.61 16.02-.14 23.54.56 7.42 1.6 14.14 3.1 20.16zm49.62-25.23c-4.04 8.46-8.88 15.88-14.52 22.27-5.26 6.01-9.68 9.21-13.25 9.58l-.7.14-1.27-.14-.7-.28c-2.63-1.22-4.46-5.21-5.5-11.98-1.03-6.86-.99-14.71.14-23.54 1.22-9.87 3.52-18.51 6.91-25.93 4.04-8.83 9.02-14.05 14.94-15.64 1.03-.28 1.79-.42 2.26-.42.75-.09 1.5-.14 2.26-.14s1.6.09 2.54.28 1.74.42 2.4.7c7.61 2.63 11.51 8.69 11.7 18.18.09 7.8-2.3 16.77-7.19 26.92zm-63.43 34.53c-3.57-8.74-8.97-17.71-16.21-26.92-6.65-8.48-13.57-15.38-20.74-20.7 0 0 .01-.01.02-.02-.75-.56-1.69-1.22-2.82-1.97-8.83-5.92-16.3-8.13-22.41-6.62-1.5.38-2.91 1.03-4.23 1.97-1.32.85-2.49 1.97-3.52 3.38-1.13 1.5-2.07 3.15-2.82 4.93-.85 2.16-1.46 4.37-1.83 6.62-1.97 9.21-.89 18.13 3.24 26.78 1.41 3.01 3.15 5.87 5.21 8.6 0 0 0 0 0-.01 2.99 4 6.7 7.86 11.13 11.57 6.67 5.54 14.19 10.05 22.55 13.53 8.46 3.48 15.83 5.07 22.13 4.79 1.22 0 2.54-.14 3.95-.42s2.58-.66 3.52-1.13 1.83-1.08 2.68-1.83 1.5-1.6 1.97-2.54c2.26-4.32 1.64-10.99-1.83-20.01zm-9.16 11.42c-.19.38-.42.66-.7.85-.28.38-.61.61-.99.7-.19.19-.56.33-1.13.42l-1.55.28c-3.01.19-6.91-.66-11.7-2.54-4.7-1.88-9.11-4.37-13.25-7.47-4.42-3.29-7.71-6.86-9.87-10.71-2.44-4.42-3.01-8.83-1.69-13.25.28-.94.61-1.79.99-2.54.47-.85.94-1.5 1.41-1.97s1.03-.89 1.69-1.27c.75-.28 1.41-.47 1.97-.56 3.01-.56 6.81.75 11.42 3.95 4.13 2.72 8.27 6.58 12.4 11.56 3.76 4.51 6.77 8.93 9.02 13.25 2.16 4.42 2.82 7.52 1.97 9.3zm58.77 80.19c-2.54-4.98-5.4-9.49-8.6-13.53-3.38-4.23-6.77-7.61-10.15-10.15-3.57-2.63-6.86-4.09-9.87-4.37h-.56c-2.91-.09-5.59.89-8.03 2.96-2.26 1.97-4.18 4.79-5.78 8.46-1.41 3.29-2.4 7-2.96 11.13s-.66 8.32-.28 12.54c.75 8.93 3.38 16.49 7.89 22.69 5.26 7.14 12.59 11.84 21.99 14.09h.28l.85.28h.42c10.24 1.97 17.1.05 20.58-5.78 1.6-2.72 2.4-6.2 2.4-10.43-.09-4.04-.85-8.46-2.26-13.25-1.41-4.89-3.38-9.77-5.92-14.66zm-10 18.61c-1.22 3.48-4.23 4.89-9.02 4.23h-.14l-.14-.14h-.42c-4.7-.94-8.32-3.38-10.85-7.33-2.16-3.57-3.38-7.89-3.66-12.97-.28-4.98.28-9.3 1.69-12.97 1.5-4.13 3.43-6.11 5.78-5.92h.14c2.35.28 5.12 2.72 8.32 7.33 3.19 4.6 5.59 9.44 7.19 14.52 1.79 5.54 2.16 9.96 1.13 13.25zm-53.14-59.48c-.85-.66-1.88-1.22-3.1-1.69s-2.49-.8-3.81-.99c-1.22-.28-2.54-.47-3.95-.56-4.04-.09-7.99.52-11.84 1.83-3.76 1.22-6.81 3.05-9.16 5.5-2.35 2.63-3.48 5.54-3.38 8.74.09 3.48 1.74 7.24 4.93 11.28.85 1.03 1.88 2.16 3.1 3.38.94.94 2.02 1.79 3.24 2.54.94.56 1.97 1.08 3.1 1.55 1.32.47 2.35.7 3.1.7 3.38.47 6.67-.23 9.87-2.11 3.1-1.79 5.78-4.32 8.03-7.61 2.35-3.38 3.81-6.86 4.37-10.43.56-3.95-.14-7.19-2.11-9.73-.75-.94-1.55-1.74-2.4-2.4zm-2.26 10.29c-.38 1.79-1.22 3.62-2.54 5.5-1.32 1.79-2.82 3.19-4.51 4.23-1.79 1.13-3.52 1.6-5.21 1.41l-1.55-.28c-.56-.19-1.08-.47-1.55-.85-.38-.19-.89-.56-1.55-1.13-.38-.38-.85-.89-1.41-1.55-1.69-2.16-2.35-4.13-1.97-5.92.19-1.6 1.17-3.01 2.96-4.23 1.6-1.13 3.52-1.97 5.78-2.54s4.42-.8 6.48-.7l1.55.14 1.27.28c.38.19.7.38.99.56l.7.56c.85 1.13 1.03 2.63.56 4.51z" fill="#ebe4f1"/><path d="m189.68 66.35h-120.79c-8.62 0-15.6 6.99-15.6 15.6v59.46c0 8.62 6.99 15.6 15.6 15.6h87.06l26.12 26.12v-26.12h7.61c8.62 0 15.6-6.99 15.6-15.6v-59.46c0-8.62-6.99-15.6-15.6-15.6z" fill="#221a4c" stroke="#6f47f4" stroke-miterlimit="10" stroke-width="4"/><circle cx="89.07" cy="111.61" fill="#9582f4" r="9"/><circle cx="129.28" cy="111.61" fill="#9582f4" r="9"/><circle cx="169.5" cy="111.61" fill="#9582f4" r="9"/><g fill="#221a4c"><path d="m771.92 341.27h118.49v92.44h-118.49z" stroke="#6f47f4" stroke-miterlimit="10" stroke-width="4"/><ellipse cx="831.16" cy="341.27" rx="59.25" ry="13.2" stroke="#6f47f4" stroke-miterlimit="10" stroke-width="4"/><ellipse cx="831.16" cy="433.71" rx="59.25" ry="13.2" stroke="#6f47f4" stroke-miterlimit="10" stroke-width="4"/><ellipse cx="831.16" cy="387.49" rx="59.25" ry="13.2" stroke="#6f47f4" stroke-miterlimit="10" stroke-width="4"/><path d="m881.89 160.05 13.09 8.75-21.17 21.17-8.75-13.09-21.99 9.11 3.07 15.44h-29.95l3.07-15.44-21.99-9.11-8.75 13.09-21.17-21.17 13.09-8.75-9.11-21.99-15.44 3.07v-29.95l15.44 3.07 9.11-21.99-13.09-8.75 21.17-21.17 8.75 13.09 21.99-9.11-3.07-15.44h29.95l-3.07 15.44 21.99 9.11 8.75-13.09 21.17 21.17-13.09 8.75 9.11 21.99 15.44-3.07v29.95l-15.44-3.07zm-28.89-55.73c-12.06-12.06-31.61-12.06-43.67 0s-12.06 31.61 0 43.67 31.61 12.06 43.67 0 12.06-31.61 0-43.67z" stroke="#6f47f4" stroke-miterlimit="10" stroke-width="4"/><path d="m154.57 453.66c-.53 0-1.04-.21-1.42-.59-.22-.22-.45-.43-.68-.65-.59-.54-1.25-1.15-1.8-1.92-3.58-5.03-7.15-10.17-10.47-14.98-.97-1.4-2.14-2.22-3.67-2.58-4.62-1.09-8.74-3.14-12.23-6.1-.54-.46-1.1-.65-1.88-.65-.28 0-.58.02-.93.07l-1.21.18c-2.65.39-5.39.79-8.16.84-.26 0-.52 0-.77 0-7.73 0-14.01-2.05-19.2-6.28-3.33-2.71-5.69-6.21-7.02-10.4-.3-.96.15-2 1.07-2.42l.83-.38c.5-.23.94-.43 1.38-.64 3.95-1.91 8.38-4.44 11.29-8.71 2.29-3.36 2.71-6.83 1.26-10.32-.13-.3-.39-.81-.78-.81-.11 0-.24.03-.38.09-.33.14-.7.29-.3 1.32.86 2.21.89 4.4.11 6.5-1.32 3.52-4.03 5.71-5.95 7.06-5.3 3.71-11.63 6.35-19.35 8.08-1.03.23-2.06.35-3.06.35-3.58 0-6.86-1.45-9.49-4.19-2.34-2.44-4.21-4.73-5.71-7-6.29-9.53-4.66-22.47 3.72-29.46.36-.3.82-.46 1.28-.46.1 0 .2 0 .3.02.56.08 1.07.41 1.38.88.14.19.31.42.44.73 2.59 6.12 7.65 9.73 15.92 11.36.12.02.24.04.34.04.22 0 .55 0 .67-.64.03-.16.12-.63-1-.93-.41-.11-.82-.21-1.23-.31-.78-.19-1.58-.38-2.39-.65-8.04-2.63-12.17-8.41-11.61-16.29.43-6.03 2.85-11.75 7.41-17.48 4.88-6.14 11.74-9.65 18.82-9.65 5.81 0 11.14 2.37 15.42 6.86.24.25.49.39.69.39s.39-.14.51-.26c.22-.21.55-.53-.21-1.34-2.94-3.09-6.43-5.22-10.38-6.32-1.07-.3-2.17-.52-3.44-.78-.62-.13-1.27-.26-1.96-.41-.82-.18-1.44-.85-1.55-1.68s.3-1.65 1.04-2.04c12.43-6.59 24.92-9.79 38.19-9.79 4.88 0 9.92.45 14.97 1.35.71.13 1.3.62 1.54 1.3s.1 1.43-.37 1.98c-.23.27-.44.5-.62.7-.27.3-.48.53-.66.77-.69.95-1.4 1.88-2.11 2.81-1.63 2.12-3.16 4.13-4.4 6.31-4.36 7.73-4.35 15.7.04 24.37.19.38.5.78.79.78.1 0 .23-.04.37-.11.29-.15.65-.33.17-1.44-.12-.27-.24-.53-.37-.8-.2-.43-.4-.87-.58-1.31-2.4-5.9-2.67-11.68-.79-17.18 1.88-5.49 5.33-10.25 11.18-15.43.71-.62 1.62-.75 2.26-.75.49 0 .97.07 1.39.21 8.84 2.95 17.01 7.54 24.28 13.65.99.83 1.55 2.5 1.27 3.81-.94 4.41-3.02 7.91-6.16 10.41-2.02 1.6-4.3 2.78-6.5 3.92l-.93.48c-.53.28-1.13.7-.98 1.16.16.47.34.47.56.47.17 0 .37-.03.59-.1 6.53-1.95 11.03-5.98 13.76-12.29.19-.44.37-.9.56-1.41l.36-.92c.24-.62.78-1.08 1.43-1.22.14-.03.29-.05.43-.05.51 0 1.01.19 1.38.55.7.67 1.39 1.33 2.08 1.97 1.51 1.43 2.94 2.78 4.36 4.2 5.53 5.56 11.76 12.2 15.74 20.61 4.58 9.71 3.83 18.6-2.24 26.44-1.28 1.65-1.44 2.71-.72 4.71 4.38 12.17.92 22.34-10.01 29.41-2.75 1.78-5.62 3.26-8.51 4.4-3.09 1.22-6.17 2.22-9.43 3.29-.91.3-1.82.59-2.74.9v1.41c-.02 2.33-.03 4.75.04 7.14.08 2.67-1.01 4.57-3.25 5.65-.27.13-.57.2-.87.2h-11.13zm-12.91-58.8c2.28 0 4.56.34 6.77 1 6.6 1.98 11.32 6.62 14.85 14.59.25.56.47 1.15.68 1.73.23.63.45 1.22.71 1.76.14.3.36.47.6.47.09 0 .18-.02.28-.07.57-.26.63-.46.51-.99-.14-.62-.38-1.26-.63-1.94l-.04-.12c-2.24-6.04-6.01-10.91-11.52-14.88-.75-.54-1.03-1.54-.68-2.39l.73-1.75c1.99-4.81 2.75-8.64 2.46-12.42-.37-4.86-2.75-8.48-7.27-11.07-.3-.17-.59-.26-.86-.26-.2 0-.57.06-.76.43-.12.23-.09.32-.08.35.07.2.4.57 1.13.95 3.08 1.58 5.09 4.14 5.83 7.4 1.38 6.09-.66 11.55-2.59 15.63-.34.71-1.05 1.14-1.81 1.14-.19 0-.38-.03-.56-.08-2.39-.7-4.83-1.05-7.27-1.05-1.73 0-3.51.18-5.3.53-4.24.83-8.21 2.34-11.8 4.48-.75.45-.55.84-.42 1.07.19.36.4.41.6.41s.42-.06.66-.17c.28-.13.55-.28.81-.44.27-.15.53-.3.81-.44 5.08-2.59 9.71-3.85 14.16-3.85zm41.82-17.56s-.09 0-.14.02c-3.72.77-7.57 1.65-11.42 2.61-.29.07-.38.22-.41.27-.1.17-.12.42-.05.69.08.31.35.51.67.51.06 0 .13 0 .19-.02l.85-.18c3.42-.73 6.95-1.49 10.33-2.44.12-.06.41-.4.61-.64-.06-.28-.17-.51-.31-.65-.13-.13-.25-.15-.33-.15zm-74.24-11.47c.19 0 .37.03.56.08.54.16.99.53 1.24 1.03l.75 1.51c2.33 4.77 7.04 7.74 12.29 7.74.8 0 1.61-.07 2.4-.21 1.24-.21 1.17-.68 1.12-1.02-.04-.24-.08-.56-.94-.56-.15 0-.31.01-.48.04-.73.1-1.46.16-2.16.16-5.51 0-9.83-3.25-11.56-8.7-.48-1.52.2-3.16.51-3.8.52-1.06 1.09-2.09 1.64-3.1.73-1.33 1.42-2.58 2.01-3.88.02-.04.05-.12 0-.26-.08-.18-.25-.34-.44-.41-.11-.04-.23-.06-.33-.06-.38 0-.6.27-.71.49-.08.15-.15.38-.23.63-.07.23-.15.45-.23.67-1.41 3.65-3.76 6.45-6.99 8.32-2.6 1.5-5.33 2.26-8.14 2.26-2.1 0-4.27-.43-6.44-1.28-.25-.1-.48-.15-.66-.15s-.37.03-.54.38c-.09.18-.33.65.56 1.13.65.35 1.36.62 2.04.76 2.15.45 4.01.66 5.7.66 3.02 0 5.64-.7 8-2.14.32-.19.68-.29 1.04-.29z"/></g><path d="m128.39 323.32c4.79 0 9.66.44 14.62 1.32-.64.74-1.05 1.15-1.38 1.61-2.24 3.09-4.77 6.01-6.63 9.32-4.9 8.67-4.43 17.51 0 26.25.62 1.23 1.56 1.87 2.57 1.87.42 0 .84-.11 1.27-.32 1.49-.75 1.89-2.21 1.1-4.03-.3-.69-.65-1.36-.93-2.06-2.11-5.17-2.58-10.44-.75-15.78 2.03-5.94 6.01-10.51 10.62-14.58.2-.18.56-.25.93-.25.27 0 .55.04.76.11 8.73 2.91 16.59 7.38 23.63 13.28.43.36.72 1.29.6 1.86-.79 3.67-2.52 6.94-5.45 9.26-2.14 1.7-4.67 2.92-7.11 4.19-1.6.83-2.44 2.1-1.95 3.57.4 1.19 1.27 1.84 2.45 1.84.36 0 .75-.06 1.16-.18 7.1-2.12 12.09-6.63 15.02-13.42.31-.71.57-1.45.94-2.39 2.23 2.14 4.36 4.09 6.4 6.14 5.98 6.02 11.67 12.27 15.35 20.05 4.01 8.5 3.88 16.75-2.01 24.36-1.7 2.2-1.96 3.99-1.02 6.61 4.06 11.28.87 20.53-9.22 27.05-2.56 1.66-5.32 3.1-8.16 4.22-4.34 1.71-8.83 3.05-13.43 4.6 0 3.23-.07 6.64.03 10.05.05 1.78-.53 3.02-2.12 3.79h-11.13c-.76-.77-1.65-1.45-2.27-2.32-3.52-4.96-6.99-9.95-10.46-14.96-1.21-1.75-2.76-2.9-4.85-3.39-4.24-1-8.07-2.86-11.4-5.68-.97-.82-2.02-1.12-3.18-1.12-.39 0-.8.03-1.21.09-3.03.44-6.08.94-9.13 1-.25 0-.49 0-.74 0-6.55 0-12.7-1.57-17.94-5.83-3.06-2.49-5.17-5.65-6.38-9.46.87-.4 1.56-.7 2.24-1.03 4.69-2.27 9.08-4.99 12.08-9.38 2.56-3.76 3.25-7.9 1.45-12.22-.57-1.36-1.54-2.04-2.62-2.04-.37 0-.76.08-1.15.24-1.53.64-2.11 2.05-1.39 3.89.67 1.71.74 3.37.1 5.08-1 2.67-2.96 4.54-5.22 6.12-5.64 3.95-12 6.28-18.64 7.77-.89.2-1.77.3-2.62.3-3.02 0-5.8-1.23-8.05-3.58-2-2.08-3.9-4.32-5.48-6.72-5.74-8.69-4.21-20.53 3.34-26.82.09.14.21.27.27.42 3.26 7.68 9.68 11.02 17.37 12.54.25.05.5.07.73.07 1.42 0 2.39-.91 2.64-2.28.28-1.51-.65-2.74-2.45-3.22-1.17-.31-2.37-.55-3.53-.92-7.07-2.31-10.73-7.29-10.24-14.25.44-6.22 3.19-11.61 6.98-16.38 4.48-5.63 10.85-8.9 17.26-8.9 4.93 0 9.87 1.94 13.98 6.24.66.69 1.4 1.01 2.14 1.01.68 0 1.34-.28 1.89-.81 1.21-1.16 1.2-2.75-.14-4.16-3.14-3.3-6.89-5.64-11.29-6.87-1.69-.47-3.43-.77-5.51-1.22 12.02-6.37 24.34-9.56 37.26-9.56m-28.85 41.46c-1.88 0-3.79-.39-5.72-1.14-.49-.19-.96-.28-1.39-.28-1.03 0-1.85.53-2.33 1.48-.71 1.41-.2 2.93 1.39 3.79.8.43 1.69.77 2.59.96 2.05.43 4.1.7 6.11.7 3.09 0 6.13-.66 9.05-2.44.29.59.52 1.04.74 1.5 2.7 5.53 8.14 8.86 14.08 8.86.9 0 1.82-.08 2.74-.23 1.99-.34 3.01-1.56 2.75-3.29-.21-1.44-1.3-2.27-2.92-2.27-.24 0-.5.02-.77.06-.64.09-1.27.14-1.87.14-4.6 0-8.16-2.61-9.65-7.3-.21-.67.06-1.62.4-2.3 1.17-2.37 2.59-4.63 3.68-7.03.63-1.38-.25-2.89-1.59-3.38-.34-.12-.68-.18-1.01-.18-1.04 0-1.99.58-2.5 1.61-.23.46-.35.98-.53 1.46-1.21 3.13-3.21 5.62-6.12 7.3-2.33 1.34-4.71 1.99-7.14 1.99m50.45 27.63c-2.63-.77-5.23-1.13-7.83-1.13-1.9 0-3.79.19-5.69.57-4.41.87-8.57 2.42-12.44 4.72-1.49.89-1.89 2.36-1.17 3.72.51.96 1.37 1.47 2.37 1.47.48 0 .99-.12 1.51-.36.58-.27 1.11-.62 1.68-.91 4.28-2.18 8.67-3.63 13.25-3.63 2.03 0 4.09.28 6.2.92 6.89 2.07 10.82 7.22 13.6 13.49.51 1.16.86 2.4 1.41 3.54.49 1.03 1.42 1.6 2.41 1.6.36 0 .74-.08 1.1-.24 1.39-.62 1.98-1.75 1.64-3.26-.18-.79-.47-1.55-.75-2.31-2.41-6.49-6.51-11.69-12.22-15.81.29-.69.51-1.22.73-1.76 1.77-4.27 2.96-8.66 2.61-13.34-.43-5.73-3.39-9.87-8.28-12.66-.63-.36-1.26-.52-1.85-.52-1.1 0-2.05.57-2.54 1.51-.78 1.5-.11 2.96 1.91 4 2.53 1.3 4.17 3.31 4.79 6.06 1.15 5.07-.26 9.7-2.45 14.33m22.17-9.02c.2 0 .41-.02.61-.07 3.79-.81 7.58-1.61 11.3-2.65.96-.27 1.66-1.45 2.13-1.88.03-2.14-1.2-3.48-2.71-3.48-.18 0-.36.02-.54.06-3.85.8-7.68 1.68-11.49 2.62-1.58.39-2.3 1.87-1.91 3.39.3 1.18 1.36 2.01 2.61 2.01m-43.75-64.07c-13.6 0-26.4 3.28-39.13 10.03-1.48.79-2.32 2.41-2.09 4.08.07.5.23.97.46 1.4-6.81.71-13.25 4.37-17.95 10.28-4.82 6.06-7.39 12.14-7.84 18.59-.1 1.4-.06 2.74.11 4.02-.1-.02-.21-.04-.32-.06-.2-.03-.4-.04-.59-.04-.93 0-1.84.32-2.56.93-9.15 7.64-10.96 21.73-4.11 32.1 1.56 2.37 3.51 4.75 5.93 7.28 3.02 3.14 6.8 4.81 10.94 4.81 1.15 0 2.33-.13 3.5-.4 2.95-.66 5.71-1.46 8.29-2.39 0 .42.05.84.19 1.26 1.45 4.57 4.02 8.39 7.66 11.35 5.56 4.53 12.26 6.73 20.46 6.73h.81c2.9-.05 5.71-.46 8.42-.86l1.2-.18c.25-.04.47-.05.64-.05.38 0 .46.07.59.17 3.74 3.17 8.14 5.37 13.07 6.52 1.05.25 1.79.78 2.48 1.77 3.3 4.78 6.86 9.9 10.48 15 .67.94 1.44 1.65 2.07 2.23.21.19.42.39.62.59.75.75 1.77 1.18 2.84 1.18h11.13c.61 0 1.2-.14 1.75-.4 1.69-.82 4.51-2.89 4.37-7.51-.07-2.34-.06-4.73-.04-7.04.46-.15.91-.3 1.36-.45 3.14-1.03 6.39-2.09 9.54-3.33 3.02-1.19 6-2.73 8.86-4.58 11.64-7.52 15.47-18.8 10.81-31.76-.49-1.36-.44-1.7.42-2.81 6.47-8.36 7.33-18.22 2.47-28.51-4.11-8.7-10.48-15.49-16.13-21.17-1.43-1.44-2.87-2.79-4.38-4.23-.68-.65-1.38-1.3-2.08-1.98-.75-.72-1.75-1.11-2.77-1.11-.29 0-.57.03-.86.09-.08.02-.15.04-.23.06-.17-1.51-.91-3.01-2.01-3.94-7.46-6.27-15.85-10.99-24.94-14.02-.62-.21-1.32-.32-2.03-.32-1.13 0-2.14.27-2.98.8-.02-.06-.04-.11-.06-.17-.48-1.36-1.66-2.35-3.07-2.6-5.17-.91-10.33-1.38-15.32-1.38z" fill="#6f47f4"/><path d="m126.22 178.67v51.61c0 13.72 11.12 24.84 24.84 24.84h107.16" fill="none" stroke="#6f47f4" stroke-miterlimit="10" stroke-width="4"/><path d="m126.22 193.71c-6.09 0-11.05-4.96-11.05-11.05s4.96-11.05 11.05-11.05 11.05 4.96 11.05 11.05-4.96 11.05-11.05 11.05z" fill="#6f47f4"/><path d="m126.22 174.35c4.59 0 8.32 3.72 8.32 8.32s-3.72 8.32-8.32 8.32-8.32-3.72-8.32-8.32 3.72-8.32 8.32-8.32m0-5.46c-7.6 0-13.78 6.18-13.78 13.78s6.18 13.78 13.78 13.78 13.78-6.18 13.78-13.78-6.18-13.78-13.78-13.78z" fill="#14161f"/><path d="m208.89 468.7c-6.09 0-11.05-4.96-11.05-11.05s4.96-11.05 11.05-11.05 11.05 4.96 11.05 11.05-4.96 11.05-11.05 11.05z" fill="#6f47f4"/><path d="m208.89 449.33c4.59 0 8.32 3.72 8.32 8.32s-3.72 8.32-8.32 8.32-8.32-3.72-8.32-8.32 3.72-8.32 8.32-8.32m0-5.46c-7.6 0-13.78 6.18-13.78 13.78s6.18 13.78 13.78 13.78 13.78-6.18 13.78-13.78-6.18-13.78-13.78-13.78z" fill="#14161f"/><path d="m208.89 458.67h2.87c12.83 0 23.23-10.4 23.23-23.23v-49.54c0-12.83 10.4-23.23 23.23-23.23" fill="none" stroke="#6f47f4" stroke-miterlimit="10" stroke-width="4"/><path d="m749.77 468.7c-6.09 0-11.05-4.96-11.05-11.05s4.96-11.05 11.05-11.05 11.05 4.96 11.05 11.05-4.96 11.05-11.05 11.05z" fill="#6f47f4"/><path d="m749.77 449.33c4.59 0 8.32 3.72 8.32 8.32s-3.72 8.32-8.32 8.32-8.32-3.72-8.32-8.32 3.72-8.32 8.32-8.32m0-5.46c-7.6 0-13.78 6.18-13.78 13.78s6.18 13.78 13.78 13.78 13.78-6.18 13.78-13.78-6.18-13.78-13.78-13.78z" fill="#14161f"/><path d="m749.77 458.67h-2.87c-12.83 0-23.23-10.4-23.23-23.23v-49.54c0-12.83-10.4-23.23-23.23-23.23" fill="none" stroke="#6f47f4" stroke-miterlimit="10" stroke-width="4"/><path d="m700.73 258.94h62.98c8.76 0 15.85-7.1 15.85-15.85v-19.08" fill="none" stroke="#6f47f4" stroke-miterlimit="10" stroke-width="4"/><path d="m779.55 235.08c-6.09 0-11.05-4.96-11.05-11.05s4.96-11.05 11.05-11.05 11.05 4.96 11.05 11.05-4.96 11.05-11.05 11.05z" fill="#6f47f4"/><path d="m779.55 215.72c4.59 0 8.32 3.72 8.32 8.32s-3.72 8.32-8.32 8.32-8.32-3.72-8.32-8.32 3.72-8.32 8.32-8.32m0-5.46c-7.6 0-13.78 6.18-13.78 13.78s6.18 13.78 13.78 13.78 13.78-6.18 13.78-13.78-6.18-13.78-13.78-13.78z" fill="#14161f"/></g></svg>