<?xml version="1.0" encoding="UTF-8"?>
<svg id="Layer_1" data-name="Layer 1" xmlns="http://www.w3.org/2000/svg" xmlns:xlink="http://www.w3.org/1999/xlink" viewBox="0 0 1000 1000">
  <defs>
    <style>
      .cls-1, .cls-2 {
        fill: url(#linear-gradient);
      }

      .cls-3 {
        clip-path: url(#clippath);
      }

      .cls-4 {
        mask: url(#mask);
      }

      .cls-2, .cls-5, .cls-6, .cls-7 {
        stroke-width: 0px;
      }

      .cls-8 {
        filter: url(#luminosity-noclip);
      }

      .cls-9, .cls-10, .cls-11, .cls-12, .cls-13 {
        stroke: #9a8e73;
        stroke-linejoin: round;
      }

      .cls-9, .cls-12 {
        fill: #e2d8bf;
      }

      .cls-9, .cls-13 {
        stroke-width: 19.64px;
      }

      .cls-10, .cls-11, .cls-14 {
        fill: none;
      }

      .cls-10, .cls-12 {
        stroke-width: 18.18px;
      }

      .cls-5 {
        fill: #bd62a5;
      }

      .cls-11 {
        stroke-width: 15.95px;
      }

      .cls-11, .cls-14 {
        stroke-linecap: round;
      }

      .cls-14 {
        stroke: #fff;
        stroke-miterlimit: 10;
        stroke-width: 3.24px;
      }

      .cls-6 {
        fill: #000;
      }

      .cls-7 {
        fill: #9a8e73;
      }

      .cls-13 {
        fill: rgba(226, 216, 191, .4);
      }
    </style>
    <filter id="luminosity-noclip" x="18.75" y="32.47" width="941.27" height="973.17" color-interpolation-filters="sRGB" filterUnits="userSpaceOnUse">
      <feFlood flood-color="#fff" result="bg"/>
      <feBlend in="SourceGraphic" in2="bg"/>
    </filter>
    <mask id="mask" x="18.75" y="32.47" width="941.27" height="973.17" maskUnits="userSpaceOnUse">
      <g class="cls-8">
        <path class="cls-6" d="M225.41,1005.64c-50.55,0-93.96-36.1-103.23-85.85L19.18,367.17c-4.22-22.62,23.02-37.39,39.67-21.5l156.39,149.17c.4-.77.79-1.49,1.14-2.15.38-.71.9-1.68,1.06-2.02,5.18-12.6,12.73-21.3,18.8-28.29,6.82-7.86,15.31-17.64,29.05-24.28,4.83-2.33,9.97-3.51,15.28-3.51,8.19,0,15.85,2.81,22.02,7.58,5.72-4.21,11.9-8.19,18.44-11.63,5.54-2.92,11.68-4.46,17.74-4.46,9.57,0,18.46,3.72,25.16,10.17,2.88-.72,6.02-1.14,9.4-1.14,2.85,0,5.71.32,8.5.95,3.26.74,6.35,1.86,9.22,3.33l80.43-170.63c9.81-20.82,40.54-16.86,44.76,5.77l103,552.61c5.14,27.6-.77,55.54-16.64,78.69-15.88,23.15-39.82,38.73-67.42,43.88l-290.44,54.13c-6.38,1.19-12.89,1.79-19.34,1.79Z"/>
      </g>
    </mask>
    <linearGradient id="linear-gradient" x1="313.74" y1="914.8" x2="313.74" y2="825.58" gradientTransform="translate(-95.89 72.21) rotate(-10.56)" gradientUnits="userSpaceOnUse">
      <stop offset="0" stop-color="#52000a"/>
      <stop offset=".04" stop-color="#5a0715"/>
      <stop offset=".2" stop-color="#782241"/>
      <stop offset=".36" stop-color="#903965"/>
      <stop offset=".52" stop-color="#a44b81"/>
      <stop offset=".68" stop-color="#b25795"/>
      <stop offset=".84" stop-color="#ba5fa1"/>
      <stop offset="1" stop-color="#bd62a5"/>
    </linearGradient>
    <clipPath id="clippath">
      <path class="cls-2" d="M380.16,914.03c-44.72,8.34-87.54-5.01-104.58-31.9,6.36.14,12.75-.34,19.08-1.52,1.68-.31,3.35-.67,5.02-1.08,37.33-9.15,56.81-39.04,64.14-53.21,11.94,10.58,40.88,31.44,79,26.53,8.12-1.05,15.97-3.19,23.42-6.26-6.2,31.22-41.34,59.1-86.07,67.43Z"/>
    </clipPath>
  </defs>
  <g>
    <g class="cls-4">
      <g>
        <path class="cls-13" d="M915.15,42.29H266.94c-19.35,0-35.04,15.69-35.04,35.04v284.64c0,19.35,15.69,35.04,35.04,35.04h518.37l-153.19,196.57,257.1-196.57h25.94c19.35,0,35.04-15.69,35.04-35.04V77.33c0-19.35-15.69-35.04-35.04-35.04Z"/>
        <path class="cls-7" d="M304.36,329.11V105.11h42.85v92.42h86.99v-92.42h42.75v224h-42.75v-92.53h-86.99v92.53h-42.85ZM492.78,329.11V105.11h136.57v39.05h-93.72v53.38h86.69v39.05h-86.69v53.49h94.12v39.05h-136.97ZM632.11,105.11h48l46.22,96.47h1.98l46.22-96.47h48l-73.93,144.82v79.19h-42.56v-79.19l-73.93-144.82ZM853.98,331.96c-6.53,0-12.14-2.57-16.82-7.71-4.69-5.14-6.99-11.32-6.93-18.54-.07-7.15,2.24-13.27,6.93-18.38,4.68-5.1,10.29-7.66,16.82-7.66s11.78,2.55,16.53,7.66c4.75,5.11,7.16,11.23,7.22,18.38-.07,4.81-1.2,9.21-3.41,13.18-2.21,3.97-5.1,7.15-8.66,9.52-3.56,2.37-7.46,3.55-11.68,3.55ZM875.95,105.11l-3.86,156.85h-36.22l-3.96-156.85h44.04Z"/>
      </g>
    </g>
    <g>
      <path class="cls-9" d="M222.42,543.14l10.78-2.01c.65-4.98,1.94-9.94,3.19-14.62,1.16-4.36,2.05-8.82,3.43-13.12,1.3-4.07,3.75-7.37,5.35-11.29,3.27-7.95,8.12-13.62,13.72-20.07,5.82-6.71,11.31-13,19.44-16.92,4.05-1.96,8.21,1.91,8.72,5.67.71,5.28-1.28,9.52-2.77,14.44-1.68,5.57-2.69,11.38-4.23,17.01-.4,1.45-3.22,10.67-3.82,17.21,1.14-3,2.56-5.94,4.02-8.74,3.93-7.55,8.89-14.66,14.59-20.98,11.21-12.44,25.4-24.87,40.17-32.64,4.01-2.11,7.92-.86,9.86,3.26,2.25,4.76-.4,9.31-2.66,13.47-3.35,6.17-5.12,13.47-7.63,20.05-2.1,5.51-7.39,13.69-7.33,19.64.03,2.59-.49,1.23,1.34,2.57,1.21.89,3.61,1.27,4.95,1.78.56.22,1.32.62,2.12,1.08-.05-1.36-.11-2.68,0-3.81.33-3.71.98-7.27,2.15-10.81,2.06-6.25,5.34-11.95,9.1-17.33,3.83-5.47,8.29-9.3,13.27-13.62,4.11-3.56,8.8-9.46,15.04-8.05,11.88,2.69,5.53,22.77,3.79,30.22-1.18,5.04-4.17,13.23-3.08,18.99l14.12-2.63,100.28-212.73,34.95,187.53,64.48,345.94c7.6,40.77-19.29,79.98-60.07,87.58l-290.44,54.13c-40.77,7.6-79.98-19.29-87.58-60.07l-64.48-345.94-34.95-187.53,170.18,162.32Z"/>
      <polygon class="cls-5" points="279.86 770.66 422.07 744.16 360.29 817.54 279.86 770.66"/>
      <polyline class="cls-11" points="292.66 611.06 279.86 770.66 360.29 817.54 422.07 744.16 349 600.56"/>
      <path class="cls-5" d="M100.46,472.96l18.75,100.62,5.56,1.26c22.23,5.02,45.19-4.69,57.08-24.13h0s-81.39-77.74-81.39-77.74Z"/>
      <path class="cls-5" d="M478.54,402.5l18.75,100.62-4.74,3.17c-18.93,12.69-43.84,11.9-61.94-1.95h0s47.92-101.85,47.92-101.85Z"/>
      <g>
        <path class="cls-11" d="M157.53,700.49c11.71-3.56,38.77-10.03,71.13-1.36,23.88,6.4,40.5,18.32,49.48,25.87"/>
        <path class="cls-11" d="M507.27,635.31c-12.2.9-39.78,4.61-66.85,24.36-19.98,14.57-31.18,31.68-36.83,41.96"/>
        <path class="cls-11" d="M193.67,733.11c6.88-3.58,20.56-9.52,38.67-9.59,22.36-.09,38.6,8.82,45.25,12.98"/>
        <path class="cls-11" d="M488.94,678.08c-7.71-.86-22.61-1.47-39.52,4.99-20.89,7.97-32.83,22.13-37.54,28.41"/>
      </g>
      <path class="cls-7" d="M522.33,768.04c-2.9-.68-5.81,1.11-6.5,4.01-8.82,37.33-38.71,65.49-74.41,70.09-42.34,5.45-72.11-25.12-75.36-28.62-1.26-1.36-3.13-1.97-4.95-1.63s-3.34,1.59-4.03,3.31c-1.77,4.44-18.53,43.68-59.99,53.85-34.95,8.56-72.98-6.94-94.66-38.58-1.69-2.46-5.04-3.09-7.51-1.4-2.46,1.69-3.09,5.05-1.4,7.51,16.72,24.4,42.23,40.18,69.36,44.44.09.5.22.99.46,1.46,17.04,34.09,66.99,51.83,118.78,42.18,51.79-9.65,92-44.2,95.61-82.14.05-.53,0-1.04-.1-1.53,23.77-13.74,41.89-37.65,48.7-66.44.69-2.9-1.11-5.81-4.01-6.5Z"/>
      <g>
        <path class="cls-1" d="M380.16,914.03c-44.72,8.34-87.54-5.01-104.58-31.9,6.36.14,12.75-.34,19.08-1.52,1.68-.31,3.35-.67,5.02-1.08,37.33-9.15,56.81-39.04,64.14-53.21,11.94,10.58,40.88,31.44,79,26.53,8.12-1.05,15.97-3.19,23.42-6.26-6.2,31.22-41.34,59.1-86.07,67.43Z"/>
        <g class="cls-3">
          <path class="cls-5" d="M440.16,900.63c-5.79-6.38-14.35-8.07-22.26-10.34-3.36-.97-6.25-2.72-9.83-2.78-4.42-.08-8.78,1.36-12.76,3.16-2.01.91-4.09,1.88-5.89,3.17-1.48,1.06-3.02,3.35-4.66,3.7-1.59.34-3.93-.97-5.45-1.42-2.83-.84-5.66-1.55-8.58-1.94-8.1-1.09-18.2,1.55-25.53,5.02-7.91,3.75-13.08,9.05-19.37,14.85-4.22,3.89-10.34,11.09-4.7,16.54,4.7,4.54,13.7,1.56,19.26.5,10.77-2.04,21.79-4.93,32.72-5.72,6.08-.44,12.05-1.36,18.06-2.4,5.3-.92,10.05-3.22,15.27-4.28,5.81-1.17,11.72-2.34,17.59-3.11,4.04-.53,8.09-.72,11.64-2.95.19-.12.36-.26.53-.39,4.46-.66,8.1-7.07,3.97-11.62Z"/>
        </g>
      </g>
      <g>
        <path class="cls-14" d="M242.52,622.95c-12.09-16.79-41.1-72.31-102.66-78.43-87.62-8.7-119.91,56.04-119.91,56.04"/>
        <path class="cls-14" d="M240.15,641.38c-18.59-9.1-66.25-29.32-127.52-20.73-15.15,2.12-29.12,5.72-41.89,10.27"/>
      </g>
      <g>
        <path class="cls-14" d="M400.05,593.59c5.23-20.02,21.03-69.33,67.52-110.15,61.88-54.33,133.96-54.82,151.66-54.44"/>
        <path class="cls-14" d="M408.91,609.93c14.06-15.19,51.24-51.21,111.49-65.28,14.89-3.48,29.22-5.15,42.78-5.51"/>
      </g>
    </g>
  </g>
  <g>
    <path class="cls-12" d="M726.36,698.77c19.62,14.14,16.79,34.84,14.39,44.48l-1.16,4.54s.76,4.04,1.24,9.99c.31.27.6.56.91.84,0,0,23.42-34.94,28.78-47.83,5.91-14.26,39.98-72.26,47.57-86.94,8.94-17.26,19.13-27.68,38.02-16.59s16.26,29.47,6.81,42.89c-13.03,18.52-52.69,83.76-52.69,83.76,7.02-7.3,15.27-12.94,28.4-3.29,15.05,11.07,14.42,19.05,9.31,29.43,15.76-8.86,25.83-1.6,31.46,3.94,9.53,9.39.81,31.35.93,31.42,13.16-12.38,18.57-5.72,27.41,1.41,5.42,4.36,8.78,14.47,5.22,26.22-3.57,11.77-.37,23.88-59.06,97.54-15.41,19.34-39.95,18.92-70.58,7.41-20.71-7.79-49.38-17.69-69.33-27.45-1.8-.88-3.49-1.88-5.13-2.95-10.92-5.66-18.93-16.43-20.26-29.26l-8.38-81.49c0-.1,0-.19-.01-.29-1.39-4.48-1.03-9.43,1.28-14.51,6.86-15.14,13.95-35.03,16.61-61.66.97-9.84,14.67-21.42,28.25-11.61Z"/>
    <path class="cls-10" d="M880.34,795.41l-15.83,23.76c-7.15,10.72-21.53,13.82-32.46,6.98l-2.19-1.37c-9.8-6.13-12.58-19.16-6.12-28.75l24.21-35.98-23.78,35.34c-6.91,10.28-20.55,13.54-31.37,7.5h0c-10.17-5.67-13.55-18.67-7.45-28.58l24.88-40.4"/>
    <path class="cls-10" d="M883.42,792.75l-31.76,45.68h0c-6.27,9.79-3.12,22.82,6.91,28.68l1.49.87c12.88,7.52,29.42,3.14,36.89-9.78l12.15-21.02"/>
  </g>
</svg>