<svg viewBox="0 0 280.82 317.33" xmlns="http://www.w3.org/2000/svg" xmlns:xlink="http://www.w3.org/1999/xlink"><radialGradient id="a" cx="140.75" cy="263.51" fx="140.75" fy="263.51" gradientUnits="userSpaceOnUse" r="76.33"><stop offset=".54" stop-color="#d3c933"/><stop offset=".6" stop-color="#ccc22e"/><stop offset=".68" stop-color="#bbaf23"/><stop offset=".76" stop-color="#9f8f11"/><stop offset=".81" stop-color="#8f7d06"/><stop offset=".92" stop-color="#706206"/><stop offset="1" stop-color="#595006"/></radialGradient><linearGradient id="b" gradientUnits="userSpaceOnUse" x1="140.39" x2="140.39" y1="279.71" y2="225.69"><stop offset="0" stop-color="#dbc9a5"/><stop offset=".38" stop-color="#d9c6a2"/><stop offset=".57" stop-color="#d4bf9b"/><stop offset=".71" stop-color="#cbb28f"/><stop offset=".83" stop-color="#be9f7d"/><stop offset=".94" stop-color="#ad8767"/><stop offset="1" stop-color="#a27758"/></linearGradient><radialGradient id="c" cx="140.41" cy="139.99" gradientUnits="userSpaceOnUse" r="88.02"><stop offset="0" stop-color="#e2ffff"/><stop offset="1" stop-color="#dbc9a5"/></radialGradient><clipPath id="d"><path d="m128.56 70.67-8.41 83.31c-.14 1.41.47 2.79 1.61 3.63l11.47 8.52c4.26 3.17 10.1 3.17 14.36 0l11.47-8.52c1.14-.84 1.75-2.22 1.61-3.63l-8.41-83.31"/></clipPath><linearGradient id="e" gradientUnits="userSpaceOnUse" x1="140.41" x2="140.41" y1="148.47" y2="69.77"><stop offset="0" stop-color="#ff7d44" stop-opacity=".42"/><stop offset=".83" stop-color="#ff7d44" stop-opacity="0"/></linearGradient><linearGradient id="f" gradientUnits="userSpaceOnUse" x1="140.41" x2="140.41" y1="232.08" y2="212.46"><stop offset="0" stop-color="#bea388"/><stop offset=".04" stop-color="#bfa489"/><stop offset=".64" stop-color="#d3bf9d"/><stop offset="1" stop-color="#dbc9a5"/></linearGradient><linearGradient id="g" gradientUnits="userSpaceOnUse" x1="206.58" x2="202.54" y1="1.53" y2="95.69"><stop offset="0" stop-color="#a45131"/><stop offset=".3" stop-color="#dbc9a5"/></linearGradient><linearGradient id="h" gradientUnits="userSpaceOnUse" x1="210.22" x2="205.33" y1="17.37" y2="87.28"><stop offset="0" stop-color="#1a200c"/><stop offset=".04" stop-color="#2e2c16"/><stop offset=".1" stop-color="#433920"/><stop offset=".16" stop-color="#4f4126"/><stop offset=".22" stop-color="#544429"/><stop offset=".32" stop-color="#634a2f"/><stop offset=".51" stop-color="#8b5b40"/><stop offset=".77" stop-color="#ca765b"/><stop offset=".88" stop-color="#e78267"/></linearGradient><linearGradient id="i" x1="79.09" x2="75.04" xlink:href="#g" y1="3.41" y2="97.96"/><linearGradient id="j" gradientTransform="matrix(-1 -0 -0 1 -1926.29 0)" x1="-1996.9" x2="-2001.78" xlink:href="#h" y2="87.28"/><linearGradient id="k" gradientUnits="userSpaceOnUse" x1="0" x2="90.57" y1="108.69" y2="108.69"><stop offset="0" stop-color="#fff" stop-opacity="0"/><stop offset="1" stop-color="#fff"/></linearGradient><linearGradient id="l" gradientTransform="matrix(-1 -0 -0 1 -1926.29 0)" x1="-2207.11" x2="-2116.54" xlink:href="#k"/><linearGradient id="m" x1="1.56" x2="98.79" xlink:href="#k" y1="84.93" y2="84.93"/><linearGradient id="n" gradientTransform="matrix(-1 -0 -0 1 -1926.29 0)" x1="-2205.55" x2="-2108.32" xlink:href="#k" y1="84.93" y2="84.93"/><radialGradient id="o" cx="140.39" cy="238.42" fx="97.38" fy="238.42" gradientTransform="matrix(-.04292191 .99907843 -1.15893098 -.04978942 423.41 110.04)" r="81.99" xlink:href="#a"/><linearGradient id="p" gradientUnits="userSpaceOnUse" x1="206.99" x2="206.43" y1="238.73" y2="251.88"><stop offset="0" stop-color="#f4eb76"/><stop offset=".17" stop-color="#f4ed7c"/><stop offset=".4" stop-color="#f4ef8d"/><stop offset=".66" stop-color="#f4f2a9"/><stop offset=".94" stop-color="#f4f6d1"/><stop offset="1" stop-color="#f4f7da"/></linearGradient><linearGradient id="q" gradientUnits="userSpaceOnUse" x1="209.07" x2="205.87" y1="243.19" y2="317.8"><stop offset="0" stop-color="#685c17"/><stop offset=".25" stop-color="#f4eb76"/><stop offset=".37" stop-color="#f4ed7c"/><stop offset=".55" stop-color="#f4ef8d"/><stop offset=".74" stop-color="#f4f2a9"/><stop offset=".96" stop-color="#f4f6d1"/><stop offset="1" stop-color="#f4f7da"/></linearGradient><linearGradient id="r" x1="210.88" x2="207.67" xlink:href="#q" y1="243.26" y2="317.88"/><linearGradient id="s" x1="77.59" x2="77.02" xlink:href="#p" y1="238.73" y2="251.88"/><linearGradient id="t" x1="78.39" x2="75.1" xlink:href="#q" y1="242.59" y2="319.42"/><linearGradient id="u" x1="79.48" x2="76.18" xlink:href="#q" y1="242.64" y2="319.46"/><path d="m167.71 300.7h-53.93c-41.08 0-74.38-33.3-74.38-74.38h202.68c0 41.08-33.3 74.38-74.38 74.38z" fill="url(#a)" stroke="#8f7d06" stroke-miterlimit="10" stroke-width="4.7"/><path d="m86.39 225.74 53.97 53.97 54.03-54.02z" fill="url(#b)" stroke="#aa9577" stroke-miterlimit="10" stroke-width="4.74"/><path d="m50.18 80.74v108.79c0 20 16.21 36.21 36.21 36.21h108.05c20 0 36.21-16.21 36.21-36.21v-108.79c-54.97-35.33-125.5-35.33-180.47 0z" fill="url(#c)" stroke="#aa9577" stroke-miterlimit="10" stroke-width="4.74"/><path d="m107.87 136.51c-4.12-5.01-9.63-8.81-16.26-9.24-6.79-.43-13.79 2.41-19.2 6.6-.16.14-.4.12-.53-.05-.11-.14-.1-.34.02-.47 2.48-2.74 5.4-5.05 8.67-6.92 4.94-2.85 11.09-4.38 16.93-3.52 6.04.8 11.68 3.95 16.21 7.84 4.32 4.02-1.87 10.14-5.84 5.75z" fill="#544429"/><path d="m87.57 135.94s9.88-5.12 23.17 0" fill="none" stroke="#544429" stroke-linecap="round" stroke-miterlimit="10" stroke-width="4.34"/><path d="m203.51 155.55c0 31.38-55.5 17.53-57.48 15.87-1.63-1.37-3.63-2.06-5.63-2.06s-4 .69-5.63 2.06c-1.98 1.67-57.48 15.05-57.48-15.87" fill="none" stroke="#544429" stroke-linecap="round" stroke-miterlimit="10" stroke-width="4.74"/><path d="m167.16 130.72c13.38-11.76 29.87-10.22 41.76 2.64.29.33-.18.82-.51.51-7.85-6.18-19.43-9.27-28.28-3.71-2.72 1.66-5.1 3.84-7.18 6.35-3.98 4.41-10.21-1.79-5.79-5.79z" fill="#544429"/><path d="m193.25 135.94s-9.88-5.12-23.17 0" fill="none" stroke="#544429" stroke-linecap="round" stroke-miterlimit="10" stroke-width="4.34"/><g clip-path="url(#d)"><path d="m128.75 148.47 6.26-78.7h10.8l6.26 78.7z" fill="url(#e)"/><path d="m140.41 168.51c-2.91 0-5.68-.92-8.01-2.65 0 0-8.2-6.12-12.7-9.51-.94-.71-.43-2.2.74-2.2h39.93c1.18 0 1.68 1.49.74 2.2-4.5 3.39-12.7 9.51-12.7 9.51-2.33 1.73-5.1 2.65-8.01 2.65z" fill="#f9ad9b"/></g><path d="m128.56 70.67-8.41 83.31c-.14 1.41.47 2.79 1.61 3.63l11.47 8.52c4.26 3.17 10.1 3.17 14.36 0l11.47-8.52c1.14-.84 1.75-2.22 1.61-3.63l-8.41-83.31" fill="none" stroke="#aa9577" stroke-linecap="round" stroke-miterlimit="10" stroke-width="4.74"/><path d="m110.77 212.46c5.05 11.89 16.72 19.62 29.64 19.62s24.59-7.72 29.64-19.62" fill="url(#f)" stroke="#dbc9a5" stroke-miterlimit="10" stroke-width="4.74"/><path d="m230.64 96.89v-90.74c0-.91-.36-1.69-.94-2.3-.9-.94-2.32-1.48-3.76-1.48s-2.86.52-3.81 1.68l-46.5 62.46" fill="url(#g)" stroke="#aa9577" stroke-linecap="round" stroke-linejoin="round" stroke-width="4.74"/><path d="m222.68 87.62s-17.05 5.71-33.32-20.52l34.17-48.8z" fill="url(#h)"/><path d="m50.18 96.89v-90.74c0-.91.36-1.69.94-2.3.9-.94 2.32-1.48 3.76-1.48s2.86.52 3.81 1.68l46.5 62.46" fill="url(#i)" stroke="#aa9577" stroke-linecap="round" stroke-linejoin="round" stroke-width="4.74"/><path d="m58.14 87.62s17.05 5.71 33.32-20.52l-34.17-48.8z" fill="url(#j)"/><g stroke-miterlimit="10"><path d="m159.34 60c.24-.39.28-.77.2-1.11 1.01-8.53-2.33-17.38-8.65-23.18-1.27-1.16-3.5.34-2.48 1.92 2.31 3.57 3.06 7.94 2.22 12.03-2.48-8.76-8.05-16.51-15.63-21.68-2.6-1.77-5.42-3.18-8.38-4.24-.65-.23-1.45.16-1.79.73-.38.66-.19 1.36.25 1.92 3.81 4.87 9.09 8.65 12.19 14.07 1.8 3.15 2.87 7.42 1.68 10.95-2.31-7.16-8.36-12.99-15.87-14.51-1.39-.28-2.4 1.06-1.79 2.32 1.67 3.41 5.51 5.31 6.69 8.99.56 1.75.59 3.62.05 5.39-.58 1.91-2.16 3.55-1.72 5.68" fill="#dbc9a5" stroke="#aa9577" stroke-linecap="round" stroke-width="4.74"/><path d="m1.19 125.04c1.7-3.92 9.53-20.83 28.81-28.81 1.51-.62 26.09-10.33 47.42 3.48 5.58 3.61 9.44 7.86 11.97 11.25" fill="none" stroke="url(#k)" stroke-linecap="round" stroke-width="2.37"/><path d="m279.63 125.04c-1.7-3.92-9.53-20.83-28.81-28.81-1.51-.62-26.09-10.33-47.42 3.48-5.58 3.61-9.44 7.86-11.97 11.25" fill="none" stroke="url(#l)" stroke-linecap="round" stroke-width="2.37"/><path d="m97.6 107.07c-17.11-38.65-53.44-55.91-94.85-35.84" fill="none" stroke="url(#m)" stroke-linecap="round" stroke-width="2.37"/><path d="m183.22 107.07c17.11-38.65 53.45-55.91 94.86-35.83" fill="none" stroke="url(#n)" stroke-linecap="round" stroke-width="2.37"/><path d="m140.41 265.26c-7.79-15.69-17.82-24.32-30.71-30.97-6.15-3.17-12.7-5.47-19.4-7.22-10.27-2.7-40.79-10.53-44.04-44.63 0 0-12.74 32.53-5.15 49.41 18.42 40.92 61.79 15.39 99.29 62.27 37.5-46.88 80.87-21.35 99.29-62.27 7.6-16.87-5.37-49.41-5.37-49.41-5.75 33.25-33.09 42.45-44.38 44.86-4.88 1.04-9.64 2.63-14.18 4.72-15.17 7-26.66 15.71-35.37 33.24z" fill="url(#o)" stroke="#8f7d06" stroke-width="4.7"/><circle cx="206.71" cy="245.3" fill="#685c17" r="5.79" stroke="url(#p)" stroke-width="1.58"/></g><path d="m208.83 244.38c3.14 5.32 4.89 11.79 3.88 18.11-.25 1.58-.7 3.13-1.28 4.58s-1.28 2.79-1.92 4.05c-1.33 2.51-2.3 4.84-2.47 7.45-.09 1.29-.03 2.63.19 3.9.23 1.28.64 2.51 1.22 3.74.56 1.23 1.29 2.49 1.91 3.86.63 1.37 1.13 2.85 1.38 4.36.24 1.51.33 3.02.23 4.52-.09 1.5-.35 2.96-.68 4.39-.67 2.86-1.67 5.6-2.88 8.24-.13.28-.46.41-.75.28-.27-.12-.39-.45-.29-.72 1.04-2.63 1.86-5.36 2.35-8.12.24-1.38.41-2.77.41-4.13.02-1.36-.17-2.72-.46-4.03-.31-1.31-.82-2.53-1.47-3.73-.64-1.2-1.44-2.39-2.16-3.71-.73-1.32-1.34-2.79-1.72-4.32-.37-1.53-.54-3.07-.54-4.65 0-1.57.24-3.17.67-4.69.42-1.52 1.02-2.94 1.59-4.26 1.18-2.65 2.1-5.04 2.31-7.58.24-2.52-.09-5.16-.83-7.61-.74-2.48-1.92-4.82-3.39-7.01-.85-1.26-.52-2.98.74-3.83s2.98-.52 3.83.74c.03.04.06.09.09.14l.02.04z" fill="url(#q)"/><path d="m204.06 309.2c-1.08 2.15-.2 4.77 1.95 5.85s4.77.2 5.85-1.95.2-4.77-1.95-5.85-4.77-.2-5.85 1.95z" fill="url(#r)"/><circle cx="77.31" cy="245.3" fill="#685c17" r="5.79" stroke="url(#s)" stroke-miterlimit="10" stroke-width="1.58"/><path d="m79.72 246.42c-1.18 2.46-2.02 5.05-2.44 7.7-.41 2.64-.42 5.41.12 7.95.26 1.28.67 2.5 1.24 3.74.56 1.24 1.28 2.51 1.97 3.94.69 1.42 1.28 3.01 1.61 4.64.33 1.64.38 3.26.32 4.89-.12 1.64-.45 3.27-.98 4.81-.55 1.53-1.29 2.93-2.02 4.24-1.5 2.62-2.93 5.01-3.66 7.69-.79 2.65-.98 5.52-.72 8.33.28 2.82 1.04 5.61 2.17 8.26.18.43-.02.92-.44 1.1-.41.18-.89 0-1.08-.4-2.68-5.4-3.92-11.8-2.48-17.95.67-3.08 2.17-5.92 3.46-8.49.64-1.3 1.21-2.56 1.59-3.84.37-1.28.55-2.57.58-3.89-.03-1.32-.14-2.66-.47-3.92-.33-1.25-.84-2.43-1.5-3.64s-1.47-2.47-2.21-3.88-1.38-2.97-1.79-4.57c-1.66-6.38-.73-13.08 1.71-18.96v-.02c.59-1.41 2.21-2.08 3.62-1.49s2.08 2.2 1.49 3.61c-.02.04-.04.09-.06.13z" fill="url(#t)"/><path d="m72.41 314.88c1.18 2.24 3.94 3.1 6.18 1.92s3.1-3.94 1.92-6.18-3.94-3.1-6.18-1.92-3.1 3.94-1.92 6.18z" fill="url(#u)"/><path d="m140.41 265.26v28.85" fill="none" stroke="#8f7d06" stroke-miterlimit="10" stroke-width="4.7"/></svg>