<svg xmlns="http://www.w3.org/2000/svg" xmlns:svg="http://www.w3.org/2000/svg" id="svg4266" width="95.686" height="104.463" fill-rule="evenodd" stroke-linejoin="round" stroke-miterlimit="2" clip-rule="evenodd" version="1.1" viewBox="0 0 95.686 104.463"><linearGradient id="a" x1="43.491" x2="92.314" y1="84.98" y2="84.98" gradientUnits="userSpaceOnUse"><stop id="stop4224" offset="0" stop-color="#1f2022"/><stop id="stop4226" offset="1" stop-color="#635e69"/></linearGradient><linearGradient id="b" x1="0" x2="1" y1="0" y2="0" gradientTransform="matrix(0,-56.79,56.79,0,66.6136,56.85)" gradientUnits="userSpaceOnUse"><stop id="stop4229" offset="0" stop-color="#2087e2"/><stop id="stop4231" offset="1" stop-color="#b63fff"/></linearGradient><linearGradient id="c" x1=".711" x2="28.622" y1="60.861" y2="60.861" gradientUnits="userSpaceOnUse"><stop id="stop4234" offset="0" stop-color="#100f0f"/><stop id="stop4236" offset="1" stop-color="#49261f"/></linearGradient><linearGradient id="d" x1="0" x2="1" y1="0" y2="0" gradientTransform="matrix(0,-25.8678,25.8678,0,48,100.066)" gradientUnits="userSpaceOnUse"><stop id="stop4239" offset="0" stop-color="#222020"/><stop id="stop4241" offset="1" stop-color="#49261f"/></linearGradient><linearGradient id="e" x1="0" x2="1" y1="0" y2="0" gradientTransform="matrix(0,-12.6533,12.6533,0,24.3667,81.15)" gradientUnits="userSpaceOnUse"><stop id="stop4244" offset="0" stop-color="#1e1c1c"/><stop id="stop4246" offset="1" stop-color="#49261f"/></linearGradient><clipPath id="f"><path id="path4249" d="M 6.794,4.146 H 132.775 V 123.403 H 6.794 Z" clip-rule="evenodd"/></clipPath><g id="g4264" clip-path="url(#f)" transform="translate(-37.087974,-18.940224)"><g id="g4262" fill-rule="nonzero" transform="matrix(1.04457,0,0,1.04457,36.3456,18.8777)"><path id="path4252" fill="url(#a)" d="m 91.5,75.35 c 1.033,-2.8 1.083,-5.35 0.15,-7.65 -0.867,-2.133 -2.533,-3.933 -5,-5.4 -2.3,-1.333 -5.083,-2.3 -8.35,-2.9 -2.967,-0.533 -6.2,-0.767 -9.7,-0.7 -3.367,0.1 -6.633,0.467 -9.8,1.1 -3.033,0.633 -5.7,1.433 -8,2.4 -2.267,0.967 -4.033,2.017 -5.3,3.15 -1.267,1.2 -1.933,2.433 -2,3.7 -0.1,1.5 0.667,3.117 2.3,4.85 1.5,1.6 3.6,3.167 6.3,4.7 2.7,1.533 5.683,2.85 8.95,3.95 3.5,1.167 6.95,1.917 10.35,2.25 2.2,0.2 4.25,0.233 6.15,0.1 2.067,-0.2 3.983,-0.633 5.75,-1.3 1.9,-0.733 3.517,-1.75 4.85,-3.05 1.5,-1.433 2.617,-3.167 3.35,-5.2 M 70.6,67.5 c 1.133,0.6 1.967,1.333 2.5,2.2 0.533,0.967 0.65,2.067 0.35,3.3 -0.233,0.867 -0.617,1.617 -1.15,2.25 -0.5,0.567 -1.167,1.017 -2,1.35 -0.7,0.3 -1.55,0.517 -2.55,0.65 -0.967,0.1 -1.933,0.117 -2.9,0.05 -1.7,-0.1 -3.567,-0.433 -5.6,-1 -1.767,-0.533 -3.467,-1.2 -5.1,-2 -1.5,-0.733 -2.733,-1.5 -3.7,-2.3 -0.933,-0.833 -1.383,-1.567 -1.35,-2.2 0.067,-0.533 0.45,-1.05 1.15,-1.55 0.7,-0.467 1.667,-0.883 2.9,-1.25 1.233,-0.4 2.6,-0.7 4.1,-0.9 1.7,-0.2 3.317,-0.3 4.85,-0.3 1.7,0.033 3.233,0.167 4.6,0.4 1.467,0.3 2.767,0.733 3.9,1.3 z" style="fill:#fff"/><path id="path4254" fill="url(#b)" d="m 66.6,15.05 c -0.133,-3.6 -1.033,-6.6 -2.7,-9 C 62.133,3.417 59.533,1.617 56.1,0.65 55.333,0.417 54.517,0.25 53.65,0.15 52.883,0.05 52.1,0.033 51.3,0.1 50.567,0.1 49.833,0.183 49.1,0.35 48.467,0.483 47.767,0.7 47,1 c -2.467,0.967 -4.7,2.667 -6.7,5.1 -1.867,2.2 -3.467,4.933 -4.8,8.2 -1.167,2.767 -2.1,5.8 -2.8,9.1 -0.667,3.1 -1.117,6.25 -1.35,9.45 -0.2,2.9 -0.217,5.683 -0.05,8.35 0.2,2.633 0.567,5.017 1.1,7.15 1.067,4.367 2.7,7.05 4.9,8.05 0.2,0.1 0.4,0.183 0.6,0.25 l 1.3,0.2 c 0.167,0 0.417,-0.017 0.75,-0.05 1.4,-0.133 2.983,-0.717 4.75,-1.75 1.7,-1.033 3.483,-2.45 5.35,-4.25 2,-1.933 3.933,-4.183 5.8,-6.75 1.967,-2.667 3.717,-5.483 5.25,-8.45 1.8,-3.5 3.183,-6.933 4.15,-10.3 1,-3.7 1.45,-7.117 1.35,-10.25 m -19.05,8.1 c 0.333,0.067 0.617,0.15 0.85,0.25 2.7,0.933 4.083,3.083 4.15,6.45 0.033,2.767 -0.817,5.95 -2.55,9.55 -1.433,3 -3.15,5.633 -5.15,7.9 -1.867,2.133 -3.433,3.267 -4.7,3.4 L 39.9,50.75 39.45,50.7 39.2,50.6 C 38.267,50.167 37.617,48.75 37.25,46.35 36.883,43.917 36.9,41.133 37.3,38 c 0.433,-3.5 1.25,-6.567 2.45,-9.2 1.433,-3.133 3.2,-4.983 5.3,-5.55 0.367,-0.1 0.633,-0.15 0.8,-0.15 0.267,-0.033 0.533,-0.05 0.8,-0.05 0.267,0 0.567,0.033 0.9,0.1 z" style="fill:url(#b)"/><path id="path4256" fill="url(#c)" d="m 2.7,33.6 c -0.4,0.533 -0.733,1.117 -1,1.75 -0.3,0.767 -0.517,1.55 -0.65,2.35 -0.7,3.267 -0.317,6.433 1.15,9.5 1.2,2.533 3.133,4.917 5.8,7.15 2.367,1.967 5.033,3.567 8,4.8 3,1.233 5.617,1.8 7.85,1.7 0.433,0 0.9,-0.05 1.4,-0.15 0.5,-0.1 0.917,-0.233 1.25,-0.4 0.333,-0.167 0.65,-0.383 0.95,-0.65 0.3,-0.267 0.533,-0.567 0.7,-0.9 0.8,-1.533 0.583,-3.9 -0.65,-7.1 C 26.233,48.55 24.317,45.367 21.75,42.1 19.083,38.7 16.3,36.017 13.4,34.05 10.267,31.95 7.617,31.167 5.45,31.7 4.917,31.833 4.417,32.067 3.95,32.4 3.483,32.7 3.067,33.1 2.7,33.6 m 7.4,9.95 c 0.167,-0.3 0.333,-0.533 0.5,-0.7 0.167,-0.167 0.367,-0.317 0.6,-0.45 0.267,-0.1 0.5,-0.167 0.7,-0.2 1.067,-0.2 2.417,0.267 4.05,1.4 1.467,0.967 2.933,2.333 4.4,4.1 1.333,1.6 2.4,3.167 3.2,4.7 0.767,1.567 1,2.667 0.7,3.3 -0.067,0.133 -0.15,0.233 -0.25,0.3 -0.1,0.133 -0.217,0.217 -0.35,0.25 -0.067,0.067 -0.2,0.117 -0.4,0.15 l -0.55,0.1 c -1.067,0.067 -2.45,-0.233 -4.15,-0.9 -1.667,-0.667 -3.233,-1.55 -4.7,-2.65 -1.567,-1.167 -2.733,-2.433 -3.5,-3.8 -0.867,-1.567 -1.067,-3.133 -0.6,-4.7 0.1,-0.333 0.217,-0.633 0.35,-0.9 z" style="fill:#fff"/><path id="path4258" fill="url(#d)" d="m 34.95,74.2 h -0.2 c -1.033,-0.033 -1.983,0.317 -2.85,1.05 -0.8,0.7 -1.483,1.7 -2.05,3 -0.5,1.167 -0.85,2.483 -1.05,3.95 -0.2,1.467 -0.233,2.95 -0.1,4.45 0.267,3.167 1.2,5.85 2.8,8.05 1.867,2.533 4.467,4.2 7.8,5 h 0.1 l 0.3,0.1 h 0.15 c 3.633,0.7 6.067,0.017 7.3,-2.05 0.567,-0.967 0.85,-2.2 0.85,-3.7 -0.033,-1.433 -0.3,-3 -0.8,-4.7 -0.5,-1.733 -1.2,-3.467 -2.1,-5.2 -0.9,-1.767 -1.917,-3.367 -3.05,-4.8 -1.2,-1.5 -2.4,-2.7 -3.6,-3.6 -1.267,-0.933 -2.433,-1.45 -3.5,-1.55 m -1.4,6.2 c 0.533,-1.467 1.217,-2.167 2.05,-2.1 h 0.05 c 0.833,0.1 1.817,0.967 2.95,2.6 1.133,1.633 1.983,3.35 2.55,5.15 0.633,1.967 0.767,3.533 0.4,4.7 -0.433,1.233 -1.5,1.733 -3.2,1.5 H 38.3 L 38.25,92.2 H 38.1 c -1.667,-0.333 -2.95,-1.2 -3.85,-2.6 -0.767,-1.267 -1.2,-2.8 -1.3,-4.6 -0.1,-1.767 0.1,-3.3 0.6,-4.6 z" style="fill:#fff"/><path id="path4260" fill="url(#e)" d="m 22.7,69.65 c -0.3,-0.233 -0.667,-0.433 -1.1,-0.6 -0.433,-0.167 -0.883,-0.283 -1.35,-0.35 -0.433,-0.1 -0.9,-0.167 -1.4,-0.2 -1.433,-0.033 -2.833,0.183 -4.2,0.65 -1.333,0.433 -2.417,1.083 -3.25,1.95 -0.833,0.933 -1.233,1.967 -1.2,3.1 0.033,1.233 0.617,2.567 1.75,4 0.3,0.367 0.667,0.767 1.1,1.2 0.333,0.333 0.717,0.633 1.15,0.9 0.333,0.2 0.7,0.383 1.1,0.55 0.467,0.167 0.833,0.25 1.1,0.25 1.2,0.167 2.367,-0.083 3.5,-0.75 1.1,-0.633 2.05,-1.533 2.85,-2.7 0.833,-1.2 1.35,-2.433 1.55,-3.7 C 24.5,72.55 24.25,71.4 23.55,70.5 23.283,70.167 23,69.883 22.7,69.65 m -1,2.05 c 0.3,0.4 0.367,0.933 0.2,1.6 -0.133,0.633 -0.433,1.283 -0.9,1.95 -0.467,0.633 -1,1.133 -1.6,1.5 -0.633,0.4 -1.25,0.567 -1.85,0.5 L 17,77.15 c -0.2,-0.067 -0.383,-0.167 -0.55,-0.3 -0.133,-0.067 -0.317,-0.2 -0.55,-0.4 -0.133,-0.133 -0.3,-0.317 -0.5,-0.55 -0.6,-0.767 -0.833,-1.467 -0.7,-2.1 0.067,-0.567 0.417,-1.067 1.05,-1.5 0.567,-0.4 1.25,-0.7 2.05,-0.9 0.8,-0.2 1.567,-0.283 2.3,-0.25 l 0.55,0.05 0.45,0.1 c 0.133,0.067 0.25,0.133 0.35,0.2 z" style="fill:#fff"/></g></g></svg>