<?xml version="1.0" encoding="UTF-8" standalone="no"?>
<!DOCTYPE svg PUBLIC "-//W3C//DTD SVG 1.1//EN" "http://www.w3.org/Graphics/SVG/1.1/DTD/svg11.dtd">
<svg width="100%" height="100%" viewBox="0 0 1440 900" version="1.1" xmlns="http://www.w3.org/2000/svg" xmlns:xlink="http://www.w3.org/1999/xlink" xml:space="preserve" xmlns:serif="http://www.serif.com/" style="fill-rule:evenodd;clip-rule:evenodd;stroke-linecap:round;stroke-linejoin:round;stroke-miterlimit:1.5;">
    <g id="Layer1" opacity="0.66">
        <g transform="matrix(1,0,0,1,121.927,182.24)">
            <path d="M2,278.38L1454.35,278.38" style="fill:none;stroke:rgb(236,230,255);stroke-opacity:0.32;stroke-width:1px;"/>
        </g>
        <g transform="matrix(1,0,0,1,-182.527,-53.9924)">
            <path d="M2,278.38L1454.35,278.38" style="fill:none;stroke:rgb(30,124,208);stroke-opacity:0.64;stroke-width:1px;"/>
        </g>
        <g transform="matrix(1,0,0,1,231.786,486.969)">
            <path d="M2,278.38L1454.35,278.38" style="fill:none;stroke:rgb(119,112,252);stroke-opacity:0.45;stroke-width:1px;"/>
        </g>
        <g transform="matrix(1,0,0,1,125.193,157.948)">
            <path d="M2,278.38L1454.35,278.38" style="fill:none;stroke:rgb(51,53,69);stroke-opacity:0.57;stroke-width:1px;"/>
        </g>
        <g transform="matrix(1,0,0,1,-464.802,64.75)">
            <path d="M2,278.38L1454.35,278.38" style="fill:none;stroke:rgb(114,108,243);stroke-opacity:0.72;stroke-width:1px;"/>
        </g>
        <g transform="matrix(1,0,0,1,-2.30729,1.79688)">
            <path d="M2,278.38L1454.35,278.38" style="fill:none;stroke:rgb(114,108,243);stroke-opacity:0.44;stroke-width:1px;"/>
        </g>
        <g transform="matrix(1,0,0,1,-12.1615,378.297)">
            <path d="M2,278.38L1454.35,278.38" style="fill:none;stroke:rgb(30,124,208);stroke-opacity:0.71;stroke-width:1px;"/>
        </g>
    </g>
</svg>
