<svg id="Layer_1" height="512" viewBox="0 0 24 24" width="512" xmlns="http://www.w3.org/2000/svg" data-name="Layer 1"><path d="m12 21.75a.74.74 0 0 1 -.53-.22l-2.8-2.78h-4.29a3.14 3.14 0 0 1 -3.13-3.13v-9.24a3.14 3.14 0 0 1 3.13-3.13h15.24a3.14 3.14 0 0 1 3.13 3.13v9.24a3.14 3.14 0 0 1 -3.13 3.13h-4.31l-2.78 2.78a.74.74 0 0 1 -.53.22zm-7.62-17a1.63 1.63 0 0 0 -1.63 1.63v9.24a1.63 1.63 0 0 0 1.63 1.63h4.62a.75.75 0 0 1 .53.22l2.47 2.47 2.47-2.47a.75.75 0 0 1 .53-.22h4.62a1.63 1.63 0 0 0 1.63-1.63v-9.24a1.63 1.63 0 0 0 -1.63-1.63z"/><path d="m15.75 11.75h-7.5a.75.75 0 0 1 0-1.5h7.5a.75.75 0 0 1 0 1.5z"/><path d="m15.75 14.75h-7.5a.75.75 0 0 1 0-1.5h7.5a.75.75 0 0 1 0 1.5z"/><path d="m15.75 8.75h-7.5a.75.75 0 0 1 0-1.5h7.5a.75.75 0 0 1 0 1.5z"/></svg>