<svg xmlns="http://www.w3.org/2000/svg" fill="#fff" viewBox="0 0 74 79"><linearGradient id="a" x1="264.48" x2="265.97" y1="82.8" y2="411.15" gradientTransform="matrix(.22377 0 0 .23899 -22.233 -19.656)" gradientUnits="userSpaceOnUse"><stop offset="0" stop-color="#6364ff"/><stop offset="1" stop-color="#563acc"/></linearGradient><path fill="url(#a)" d="M51.074 74.694q-12.72 7.4-31.913 2.081Q5.98 71.457 2.973 60.82 1.585 55.963.892 48.563q-2.082-26.826.693-33.994Q5.98 3.47 18.93 1.156q14.8-2.311 37.463 0 12.256 2.082 16.65 13.413 1.388 3.469.694 26.825-1.155 15.494-16.65 18.5-18.5 3.007-34.457-.462-.231 15.494 28.444 9.019"/><path d="M61.018 27.057q0-11.795-9.944-13.875-8.094-1.155-11.794 4.856l-2.081 3.47-2.081-3.47q-4.163-6.012-11.794-4.856-9.945 2.081-10.175 13.875v21.044h8.325v-20.35q0-7.17 6.937-6.475 4.625.693 4.625 7.862v10.87h8.325v-10.87q0-7.169 4.625-7.862 6.476-.695 6.707 5.319V48.1h8.325"/></svg>