<svg xmlns="http://www.w3.org/2000/svg" viewBox="0 0 24 24"><path xmlns="http://www.w3.org/2000/svg" fill="#fff" d="M9.57352 21.3108C6.08773 21.3108 3.25239 19.7518 1.59056 16.9209C0.119264 14.4396 -0.000610352 11.7519 -0.000610352 8.7487C-0.000610352 6.96826 0.535037 5.41811 1.54765 4.26542C2.47826 3.20675 3.79686 2.52094 5.26122 2.33419C6.99939 2.114 9.16028 2.0957 11.4069 2.0957C15.0631 2.0957 16.0959 2.1405 17.5344 2.28435C19.4479 2.47425 21.058 3.18845 22.1899 4.34996C23.3395 5.52978 23.9471 7.10517 23.9471 8.90769V9.26985C23.9471 12.3456 21.8909 14.9197 19.0253 15.6194C18.8114 16.1241 18.5464 16.6264 18.2329 17.1209L18.2246 17.1335C17.2151 18.6938 14.8423 21.3115 10.2972 21.3115H9.5729L9.57352 21.3108Z"/><path xmlns="http://www.w3.org/2000/svg" fill="#202020" d="M1.51344 8.74881C1.51344 5.73747 3.32481 4.10781 5.45287 3.83588C7.06045 3.63209 9.05288 3.60938 11.4069 3.60938C15.0744 3.60938 16.0251 3.65481 17.3835 3.79045C20.576 4.10717 22.432 6.0769 22.432 8.90718V9.26931C22.432 11.8958 20.5078 14.0466 17.904 14.2725C17.7002 14.952 17.3835 15.6308 16.9532 16.3104C15.957 17.8498 13.9646 19.7967 10.2971 19.7967H9.57275C6.58412 19.7967 4.27496 18.5065 2.89389 16.1519C1.67118 14.092 1.51282 11.805 1.51282 8.74881"/><path xmlns="http://www.w3.org/2000/svg" fill="#fff" d="M3.21131 8.77085C3.21131 11.6914 3.39241 13.5703 4.34317 15.3135C5.42963 17.3286 7.39935 18.0983 9.641 18.0983H10.3426C13.2857 18.0983 14.7123 16.6718 15.5047 15.427C15.8896 14.793 16.229 14.0914 16.41 13.2081L16.5458 12.6421H17.3609C19.1722 12.6421 20.7344 11.1709 20.7344 9.29135V8.95192C20.7344 6.84656 19.4215 5.73678 17.1344 5.4655C15.8442 5.35256 15.0744 5.30713 11.4063 5.30713C8.93878 5.30713 7.17283 5.32983 5.8372 5.53363C3.95834 5.80555 3.21069 6.86929 3.21069 8.77085"/><path xmlns="http://www.w3.org/2000/svg" fill="#202020" d="M16.5468 10.3337C16.5468 10.6056 16.7506 10.8094 17.1128 10.8094C18.2673 10.8094 18.9014 10.1526 18.9014 9.06621C18.9014 7.97978 18.2673 7.30029 17.1128 7.30029C16.7506 7.30029 16.5468 7.50406 16.5468 7.77599V10.3344V10.3337Z"/><path xmlns="http://www.w3.org/2000/svg" fill="#FF5A16" d="M5.43058 10.1979C5.43058 11.5336 6.17758 12.6882 7.12837 13.5942C7.76243 14.2054 8.75865 14.8396 9.43752 15.2471C9.64129 15.3601 9.84509 15.4282 10.0716 15.4282C10.3435 15.4282 10.5694 15.3601 10.7511 15.2471C11.4306 14.8396 12.4261 14.2054 13.0376 13.5942C14.011 12.6888 14.758 11.5342 14.758 10.1979C14.758 8.7487 13.6716 7.4585 12.1094 7.4585C11.1814 7.4585 10.5472 7.93418 10.0716 8.59035C9.64129 7.93357 8.98515 7.4585 8.05644 7.4585C6.47158 7.4585 5.42993 8.7487 5.42993 10.1979"/></svg>