<svg xmlns="http://www.w3.org/2000/svg" xmlns:xlink="http://www.w3.org/1999/xlink" width="100%" height="100%" version="1.1" viewBox="0 0 1440 900" xml:space="preserve" style="fill-rule:evenodd;clip-rule:evenodd;stroke-linecap:round;stroke-linejoin:round;stroke-miterlimit:1.5"><g id="Layer1" opacity=".66"><g><path d="M2,278.38L1454.35,278.38" transform="matrix(1,0,0,1,121.927,182.24)" style="fill:none;stroke:#ece6ff;stroke-opacity:.32;stroke-width:1px"/></g><g><path d="M2,278.38L1454.35,278.38" transform="matrix(1,0,0,1,-182.527,-53.9924)" style="fill:none;stroke:#1e7cd0;stroke-opacity:.64;stroke-width:1px"/></g><g><path d="M2,278.38L1454.35,278.38" transform="matrix(1,0,0,1,231.786,486.969)" style="fill:none;stroke:#7770fc;stroke-opacity:.45;stroke-width:1px"/></g><g><path d="M2,278.38L1454.35,278.38" transform="matrix(1,0,0,1,125.193,157.948)" style="fill:none;stroke:#333545;stroke-opacity:.57;stroke-width:1px"/></g><g><path d="M2,278.38L1454.35,278.38" transform="matrix(1,0,0,1,-464.802,64.75)" style="fill:none;stroke:#726cf3;stroke-opacity:.72;stroke-width:1px"/></g><g><path d="M2,278.38L1454.35,278.38" transform="matrix(1,0,0,1,-2.30729,1.79688)" style="fill:none;stroke:#726cf3;stroke-opacity:.44;stroke-width:1px"/></g><g><path d="M2,278.38L1454.35,278.38" transform="matrix(1,0,0,1,-12.1615,378.297)" style="fill:none;stroke:#1e7cd0;stroke-opacity:.71;stroke-width:1px"/></g></g></svg>