<svg id="Layer_1" enable-background="new 0 0 24 24" height="512" viewBox="0 0 24 24" width="512" xmlns="http://www.w3.org/2000/svg"><g><path d="m21.255 22h-18.509c-.963 0-1.746-.783-1.746-1.746v-16.508c0-.963.783-1.746 1.746-1.746h18.509c.962 0 1.745.783 1.745 1.746v16.509c0 .962-.783 1.745-1.745 1.745zm-18.509-19c-.412 0-.746.334-.746.746v16.509c0 .411.334.745.746.745h18.509c.411 0 .745-.334.745-.746v-16.508c0-.412-.334-.746-.745-.746z"/></g><g><path d="m8.5 14h-5c-.276 0-.5-.224-.5-.5v-9c0-.276.224-.5.5-.5h5c.276 0 .5.224.5.5v9c0 .276-.224.5-.5.5zm-4.5-1h4v-8h-4z"/></g><g><path d="m20.5 14h-10c-.276 0-.5-.224-.5-.5v-9c0-.276.224-.5.5-.5h10c.276 0 .5.224.5.5v9c0 .276-.224.5-.5.5zm-9.5-1h9v-8h-9z"/></g><g><path d="m14.276 10.947c-.169-.084-.276-.258-.276-.447v-3c0-.189.107-.362.276-.447.168-.084.373-.067.524.047l2 1.5c.126.094.2.243.2.4s-.074.306-.2.4l-2 1.5c-.151.113-.355.132-.524.047zm.724-2.447v1l.667-.5z"/></g><g><path d="m20.5 20h-17c-.276 0-.5-.224-.5-.5v-4c0-.276.224-.5.5-.5h17c.276 0 .5.224.5.5v4c0 .276-.224.5-.5.5zm-16.5-1h16v-3h-16z"/></g><g><path d="m6.5 18h-1c-.276 0-.5-.224-.5-.5s.224-.5.5-.5h1c.276 0 .5.224.5.5s-.224.5-.5.5z"/></g><g><path d="m18.5 18h-1c-.276 0-.5-.224-.5-.5s.224-.5.5-.5h1c.276 0 .5.224.5.5s-.224.5-.5.5z"/></g><g><path d="m15.5 18h-1c-.276 0-.5-.224-.5-.5s.224-.5.5-.5h1c.276 0 .5.224.5.5s-.224.5-.5.5z"/></g><g><path d="m12.5 18h-1c-.276 0-.5-.224-.5-.5s.224-.5.5-.5h1c.276 0 .5.224.5.5s-.224.5-.5.5z"/></g><g><path d="m9.5 18h-1c-.276 0-.5-.224-.5-.5s.224-.5.5-.5h1c.276 0 .5.224.5.5s-.224.5-.5.5z"/></g></svg>