<svg xmlns="http://www.w3.org/2000/svg" style="fill:#fff" width="682pt" height="682pt" viewBox="-21 -112 682.667 682"><path d="m189.925781 451.75h-112.835937l38.75-162.5h-40.839844c-41.359375 0-75-33.640625-75-75v-145c0-41.355469 33.640625-75 75-75h145c41.359375 0 75 33.644531 75 75v149.707031c0 24.761719-6.210938 49.375-17.960938 71.171875zm-49.515625-50h19.664063l72.953125-135.347656c7.832031-14.53125 11.972656-30.9375 11.972656-47.445313v-149.707031c0-13.785156-11.214844-25-25-25h-145c-13.785156 0-25 11.214844-25 25v145c0 13.785156 11.214844 25 25 25h104.160156zm394.515625 50h-112.835937l38.75-162.5h-40.839844c-41.359375 0-75-33.640625-75-75v-145c0-41.355469 33.640625-75 75-75h145c41.359375 0 75 33.644531 75 75v149.707031c0 24.761719-6.210938 49.375-17.960938 71.171875zm-49.515625-50h19.664063l72.953125-135.347656c7.832031-14.53125 11.972656-30.9375 11.972656-47.445313v-149.707031c0-13.785156-11.214844-25-25-25h-145c-13.785156 0-25 11.214844-25 25v145c0 13.785156 11.214844 25 25 25h104.160156zm0 0"/></svg>